{"glyphs":{"0":{"ha":689,"x_min":54,"x_max":628,"o":"m 342 901 q 493 855 428 901 q 593 726 558 808 q 628 539 628 644 q 554 264 628 365 q 342 163 481 163 q 126 269 199 163 q 54 542 54 375 q 89 730 54 649 q 189 856 124 811 q 342 901 254 901 m 340 244 q 496 324 442 244 q 550 529 550 403 q 497 740 550 658 q 350 821 444 821 q 187 743 244 821 q 129 535 129 665 q 185 320 129 396 q 340 244 242 244 z "},"1":{"ha":689,"x_min":133,"x_max":453,"o":"m 439 915 l 453 128 l 374 128 l 358 801 l 153 750 l 133 833 l 439 915 z "},"2":{"ha":689,"x_min":90,"x_max":603,"o":"m 447 468 q 291 367 347 424 q 225 244 235 310 l 603 238 l 603 158 l 131 165 q 147 286 132 228 q 193 388 161 344 q 280 469 224 429 q 403 539 336 510 q 478 601 450 560 q 506 689 506 642 q 458 787 506 749 q 342 825 410 825 q 238 785 285 825 q 169 665 192 744 l 90 689 q 183 857 119 801 q 339 913 247 913 q 504 860 436 913 q 589 724 572 808 q 593 683 593 703 q 554 557 593 617 q 447 468 515 497 z "},"3":{"ha":689,"x_min":97,"x_max":599,"o":"m 453 554 q 555 479 511 533 q 599 354 599 425 q 597 326 599 336 q 516 181 583 235 q 356 128 449 128 q 215 161 286 128 q 97 260 143 194 l 154 313 q 353 210 235 210 q 472 251 425 210 q 519 358 519 293 q 410 497 519 446 q 365 510 390 507 q 315 515 339 514 q 282 517 292 515 l 282 594 q 401 613 336 594 q 477 657 450 629 q 504 729 504 685 q 459 816 504 783 q 349 849 414 849 q 256 820 299 849 q 179 740 213 792 l 111 781 q 211 888 147 849 q 350 926 275 928 q 516 869 449 924 q 583 725 583 815 q 547 618 583 663 q 453 554 511 574 z "},"4":{"ha":689,"x_min":32,"x_max":675,"o":"m 675 444 l 672 364 l 508 369 l 510 143 l 435 143 l 432 369 l 32 378 l 190 908 l 263 888 l 133 456 l 432 450 l 431 913 l 507 913 l 508 447 l 675 444 z "},"5":{"ha":689,"x_min":103,"x_max":581,"o":"m 521 536 q 581 386 581 471 q 560 290 581 336 q 510 211 540 243 q 333 156 454 156 q 289 157 301 156 q 193 183 243 161 q 103 240 143 204 l 146 304 q 220 258 181 276 q 294 236 260 240 q 332 235 306 235 q 457 271 413 235 q 492 321 479 290 q 506 383 506 351 q 465 482 506 442 q 373 528 431 517 q 274 541 315 539 q 225 543 233 543 l 146 543 l 154 911 l 575 901 l 575 824 l 222 835 l 219 618 q 521 536 439 624 z "},"6":{"ha":689,"x_min":90,"x_max":594,"o":"m 542 524 q 594 375 594 458 q 577 283 594 328 q 526 201 560 238 q 447 152 497 169 q 342 135 397 135 q 242 151 290 135 q 161 199 194 167 q 90 382 90 265 q 115 526 90 444 q 233 741 144 617 q 407 929 321 865 l 458 869 q 326 731 389 811 q 228 578 264 650 q 342 610 268 610 q 453 588 399 610 q 542 524 507 567 m 472 263 q 503 315 493 286 q 514 375 514 344 q 481 474 514 432 q 419 515 457 500 q 338 529 381 529 q 261 515 296 529 q 207 475 226 501 q 169 368 169 422 q 213 261 169 306 q 269 224 235 236 q 340 211 303 211 q 416 224 381 211 q 472 263 451 238 z "},"7":{"ha":689,"x_min":57,"x_max":615,"o":"m 615 892 q 482 529 542 721 q 388 143 422 338 l 306 157 q 396 528 338 338 q 490 807 454 719 l 57 811 l 57 900 l 615 892 z "},"8":{"ha":689,"x_min":60,"x_max":629,"o":"m 482 563 q 589 482 549 536 q 629 358 629 428 q 553 196 629 258 q 343 133 478 133 q 133 195 206 135 q 60 356 60 256 q 96 481 60 428 q 199 563 132 535 q 103 721 103 618 q 160 868 106 814 q 329 922 215 922 q 515 867 450 922 q 581 729 579 811 q 556 633 581 676 q 482 563 531 589 m 332 846 q 219 814 260 846 q 179 729 179 782 q 225 638 179 675 q 342 601 271 601 q 459 636 415 601 q 503 728 503 671 q 458 813 503 781 q 332 846 414 846 m 343 213 q 494 255 438 213 q 550 361 551 297 q 490 473 547 429 q 342 517 432 517 q 196 474 254 517 q 138 365 138 432 q 192 256 138 300 q 343 213 247 213 z "},"9":{"ha":689,"x_min":76,"x_max":607,"o":"m 533 858 q 607 658 607 781 q 586 521 607 593 q 318 122 518 275 l 269 182 q 483 474 433 326 q 427 442 463 453 q 349 432 392 432 q 236 451 290 432 q 147 504 182 469 q 94 587 113 540 q 76 685 76 633 q 133 849 76 775 q 219 911 165 889 q 336 933 274 933 q 446 914 393 933 q 533 858 499 894 m 481 563 q 514 618 503 588 q 525 681 525 649 q 481 796 525 747 q 418 838 457 824 q 338 851 379 851 q 256 837 294 851 q 196 794 218 822 q 157 683 157 747 q 169 616 157 649 q 207 560 182 583 q 269 526 232 538 q 346 514 306 514 q 423 526 386 514 q 481 563 460 539 z "}," ":{"ha":694,"x_min":0,"x_max":0,"o":""},"A":{"ha":856,"x_min":83,"x_max":772,"o":"m 699 158 l 592 413 l 267 421 l 207 278 l 157 156 l 83 186 l 142 322 q 390 901 313 731 l 464 900 q 633 521 531 758 q 772 190 736 283 l 699 158 m 557 494 q 428 796 446 760 q 301 501 413 769 l 557 494 z "},"B":{"ha":671,"x_min":104,"x_max":581,"o":"m 432 558 q 498 526 463 553 q 557 456 533 500 q 579 354 581 411 q 499 192 574 242 q 274 143 424 143 q 104 154 181 143 l 111 917 q 233 922 174 922 q 469 871 388 922 q 551 726 551 819 q 532 647 551 682 q 485 588 513 611 q 432 558 457 565 m 183 600 l 242 600 l 288 600 q 420 636 367 604 q 474 726 474 668 q 402 822 474 797 q 251 846 331 846 l 186 844 l 183 600 m 272 221 q 445 258 392 225 q 499 372 499 292 q 435 476 499 436 q 283 519 371 517 q 185 519 253 521 l 179 226 q 272 221 231 219 z "},"C":{"ha":836,"x_min":99,"x_max":746,"o":"m 746 339 q 623 203 697 247 q 453 158 549 158 q 271 201 351 158 q 144 326 190 243 q 99 526 99 410 q 146 724 99 640 q 267 850 193 807 q 417 894 340 893 q 601 854 517 899 q 735 719 685 810 l 671 675 q 421 814 583 814 q 303 778 358 813 q 214 681 247 744 q 181 531 181 617 q 258 313 181 385 q 454 242 335 242 q 676 378 603 242 l 746 339 z "},"D":{"ha":764,"x_min":104,"x_max":674,"o":"m 208 899 q 555 806 436 899 q 674 528 674 714 q 619 332 674 414 q 467 207 565 250 q 238 164 368 164 q 104 171 174 164 l 111 896 q 140 897 117 896 q 208 899 164 899 m 233 249 q 494 321 397 249 q 590 531 590 393 q 501 743 590 672 q 251 817 411 814 l 186 817 l 181 250 q 233 249 192 249 z "},"E":{"ha":718,"x_min":104,"x_max":614,"o":"m 613 225 l 614 144 l 104 150 l 114 915 l 610 908 l 611 828 l 188 832 l 183 576 l 600 568 l 600 486 l 182 494 l 181 231 l 613 225 z "},"F":{"ha":724,"x_min":104,"x_max":625,"o":"m 624 838 l 190 842 l 189 579 l 593 572 l 592 489 l 188 494 l 183 135 l 104 135 l 113 924 l 625 919 l 624 838 z "},"G":{"ha":924,"x_min":90,"x_max":847,"o":"m 847 411 l 706 413 l 713 92 l 633 90 l 631 258 q 541 225 592 238 q 440 213 490 213 q 399 215 426 213 q 177 316 264 232 q 90 575 90 400 q 129 759 90 678 q 239 887 168 840 q 403 938 310 933 q 617 890 528 943 q 753 740 707 838 l 681 700 q 578 811 640 771 q 438 851 517 851 q 406 850 417 851 q 295 813 349 844 q 208 722 242 782 q 174 574 174 661 q 249 369 174 436 q 432 301 324 301 q 543 318 489 301 q 629 358 597 335 l 629 413 l 453 415 l 454 497 l 847 489 l 847 411 z "},"H":{"ha":854,"x_min":104,"x_max":750,"o":"m 674 146 l 668 500 l 185 504 l 181 146 l 104 146 l 113 917 l 189 917 l 186 586 l 667 581 l 661 917 l 739 917 l 750 146 l 674 146 z "},"I":{"ha":311,"x_min":111,"x_max":200,"o":"m 119 914 l 200 914 l 197 146 l 111 146 l 119 914 z "},"J":{"ha":782,"x_min":83,"x_max":678,"o":"m 672 917 q 676 471 674 647 q 560 169 678 249 q 484 138 529 149 q 389 128 439 128 q 287 140 335 128 q 207 175 239 151 q 126 280 154 215 q 83 450 99 344 l 165 465 q 198 332 181 382 q 253 253 215 282 q 313 223 276 233 q 389 213 349 213 q 518 247 471 213 q 575 330 558 275 q 593 471 592 385 l 589 917 l 672 917 z "},"K":{"ha":861,"x_min":118,"x_max":754,"o":"m 754 742 q 479 582 678 693 q 746 192 614 361 l 681 143 q 538 340 614 228 q 408 542 463 451 q 197 429 271 465 l 194 139 l 118 142 l 125 922 l 203 922 l 199 525 q 473 674 318 588 q 714 813 628 760 l 754 742 z "},"L":{"ha":783,"x_min":104,"x_max":700,"o":"m 697 240 l 700 157 l 110 163 l 104 921 l 188 921 l 193 246 l 697 240 z "},"M":{"ha":1061,"x_min":83,"x_max":978,"o":"m 825 911 q 913 508 865 736 q 978 163 960 279 l 897 150 q 841 447 878 260 q 781 747 804 635 q 688 474 764 693 q 574 153 613 256 l 506 153 l 399 436 q 337 601 378 490 q 283 740 296 713 q 225 444 264 639 q 164 149 186 250 l 83 164 q 151 497 100 240 q 236 911 226 868 l 303 913 q 493 417 363 775 l 540 293 l 606 482 q 753 913 722 826 l 825 911 z "},"N":{"ha":878,"x_min":104,"x_max":772,"o":"m 772 914 l 769 150 l 706 147 q 193 774 594 272 l 185 149 l 104 150 l 115 907 l 186 908 q 526 493 261 822 q 689 294 668 317 l 692 915 l 772 914 z "},"O":{"ha":856,"x_min":92,"x_max":764,"o":"m 417 906 q 672 805 579 906 q 764 522 764 704 q 723 331 764 415 q 608 201 682 247 q 440 154 535 154 q 256 199 335 154 q 135 327 178 243 q 92 525 92 411 q 176 805 92 704 q 417 906 261 906 m 435 244 q 613 319 547 244 q 678 528 678 394 q 610 744 678 668 q 422 819 542 819 q 241 744 306 819 q 176 526 176 668 q 244 317 176 390 q 435 244 311 244 z "},"P":{"ha":753,"x_min":104,"x_max":661,"o":"m 197 918 q 546 858 431 918 q 661 653 661 797 q 242 388 661 388 q 186 389 206 388 l 186 132 l 104 136 l 111 914 q 197 918 167 918 m 253 471 q 579 661 575 471 q 250 835 579 835 l 189 833 l 186 472 l 253 471 z "},"Q":{"ha":838,"x_min":92,"x_max":744,"o":"m 733 531 q 701 358 733 435 q 607 232 668 281 q 674 211 632 219 q 744 203 715 203 l 738 128 q 631 141 676 132 q 547 174 585 150 l 528 189 q 414 172 476 172 q 172 272 253 172 q 92 538 92 372 q 174 800 92 700 q 411 900 257 900 q 580 853 507 900 q 693 723 653 807 q 733 531 733 639 m 406 817 q 228 741 289 817 q 168 538 168 665 q 183 425 168 478 q 225 338 197 372 q 279 449 236 414 q 363 478 313 478 q 449 450 406 478 q 508 372 493 422 q 547 289 532 313 q 622 389 593 324 q 651 533 651 454 q 588 740 651 663 q 406 817 524 817 m 411 251 q 447 253 426 251 q 475 257 468 256 q 440 336 454 303 q 408 381 429 367 q 363 396 386 396 q 326 383 339 396 q 300 341 308 368 q 294 276 292 314 q 347 258 315 264 q 411 251 379 251 z "},"R":{"ha":764,"x_min":104,"x_max":681,"o":"m 594 354 q 630 269 611 306 q 681 175 649 232 l 610 138 q 525 319 571 196 q 494 380 511 357 q 454 419 478 403 q 340 456 410 450 q 186 457 301 457 l 181 136 l 104 136 l 115 908 q 168 911 133 910 q 243 913 203 913 q 555 858 456 913 q 654 692 654 804 q 610 557 654 608 q 492 483 567 506 q 555 428 531 458 q 594 354 579 399 m 389 538 q 517 580 463 543 q 571 688 571 617 q 494 797 571 764 q 265 833 418 831 q 217 832 235 833 q 192 831 199 831 l 188 538 q 296 533 229 533 q 389 538 347 533 z "},"S":{"ha":710,"x_min":83,"x_max":624,"o":"m 388 571 q 561 478 499 538 q 624 339 624 419 q 617 285 624 317 q 532 160 594 197 q 375 122 469 122 q 218 149 296 122 q 83 235 140 176 l 138 299 q 249 228 196 249 q 369 208 303 208 q 481 232 439 208 q 535 308 522 256 q 539 343 539 328 q 497 427 539 392 q 364 492 456 463 q 193 585 251 528 q 135 722 135 643 q 144 789 135 756 q 226 901 165 863 q 372 938 288 939 q 504 915 439 935 q 622 860 569 894 l 583 783 q 369 850 467 850 q 228 764 251 850 q 222 729 222 739 q 265 637 222 678 q 388 571 308 596 z "},"T":{"ha":850,"x_min":83,"x_max":767,"o":"m 767 811 l 468 814 l 471 143 l 390 143 l 386 815 l 83 817 l 85 906 l 765 896 l 767 811 z "},"U":{"ha":825,"x_min":104,"x_max":721,"o":"m 719 918 l 721 743 q 713 446 721 547 q 667 301 707 364 q 561 203 626 238 q 415 168 496 168 q 267 202 335 168 q 158 299 200 236 q 111 443 117 361 q 104 679 104 533 q 108 919 104 757 l 193 918 l 193 889 q 189 626 189 681 q 193 454 189 506 q 265 306 199 358 q 422 254 331 254 q 566 308 507 254 q 632 450 625 361 q 640 747 640 549 l 639 917 l 719 918 z "},"V":{"ha":960,"x_min":83,"x_max":876,"o":"m 876 871 q 700 497 808 715 q 521 157 592 279 l 451 157 q 265 501 372 290 q 83 876 157 713 l 163 910 q 344 533 229 758 q 488 264 458 307 l 517 322 q 689 669 622 533 q 796 908 756 806 l 876 871 z "},"W":{"ha":1186,"x_min":83,"x_max":1103,"o":"m 1103 889 q 1019 542 1082 786 q 914 147 957 297 l 842 147 q 640 661 771 321 l 599 768 q 503 507 583 722 q 369 158 422 292 l 301 158 q 182 536 254 296 q 83 885 110 776 l 163 906 q 255 584 190 803 q 342 300 319 365 q 448 586 364 356 q 564 913 532 817 l 632 911 q 774 547 689 764 q 874 296 858 331 q 947 583 889 343 q 1022 907 1006 822 l 1103 889 z "},"X":{"ha":863,"x_min":83,"x_max":779,"o":"m 721 150 q 426 464 547 332 q 179 199 339 368 l 142 158 l 83 224 q 311 461 135 274 l 371 525 q 88 847 186 728 l 149 904 q 328 701 185 861 l 429 588 q 714 908 621 793 l 775 850 q 543 589 733 801 l 486 526 q 779 211 663 333 l 721 150 z "},"Y":{"ha":886,"x_min":76,"x_max":810,"o":"m 810 847 q 488 499 608 619 l 483 144 l 404 146 l 410 500 q 76 853 285 622 l 132 908 q 450 578 385 635 q 591 726 492 618 q 753 907 690 833 l 810 847 z "},"Z":{"ha":754,"x_min":83,"x_max":671,"o":"m 671 251 l 671 167 l 118 169 q 372 588 150 225 q 467 740 428 676 q 510 811 506 804 l 83 815 l 83 896 l 639 886 q 470 598 590 797 q 331 367 350 399 l 261 253 l 671 251 z "},"a":{"ha":736,"x_min":92,"x_max":668,"o":"m 603 265 q 628 226 614 242 q 668 193 642 211 l 625 132 q 563 185 589 151 q 528 253 536 218 q 445 187 501 211 q 317 168 389 163 q 204 199 256 171 q 122 279 153 228 q 92 397 92 331 q 153 566 92 506 q 325 626 215 626 q 435 604 383 626 q 507 553 486 582 q 510 593 510 567 q 458 721 510 675 q 397 747 439 739 q 314 751 354 756 l 303 824 q 358 828 331 828 q 507 781 446 828 q 567 696 547 747 q 588 588 588 644 q 586 553 588 564 q 579 400 579 463 q 603 265 579 313 m 346 249 q 463 291 424 249 q 503 400 503 333 q 454 503 503 461 q 333 546 406 546 q 217 507 258 546 q 175 397 175 468 q 220 288 175 328 q 346 249 265 249 z "},"b":{"ha":703,"x_min":104,"x_max":611,"o":"m 546 592 q 611 413 611 521 q 592 306 611 357 q 539 215 574 254 q 466 169 510 185 q 374 153 422 153 q 267 172 317 153 q 188 228 217 192 l 185 131 l 108 132 l 104 925 l 183 924 l 188 594 q 265 649 219 631 q 363 667 311 667 q 464 647 415 667 q 546 592 513 628 m 478 275 q 516 337 503 301 q 529 410 529 372 q 483 536 529 486 q 428 574 461 561 q 358 588 394 588 q 247 546 289 588 q 210 485 224 522 q 197 410 197 449 q 210 335 197 369 q 247 281 224 301 q 305 247 272 258 q 372 235 338 235 q 432 245 404 235 q 478 275 460 256 z "},"c":{"ha":679,"x_min":93,"x_max":596,"o":"m 596 281 q 501 194 558 226 q 381 160 443 161 q 258 175 310 157 q 158 242 206 193 q 110 324 126 274 q 93 432 93 375 q 105 525 93 481 q 139 603 117 569 q 229 679 174 653 q 344 706 285 706 q 589 588 507 706 l 536 543 q 449 609 501 588 q 344 631 397 631 q 265 613 303 631 q 206 563 228 596 q 178 503 188 538 q 168 429 168 468 q 178 355 168 390 q 210 294 189 319 q 284 247 238 263 q 383 235 331 232 q 469 262 428 236 q 540 328 510 288 l 596 281 z "},"d":{"ha":719,"x_min":90,"x_max":674,"o":"m 611 232 q 674 176 629 207 l 629 114 q 559 174 586 136 q 526 249 532 211 q 451 182 503 206 q 338 158 399 158 q 244 173 289 158 q 168 215 200 188 q 110 303 131 249 q 90 418 90 358 q 107 520 90 471 q 156 604 124 569 q 232 655 186 638 q 329 672 278 672 q 434 653 385 672 q 513 599 483 633 l 515 925 l 594 925 l 593 319 q 597 272 592 296 q 611 232 601 249 m 458 285 q 494 342 482 307 q 507 418 507 378 q 494 492 507 457 q 456 546 481 526 q 398 578 431 567 q 332 589 365 589 q 268 578 299 589 q 217 544 238 567 q 183 488 194 522 q 171 415 171 454 q 184 338 171 374 q 224 282 197 303 q 340 242 269 242 q 405 253 374 242 q 458 285 436 264 z "},"e":{"ha":719,"x_min":92,"x_max":626,"o":"m 626 467 q 624 406 626 426 l 174 413 q 206 315 178 353 q 286 253 233 276 q 376 235 326 235 q 472 250 426 235 q 527 275 499 260 q 576 307 556 290 l 619 243 q 558 201 594 222 q 492 172 521 181 q 379 157 439 157 q 256 179 310 157 q 138 278 183 211 q 92 435 92 344 q 165 647 92 568 q 360 726 239 726 q 496 692 435 726 q 592 597 557 657 q 626 467 626 538 m 542 482 q 522 561 543 524 q 458 622 500 599 q 361 646 417 646 q 232 603 281 646 q 174 486 183 561 l 542 482 z "},"f":{"ha":628,"x_min":69,"x_max":558,"o":"m 310 576 l 307 142 l 226 143 l 228 258 q 233 578 232 515 l 69 581 l 71 664 l 235 660 q 236 744 235 736 q 288 881 236 833 q 333 904 304 894 q 390 914 363 914 q 449 909 414 914 q 510 897 485 904 l 499 822 q 399 835 426 835 q 339 815 358 835 q 319 780 326 801 q 311 738 311 758 l 311 658 l 558 651 l 558 571 l 310 576 z "},"g":{"ha":694,"x_min":86,"x_max":664,"o":"m 651 72 q 553 92 596 86 q 526 -49 550 6 q 454 -131 501 -103 q 367 -154 411 -154 q 254 -106 299 -154 q 221 -8 221 -72 q 232 58 221 26 q 263 108 243 90 q 344 156 293 140 q 451 171 394 171 l 483 171 l 486 322 q 416 267 461 288 q 317 247 371 247 q 171 296 233 247 q 108 379 131 328 q 86 488 86 431 q 102 578 86 535 q 149 653 118 621 q 222 699 176 683 q 317 715 267 715 q 417 697 371 715 q 489 643 464 678 l 489 735 l 563 735 q 561 553 561 710 l 560 361 l 558 322 q 553 164 554 186 q 664 144 615 156 l 651 72 m 439 375 q 479 483 479 419 q 439 594 479 543 q 390 627 422 615 q 321 639 357 639 q 253 628 285 639 q 204 596 222 617 q 165 483 165 551 q 180 412 165 446 q 219 358 194 378 q 318 329 257 329 q 387 341 354 329 q 439 375 419 353 m 433 -53 q 481 96 478 -17 q 387 91 421 96 q 329 68 353 86 q 303 37 313 56 q 294 -3 294 18 q 311 -51 294 -31 q 365 -76 331 -76 q 433 -53 400 -76 z "},"h":{"ha":686,"x_min":104,"x_max":594,"o":"m 593 449 q 594 306 594 411 q 593 142 594 164 l 518 143 q 514 436 518 367 q 474 530 510 496 q 374 571 438 564 q 277 555 321 575 q 208 497 233 535 q 179 396 179 454 l 179 146 l 104 144 l 104 910 l 181 908 l 179 582 q 258 640 210 619 q 360 661 306 661 q 470 637 418 661 q 556 565 522 613 q 593 449 590 517 z "},"i":{"ha":324,"x_min":100,"x_max":224,"o":"m 161 831 q 208 811 192 831 q 224 765 224 792 q 208 724 224 742 q 164 707 192 707 q 117 726 133 707 q 100 771 100 746 q 116 813 100 794 q 161 831 132 831 m 117 144 l 122 601 l 203 599 l 196 142 l 117 144 z "},"j":{"ha":544,"x_min":0,"x_max":453,"o":"m 390 833 q 437 814 421 833 q 453 768 453 794 q 438 727 453 744 q 396 710 422 710 q 347 728 364 710 q 329 775 329 747 q 345 816 329 799 q 390 833 361 833 m 435 601 l 436 369 q 435 222 436 260 q 401 87 429 139 q 319 8 374 35 q 224 -14 275 -14 q 99 24 158 -14 q 0 133 39 63 l 67 179 q 140 99 97 128 q 226 71 182 71 q 288 86 257 71 q 336 140 321 103 q 354 225 351 178 q 357 494 357 276 l 357 603 l 435 601 z "},"k":{"ha":654,"x_min":104,"x_max":578,"o":"m 578 560 q 390 463 521 526 q 571 193 492 303 l 507 146 q 319 429 415 275 q 183 367 276 407 l 182 135 l 104 135 l 111 921 l 188 921 l 183 457 q 377 547 265 492 q 543 632 489 603 l 578 560 z "},"l":{"ha":350,"x_min":121,"x_max":282,"o":"m 217 181 q 240 157 222 169 q 282 136 258 144 l 251 58 q 189 90 214 74 q 149 126 164 106 q 128 176 136 146 q 121 238 121 207 q 135 944 121 146 l 214 943 q 204 246 204 146 q 217 181 204 204 z "},"m":{"ha":954,"x_min":104,"x_max":863,"o":"m 861 499 q 863 397 863 475 q 860 169 863 228 l 778 169 q 781 393 781 228 q 779 483 781 465 q 743 571 776 539 q 667 603 710 603 q 578 568 618 603 q 538 475 538 533 q 539 386 539 457 q 536 167 539 222 l 454 167 q 456 394 456 196 l 456 476 q 417 570 453 535 q 335 606 382 606 q 233 567 279 606 q 186 474 188 528 q 185 344 185 451 q 186 163 185 186 l 104 163 l 107 725 l 188 724 l 188 626 q 253 676 214 660 q 339 692 292 693 q 434 666 390 692 q 499 603 478 640 q 563 666 518 642 q 660 690 608 690 q 750 669 704 690 q 828 605 796 649 q 861 499 860 561 z "},"n":{"ha":710,"x_min":104,"x_max":619,"o":"m 618 464 q 619 381 619 439 q 615 163 619 283 l 538 163 q 540 382 540 296 q 539 454 540 439 q 489 571 533 533 q 371 608 444 608 q 283 588 326 608 q 211 535 239 567 q 183 468 183 503 l 181 163 l 104 163 l 107 736 l 183 735 l 183 615 q 261 669 210 646 q 374 692 313 692 q 483 669 428 692 q 576 594 538 646 q 618 464 615 543 z "},"o":{"ha":733,"x_min":92,"x_max":643,"o":"m 361 738 q 569 658 494 738 q 643 446 643 579 q 571 227 642 311 q 378 143 500 143 q 166 225 240 143 q 92 442 92 307 q 125 596 92 529 q 219 700 158 663 q 361 738 281 738 m 374 232 q 511 292 465 233 q 558 447 557 350 q 510 596 558 542 q 368 650 461 650 q 226 594 275 650 q 178 447 178 538 q 228 290 178 349 q 374 232 278 232 z "},"p":{"ha":733,"x_min":104,"x_max":643,"o":"m 383 719 q 575 643 507 719 q 643 449 643 567 q 572 261 642 335 q 383 188 503 188 q 264 210 315 188 q 185 271 213 233 l 185 -61 l 104 -61 l 108 738 l 186 736 l 186 632 q 265 697 215 674 q 383 719 315 719 m 372 271 q 508 319 458 269 q 557 451 557 369 q 509 584 557 533 q 376 635 461 635 q 240 581 285 635 q 194 439 194 528 q 241 320 194 367 q 372 271 288 274 z "},"q":{"ha":729,"x_min":90,"x_max":625,"o":"m 625 -58 l 544 -58 l 542 271 q 467 210 514 232 q 358 188 421 188 q 160 260 229 188 q 90 453 90 333 q 158 644 90 568 q 346 719 225 719 q 463 697 413 719 q 542 635 513 674 l 540 738 l 619 736 l 625 -58 m 351 272 q 487 318 442 272 q 532 446 532 364 q 485 584 532 533 q 346 635 439 635 q 217 583 263 635 q 172 453 172 532 q 221 321 174 369 q 351 272 268 272 z "},"r":{"ha":508,"x_min":104,"x_max":439,"o":"m 189 607 q 263 665 218 644 q 364 686 307 686 q 439 678 399 686 l 429 593 q 375 600 399 600 q 304 588 338 600 q 247 556 271 575 q 203 498 219 535 q 186 424 188 461 q 183 158 186 222 l 104 158 l 111 758 l 190 756 l 189 607 z "},"s":{"ha":607,"x_min":83,"x_max":524,"o":"m 342 481 q 461 408 418 454 q 504 304 504 361 q 499 267 504 292 q 431 172 482 203 q 314 142 381 142 q 185 174 249 142 q 83 264 122 206 l 139 314 q 219 243 175 267 q 313 219 264 219 q 395 241 363 219 q 428 308 428 263 q 398 369 428 344 q 306 417 368 394 q 176 490 222 444 q 131 593 131 535 q 138 638 131 613 q 197 718 151 690 q 310 746 243 746 q 524 664 414 746 l 486 600 q 401 648 438 633 q 325 667 364 663 q 254 658 286 671 q 214 617 222 646 q 211 594 211 610 q 244 531 211 561 q 342 481 278 501 z "},"t":{"ha":638,"x_min":69,"x_max":568,"o":"m 358 194 q 436 176 385 176 q 525 188 476 176 l 539 103 q 428 89 474 89 q 317 114 358 89 q 222 300 225 168 l 226 596 l 69 599 l 69 679 l 229 675 l 232 882 l 313 878 l 310 674 l 567 671 l 568 593 l 307 594 l 306 482 q 304 308 303 328 q 358 194 307 226 z "},"u":{"ha":765,"x_min":104,"x_max":726,"o":"m 669 253 q 692 229 679 239 q 726 208 706 219 l 690 139 q 618 188 647 158 q 581 257 589 218 q 496 188 550 213 q 367 163 442 163 q 183 233 257 163 q 104 436 110 304 l 104 500 q 108 718 104 601 l 189 717 q 185 496 185 592 l 185 439 q 237 296 188 346 q 375 246 286 246 q 507 294 454 246 q 563 438 560 343 q 564 525 564 461 q 561 714 564 608 l 642 713 l 643 354 q 669 253 640 288 z "},"v":{"ha":782,"x_min":69,"x_max":713,"o":"m 713 660 q 583 422 671 575 q 438 182 494 268 l 367 182 q 209 426 303 276 q 69 658 115 575 l 139 697 q 277 469 190 607 q 404 276 364 331 q 528 487 457 361 q 640 697 600 613 l 713 660 z "},"w":{"ha":942,"x_min":90,"x_max":851,"o":"m 849 699 q 850 653 849 674 l 851 543 q 847 378 851 435 q 828 286 842 321 q 785 225 814 251 q 664 186 740 186 q 583 200 615 186 q 517 244 544 217 q 478 303 489 271 q 388 204 450 239 q 303 188 358 188 q 238 196 269 188 q 185 219 207 204 q 110 330 131 258 q 90 550 90 401 l 92 703 l 168 701 l 167 553 q 176 390 167 447 q 217 304 185 333 q 301 274 247 274 q 386 306 356 274 q 424 393 414 336 q 436 560 435 450 l 436 613 l 436 693 l 517 693 l 517 558 q 528 390 517 447 q 572 303 540 332 q 613 279 589 288 q 661 271 636 271 q 743 304 714 271 q 768 362 763 324 q 774 465 774 400 l 774 550 l 772 699 l 849 699 z "},"x":{"ha":681,"x_min":83,"x_max":597,"o":"m 392 425 q 597 222 518 292 l 546 167 q 339 367 494 211 q 151 168 206 222 l 94 221 q 285 424 228 361 q 83 643 160 554 l 138 697 q 338 481 228 596 q 528 700 471 629 l 586 651 q 392 425 514 564 z "},"y":{"ha":710,"x_min":104,"x_max":679,"o":"m 671 94 q 568 106 622 103 q 546 -25 565 24 q 478 -107 526 -74 q 390 -132 440 -132 q 326 -120 357 -132 q 275 -87 296 -108 q 240 6 240 -51 q 251 67 240 38 q 283 119 263 97 q 372 168 318 156 q 499 182 425 181 q 503 297 503 232 q 504 340 504 313 q 430 285 478 306 q 329 264 382 264 q 225 290 276 264 q 140 367 174 317 q 107 485 107 418 l 104 724 l 185 724 l 186 490 q 230 385 186 425 q 329 346 274 346 q 449 387 397 346 q 501 513 500 428 l 503 717 l 582 717 l 582 657 q 579 369 582 435 q 577 269 579 328 q 572 179 575 210 q 679 168 638 174 l 671 94 m 449 -35 q 483 20 472 -12 q 497 110 493 53 q 407 105 443 110 q 350 82 371 100 q 326 51 335 69 q 318 11 318 32 q 332 -33 318 -15 q 389 -57 353 -57 q 449 -35 422 -57 z "},"z":{"ha":664,"x_min":83,"x_max":581,"o":"m 124 181 q 314 472 183 278 q 401 607 397 599 l 83 615 l 85 696 l 536 688 q 403 467 492 604 q 303 313 314 329 q 265 256 269 263 l 579 250 l 581 172 l 124 181 z "},"一":{"ha":1229,"x_min":111,"x_max":1118,"o":"m 1118 581 l 1117 497 l 111 510 l 111 594 l 1118 581 z "},"丁":{"ha":1185,"x_min":111,"x_max":1074,"o":"m 111 951 l 1074 942 l 1074 854 l 742 857 l 743 68 l 663 69 l 661 858 l 111 863 l 111 951 z "},"七":{"ha":1281,"x_min":111,"x_max":1169,"o":"m 794 135 q 1136 149 968 133 l 1144 61 q 822 46 1010 46 q 518 97 618 46 q 382 263 418 149 q 342 597 346 376 l 115 588 l 111 675 l 342 685 l 342 1008 l 426 1006 l 429 689 l 1163 721 l 1169 631 l 429 600 q 455 326 436 413 q 549 188 474 240 q 794 135 625 136 z "},"万":{"ha":1143,"x_min":111,"x_max":1032,"o":"m 1032 908 l 419 914 q 394 675 411 793 l 935 669 q 950 67 950 279 l 869 67 q 866 324 869 172 q 858 588 863 476 l 382 589 q 254 54 336 315 l 175 83 q 336 915 296 449 l 111 917 l 113 997 l 1032 989 l 1032 908 z "},"丈":{"ha":1151,"x_min":111,"x_max":1040,"o":"m 1040 744 l 721 749 q 677 523 708 621 q 589 346 646 425 q 1017 121 760 208 l 990 38 q 532 276 722 121 q 388 156 472 213 q 188 40 304 99 l 147 119 q 460 339 363 240 q 251 603 342 453 l 324 650 q 519 408 413 508 q 595 558 569 476 q 633 750 621 639 l 111 756 l 111 843 l 640 836 q 646 1042 643 906 l 732 1042 q 728 836 732 931 l 1040 832 l 1040 744 z "},"三":{"ha":1142,"x_min":111,"x_max":1031,"o":"m 942 842 l 188 847 l 190 931 l 940 925 l 942 842 m 242 565 l 903 557 l 904 474 l 243 479 l 242 565 m 1031 196 l 1031 114 l 111 117 l 111 201 l 1031 196 z "},"上":{"ha":1268,"x_min":111,"x_max":1157,"o":"m 674 528 l 668 161 l 1157 157 l 1157 71 l 111 79 l 111 165 l 582 161 l 592 1007 l 681 1006 l 675 615 l 1104 607 l 1104 518 l 674 528 z "},"下":{"ha":1163,"x_min":111,"x_max":1051,"o":"m 1050 900 l 628 906 l 625 631 q 1015 483 836 564 l 985 403 q 625 539 836 472 l 621 63 l 542 63 l 549 907 l 111 913 l 111 996 l 1051 982 l 1050 900 z "},"不":{"ha":1161,"x_min":111,"x_max":1050,"o":"m 742 913 q 597 675 689 782 l 608 54 l 528 53 l 521 599 q 359 479 449 533 q 153 369 269 425 l 115 450 q 446 651 307 542 q 650 914 585 761 l 111 917 l 113 1004 l 1014 996 l 1014 911 l 742 913 m 713 624 q 885 538 796 588 q 1050 438 975 489 l 1006 365 q 676 549 867 461 l 713 624 z "},"与":{"ha":976,"x_min":111,"x_max":865,"o":"m 293 621 l 828 613 q 832 401 832 504 q 808 1 832 181 l 726 6 q 750 382 750 181 q 747 531 750 481 l 211 536 l 218 1057 l 299 1057 l 296 885 l 864 886 l 865 804 l 296 803 l 293 621 m 663 251 l 111 258 l 111 340 l 663 335 l 663 251 z "},"丐":{"ha":1032,"x_min":111,"x_max":919,"o":"m 915 486 q 919 336 919 403 q 897 3 919 215 l 815 8 q 839 346 839 199 l 839 403 l 161 408 l 167 810 l 247 808 l 242 490 l 478 489 l 481 963 l 111 965 l 113 1049 l 911 1039 l 911 958 l 563 961 l 561 760 l 889 757 l 889 676 l 561 679 l 560 489 l 915 486 z "},"丑":{"ha":1292,"x_min":111,"x_max":1181,"o":"m 983 981 l 989 154 l 1181 153 l 1181 67 l 111 76 l 111 163 l 328 161 l 356 483 l 207 486 l 206 574 l 363 571 l 392 906 l 189 910 l 189 994 l 983 981 m 900 897 l 476 904 l 447 569 l 903 563 l 900 897 m 903 474 l 440 482 l 414 160 l 906 156 l 903 474 z "},"专":{"ha":1107,"x_min":111,"x_max":996,"o":"m 882 426 q 674 99 863 242 l 707 85 l 821 35 l 781 -40 q 328 133 558 67 l 356 213 q 585 135 460 183 q 710 242 661 188 q 772 344 758 297 l 275 349 q 347 582 307 442 l 111 585 l 113 667 l 367 664 q 403 828 379 713 l 165 831 l 165 914 l 418 911 q 447 1111 435 1010 l 532 1103 l 503 910 l 926 904 l 926 824 l 488 828 q 454 664 472 739 l 994 658 l 996 576 l 433 582 q 389 431 407 486 l 882 426 z "},"且":{"ha":1160,"x_min":111,"x_max":1049,"o":"m 917 142 l 1046 140 l 1049 54 l 111 64 l 111 149 l 239 147 l 247 1011 l 903 999 l 917 142 m 829 715 l 826 917 l 325 924 l 324 725 l 829 715 m 322 440 l 832 433 l 829 632 l 324 642 l 322 440 m 832 349 l 321 356 l 319 147 l 835 142 l 832 349 z "},"世":{"ha":1276,"x_min":111,"x_max":1165,"o":"m 1003 379 l 600 382 l 599 742 l 331 744 l 333 151 l 1113 144 l 1113 61 l 251 68 l 249 744 l 111 746 l 111 832 l 249 831 l 249 960 l 329 958 l 329 829 l 599 826 l 597 1018 l 679 1017 l 681 826 l 925 824 l 928 1010 l 1011 1008 l 1008 822 l 1165 821 l 1165 736 l 1007 738 l 1003 379 m 681 742 l 682 467 l 922 464 l 925 738 l 681 742 z "},"丘":{"ha":1251,"x_min":111,"x_max":1140,"o":"m 1138 135 l 1140 47 l 111 56 l 113 143 l 263 142 l 274 885 q 634 939 486 914 q 928 1001 782 964 l 949 918 q 708 865 829 886 q 351 807 586 843 l 349 638 l 1075 631 l 1075 549 l 907 550 l 914 136 l 1138 135 m 826 550 l 349 553 l 343 142 l 831 138 l 826 550 z "},"丙":{"ha":1203,"x_min":111,"x_max":1092,"o":"m 1083 729 l 1092 22 l 1010 22 l 1004 646 l 646 650 q 628 544 642 590 q 785 416 707 488 q 926 271 864 344 l 856 213 q 732 342 801 275 q 596 460 663 408 q 492 328 558 386 q 324 222 425 271 l 281 300 q 486 456 425 376 q 560 650 547 535 l 206 654 l 194 24 l 111 22 l 125 740 l 564 735 l 563 938 l 175 940 l 175 1026 l 1029 1018 l 1029 933 l 649 936 l 649 735 l 1083 729 z "},"业":{"ha":1236,"x_min":111,"x_max":1125,"o":"m 775 946 l 778 151 l 1125 150 l 1125 65 l 113 68 l 111 154 l 444 153 l 444 951 l 525 950 l 525 153 l 699 151 l 696 949 l 775 946 m 1075 719 q 1013 483 1053 608 q 931 275 972 357 l 854 310 q 933 514 893 392 q 993 739 972 636 l 1075 719 m 279 281 q 210 503 251 386 q 129 707 168 619 l 207 738 q 291 532 249 650 q 360 303 333 414 l 279 281 z "},"丛":{"ha":1308,"x_min":111,"x_max":1196,"o":"m 429 553 q 334 369 393 458 q 179 183 275 279 l 124 244 q 303 478 242 360 q 390 714 365 597 q 428 1001 414 831 l 511 994 q 488 795 500 879 q 456 638 476 711 l 479 618 q 700 419 603 518 q 825 676 789 546 q 875 992 861 807 l 960 982 q 928 750 946 844 q 879 572 911 656 q 1028 426 960 501 q 1188 233 1096 350 l 1118 181 q 983 347 1047 275 q 842 489 919 418 q 594 178 764 338 l 539 236 q 649 351 594 289 q 429 553 536 467 m 111 36 l 111 118 l 1196 106 l 1194 24 l 111 36 z "},"东":{"ha":1075,"x_min":111,"x_max":964,"o":"m 892 456 l 614 456 l 618 6 l 539 6 l 536 456 l 176 456 q 303 817 263 679 l 111 817 l 111 901 l 328 900 q 367 1061 357 1014 l 444 1047 q 411 900 431 978 l 942 899 l 943 815 l 386 817 q 290 536 351 694 l 535 538 l 533 726 l 613 725 l 614 538 l 889 539 l 892 456 m 829 354 q 964 94 893 253 l 889 65 q 758 315 828 210 l 829 354 m 186 97 q 308 347 256 210 l 382 315 q 322 175 351 236 q 256 57 293 114 l 186 97 z "},"丝":{"ha":1194,"x_min":111,"x_max":1083,"o":"m 600 297 l 203 288 l 333 550 l 111 644 l 294 1008 l 364 972 l 218 685 l 368 621 l 463 811 l 535 774 l 332 371 l 597 378 l 600 297 m 1076 301 l 674 293 l 806 550 l 594 649 l 778 1006 l 847 968 l 701 686 l 842 621 l 940 811 l 1011 774 l 804 376 l 1074 383 l 1076 301 m 174 67 l 174 147 l 1083 156 l 1083 75 l 174 67 z "},"丞":{"ha":1201,"x_min":111,"x_max":1090,"o":"m 715 779 q 799 856 761 814 q 854 939 838 899 l 282 944 l 282 1025 l 950 1015 q 917 890 946 946 q 852 796 888 833 q 767 715 817 758 l 715 779 m 833 432 q 1090 263 965 322 l 1058 194 q 842 328 949 249 q 654 499 735 407 q 633 164 651 313 l 556 171 q 576 514 576 346 q 560 822 576 668 l 636 825 q 651 617 647 713 q 772 486 700 551 q 887 584 829 531 q 988 688 944 638 l 1044 632 q 833 432 961 535 m 486 638 q 392 394 482 493 q 147 204 301 294 l 111 271 q 306 413 219 335 q 401 579 393 492 l 132 588 l 132 665 l 486 656 l 486 638 m 249 3 l 250 82 l 993 74 l 994 -1 l 249 3 z "},"丢":{"ha":1092,"x_min":111,"x_max":981,"o":"m 396 406 l 321 147 l 797 163 q 736 293 767 236 l 810 325 q 938 8 888 175 l 863 -21 q 828 85 844 40 l 217 69 l 313 406 l 111 407 l 113 493 l 497 489 l 500 658 l 179 664 l 181 747 l 500 742 l 503 913 q 164 889 332 896 l 160 972 q 882 1053 561 988 l 901 969 q 585 922 750 940 l 583 742 l 899 736 l 899 653 l 582 658 l 581 489 l 981 485 l 981 401 l 396 406 z "},"两":{"ha":1143,"x_min":111,"x_max":1032,"o":"m 1019 710 l 1032 67 l 953 67 l 946 629 l 792 631 q 772 518 786 578 q 939 351 867 442 l 875 300 q 746 435 804 383 q 618 225 704 332 l 557 275 q 662 441 626 357 q 711 632 697 525 l 460 636 q 436 524 451 581 q 581 386 522 457 l 519 332 q 407 444 469 390 q 272 243 363 346 l 210 293 q 322 450 282 369 q 379 636 361 531 l 200 639 l 190 64 l 111 64 l 126 724 l 390 719 q 397 892 397 806 l 165 892 l 165 972 l 988 969 l 988 890 l 806 890 q 799 713 803 769 l 1019 710 m 721 714 q 726 890 726 822 l 476 892 q 469 718 474 774 l 721 714 z "},"严":{"ha":1190,"x_min":111,"x_max":1079,"o":"m 1076 635 l 1079 554 l 257 565 q 189 -15 254 296 l 111 -3 q 165 319 150 168 q 182 646 181 471 l 469 642 l 474 976 l 242 979 l 239 1060 l 1007 1050 l 1008 969 l 774 972 l 778 639 l 1076 635 m 697 974 l 551 975 l 549 642 l 699 639 l 697 974 m 322 913 q 404 700 379 794 l 331 678 q 251 881 300 785 l 322 913 m 846 699 q 919 906 892 801 l 992 882 q 915 671 964 771 l 846 699 z "},"丧":{"ha":1158,"x_min":111,"x_max":1047,"o":"m 1028 482 l 1033 401 l 376 407 l 375 8 l 292 13 l 296 407 l 111 408 l 111 488 l 538 485 l 533 856 l 160 858 l 161 938 l 533 933 l 532 1065 l 613 1065 l 614 933 l 985 929 l 986 851 l 614 854 l 618 485 l 1028 482 m 286 814 q 403 546 335 722 l 331 522 q 215 785 260 699 l 286 814 m 763 551 q 860 810 817 651 l 938 788 q 832 517 890 618 l 763 551 m 847 143 q 1047 56 932 94 l 1018 -19 q 736 117 853 33 q 524 349 619 201 l 590 394 q 779 189 665 271 q 953 365 864 258 l 1008 314 q 847 143 939 222 z "},"个":{"ha":1186,"x_min":111,"x_max":1075,"o":"m 1028 536 q 778 731 899 625 q 593 918 657 838 q 410 735 536 843 q 160 543 285 626 l 111 608 q 381 820 264 715 q 593 1038 497 925 q 808 814 692 921 q 1075 603 925 707 l 1028 536 m 557 685 l 640 686 l 649 -15 l 565 -14 l 557 685 z "},"丫":{"ha":1082,"x_min":111,"x_max":971,"o":"m 639 686 q 901 1024 799 846 l 971 978 q 856 803 925 894 q 700 626 786 713 l 639 686 m 411 647 q 111 949 229 847 l 169 1008 q 472 703 324 874 l 411 647 m 583 15 l 499 15 l 501 560 l 582 556 l 583 15 z "},"中":{"ha":1158,"x_min":111,"x_max":1047,"o":"m 1036 833 l 1047 325 l 617 326 l 617 -12 l 533 -12 l 533 326 l 111 328 l 121 849 l 532 842 l 532 1064 l 615 1063 l 615 840 l 1036 833 m 201 763 l 197 411 l 533 410 l 532 757 l 201 763 m 964 407 l 958 750 l 615 756 l 617 408 l 964 407 z "},"丰":{"ha":1076,"x_min":111,"x_max":965,"o":"m 961 346 l 965 265 l 572 269 l 572 32 l 492 33 l 492 271 l 111 275 l 111 354 l 492 350 l 492 563 l 186 568 l 186 647 l 492 642 l 492 840 l 161 844 l 163 924 l 492 919 l 492 1085 l 572 1083 l 572 918 l 907 914 l 907 835 l 572 839 l 572 642 l 875 636 l 878 557 l 572 563 l 572 350 l 961 346 z "},"串":{"ha":1174,"x_min":111,"x_max":1063,"o":"m 1054 467 l 1063 96 l 631 100 l 632 -54 l 544 -53 l 543 100 l 111 104 l 118 483 l 539 476 l 538 617 l 171 621 l 175 996 l 535 988 l 533 1139 l 621 1135 l 622 985 l 979 976 l 989 611 l 626 615 l 628 474 l 1054 467 m 535 900 l 258 906 l 254 706 l 538 700 l 535 900 m 626 699 l 901 693 l 896 892 l 622 897 l 626 699 m 200 390 l 196 190 l 542 188 l 540 385 l 200 390 m 976 183 l 969 376 l 629 382 l 631 186 l 976 183 z "},"临":{"ha":1286,"x_min":111,"x_max":1175,"o":"m 729 819 q 663 564 710 701 l 586 589 q 645 810 624 700 q 676 1056 667 919 l 757 1049 q 742 899 749 949 l 1161 894 l 1163 814 l 729 819 m 388 58 l 385 989 l 465 988 l 467 58 l 388 58 m 190 211 l 111 213 l 115 868 l 194 868 l 190 211 m 1024 524 q 814 701 908 639 l 861 761 q 1079 581 940 711 l 1024 524 m 603 468 l 1168 458 l 1175 10 l 597 14 l 603 468 m 850 383 l 678 386 l 674 96 l 847 93 l 850 383 m 929 382 l 926 93 l 1094 90 l 1092 379 l 929 382 z "},"丸":{"ha":1272,"x_min":119,"x_max":1161,"o":"m 1161 29 q 1076 25 1122 25 q 892 99 951 25 q 817 278 832 172 q 800 554 801 383 l 800 692 l 492 696 q 411 369 467 539 q 565 249 489 311 l 610 214 l 556 142 q 379 281 488 200 q 257 24 331 153 l 179 68 q 304 336 249 189 q 122 465 207 407 l 171 540 q 335 426 257 485 q 401 697 376 560 l 119 701 l 119 790 l 415 786 q 440 1038 433 911 l 528 1031 q 506 785 521 900 l 885 781 q 888 568 888 636 q 899 326 889 417 q 949 175 908 236 q 1075 114 989 114 q 1151 118 1131 114 l 1161 29 z "},"丹":{"ha":1293,"x_min":111,"x_max":1182,"o":"m 1182 394 l 1014 396 l 1018 42 l 938 43 l 933 397 l 347 404 q 300 46 328 194 l 219 60 q 264 406 246 214 l 111 407 l 111 493 l 271 492 q 289 1038 286 718 l 1006 1026 l 1013 482 l 1181 479 l 1182 394 m 933 482 l 928 943 l 367 951 q 353 490 367 682 l 933 482 m 526 863 q 826 625 669 769 l 772 560 q 479 794 651 674 l 526 863 z "},"为":{"ha":1057,"x_min":111,"x_max":946,"o":"m 863 28 l 863 199 q 854 663 863 488 l 500 669 q 258 42 429 319 l 183 86 q 415 671 342 340 l 111 678 l 113 764 l 275 761 q 174 935 238 850 l 243 982 q 309 877 282 926 q 367 758 336 828 l 432 757 q 464 1017 454 875 l 547 1010 q 517 756 536 875 l 932 747 q 946 28 946 468 l 863 28 m 607 565 q 754 313 689 456 l 678 275 q 539 521 633 383 l 607 565 z "},"主":{"ha":1125,"x_min":111,"x_max":1014,"o":"m 1013 125 l 1014 42 l 113 51 l 111 135 l 528 131 l 531 433 l 179 439 l 181 522 l 532 517 l 535 794 l 142 800 l 143 882 l 524 876 q 456 1039 497 963 l 528 1075 q 610 875 576 992 l 974 869 l 974 788 l 615 793 l 613 515 l 940 511 l 940 426 l 611 432 l 608 129 l 1013 125 z "},"丽":{"ha":1193,"x_min":111,"x_max":1082,"o":"m 181 996 l 1003 993 l 1003 914 l 181 917 l 181 996 m 122 774 l 543 771 l 543 76 l 463 78 l 464 689 l 200 690 l 194 74 l 111 75 l 122 774 m 650 75 l 649 768 l 1069 765 l 1082 74 l 999 75 l 992 682 l 728 686 l 732 74 l 650 75 m 321 539 q 415 313 382 422 l 343 285 q 250 507 300 407 l 321 539 m 847 538 q 944 311 915 408 l 872 285 q 778 504 833 393 l 847 538 z "},"举":{"ha":1163,"x_min":115,"x_max":1051,"o":"m 503 850 q 424 1035 472 943 l 494 1068 q 539 972 522 1011 q 572 878 556 933 l 503 850 m 836 761 q 1051 496 892 622 l 1003 438 q 847 592 908 513 q 749 763 786 671 l 411 768 q 320 601 386 690 q 171 440 254 511 l 115 496 q 325 769 275 633 l 115 774 l 117 850 l 731 840 q 799 951 775 907 q 853 1067 822 996 l 925 1035 q 878 932 897 969 q 822 839 858 894 l 1031 835 l 1031 758 l 836 761 m 294 856 q 213 1007 253 947 l 279 1043 q 311 990 286 1032 q 363 890 336 949 l 294 856 m 624 272 l 969 269 l 972 194 l 625 196 l 626 -11 l 547 -10 l 546 197 l 206 199 l 206 276 l 546 274 l 546 458 l 285 463 l 289 540 l 544 536 l 544 688 l 621 688 l 622 536 l 879 532 l 881 454 l 622 458 l 624 272 z "},"乃":{"ha":1225,"x_min":111,"x_max":1114,"o":"m 811 601 l 1114 590 q 1063 50 1093 274 l 981 60 q 1025 508 1014 314 l 719 518 l 749 904 l 417 910 q 344 464 393 683 q 218 53 294 244 l 135 83 q 332 911 275 422 l 111 914 l 114 1003 l 840 992 l 811 601 z "},"久":{"ha":1113,"x_min":111,"x_max":1001,"o":"m 610 419 q 1001 96 803 218 l 954 15 q 551 346 725 164 q 157 35 406 178 l 111 114 q 484 410 339 246 q 710 811 629 574 l 361 910 q 193 521 306 736 l 113 564 q 308 1022 228 779 l 825 874 q 610 419 742 599 z "},"么":{"ha":1115,"x_min":111,"x_max":1004,"o":"m 597 965 q 169 446 413 664 l 111 506 q 326 730 225 607 q 528 1008 426 853 l 597 965 m 924 35 q 886 153 907 94 l 242 129 l 646 775 l 717 731 l 394 218 l 857 238 q 769 454 831 313 l 847 485 q 1004 58 931 306 l 924 35 z "},"义":{"ha":1114,"x_min":111,"x_max":1003,"o":"m 533 664 q 325 940 422 831 l 389 996 q 481 887 439 940 q 583 747 522 833 l 604 717 l 533 664 m 979 78 q 524 293 706 164 q 154 78 376 169 l 121 156 q 453 347 315 236 q 111 792 249 514 l 188 829 q 338 590 257 693 q 518 406 419 486 q 700 642 624 508 q 833 956 776 776 l 915 929 q 776 602 854 743 q 589 353 697 461 q 1003 161 754 240 l 979 78 z "},"之":{"ha":1115,"x_min":111,"x_max":1004,"o":"m 1004 32 q 754 17 867 17 q 406 64 563 17 q 119 218 249 111 l 167 286 q 338 181 249 221 q 592 467 483 306 q 721 758 700 628 l 111 769 l 113 858 l 419 853 l 424 1044 l 504 1040 l 500 851 l 829 844 q 699 473 803 656 q 428 146 596 290 q 758 99 574 99 q 996 113 857 99 l 1004 32 z "},"乌":{"ha":997,"x_min":111,"x_max":885,"o":"m 882 540 q 885 392 885 429 q 876 198 885 286 q 847 -18 868 110 l 769 -6 q 797 192 789 106 q 806 382 806 279 l 804 458 l 193 463 l 193 988 l 396 986 q 426 1032 415 1017 q 490 1131 463 1092 l 556 1083 q 506 1013 525 1043 l 486 985 l 771 983 q 746 596 765 756 l 667 604 q 689 901 686 756 l 272 906 l 272 544 l 882 540 m 694 208 l 111 213 l 111 294 l 694 289 l 694 208 z "},"乍":{"ha":1150,"x_min":111,"x_max":1039,"o":"m 1039 760 l 601 765 l 603 582 l 1006 578 l 1006 496 l 603 500 l 603 340 l 1011 333 l 1011 251 l 603 256 l 604 28 l 521 31 l 521 767 l 283 769 q 190 508 242 626 l 111 543 q 261 1050 211 775 l 344 1033 q 306 856 325 932 l 1039 846 l 1039 760 z "},"乎":{"ha":1188,"x_min":111,"x_max":1076,"o":"m 1076 283 l 613 290 q 581 123 601 199 q 525 -32 560 47 l 450 4 q 529 292 508 139 l 111 297 l 111 379 l 539 374 q 550 629 550 483 q 549 742 550 704 l 547 863 q 154 843 363 846 l 153 925 q 993 1013 604 929 l 1011 933 q 631 871 849 894 q 632 701 632 810 q 621 372 632 493 l 829 368 l 1076 364 l 1076 283 m 246 776 q 348 633 297 713 q 432 483 399 554 l 361 443 q 179 729 274 615 l 246 776 m 746 464 q 831 610 790 529 q 897 771 871 692 l 974 742 q 906 576 947 661 q 817 421 865 492 l 746 464 z "},"乏":{"ha":1096,"x_min":111,"x_max":985,"o":"m 985 -46 q 842 -50 914 -50 q 438 -11 629 -50 q 111 106 246 28 l 143 179 q 411 82 267 117 q 609 324 524 196 q 728 586 694 453 l 125 597 l 124 681 l 460 675 l 456 892 q 133 874 271 875 l 129 960 q 881 1036 524 971 l 896 953 q 531 899 738 921 l 539 674 l 832 668 q 510 61 782 354 q 872 31 679 31 q 982 33 913 31 l 985 -46 z "},"乐":{"ha":1060,"x_min":111,"x_max":947,"o":"m 569 571 l 947 568 l 947 482 l 569 485 l 571 10 l 490 8 l 490 485 l 111 488 l 126 946 q 863 1029 533 972 l 879 947 q 206 869 468 882 l 194 572 l 490 571 l 490 808 l 569 808 l 569 571 m 794 372 q 885 224 851 286 q 943 88 918 163 l 871 56 q 804 203 833 144 q 729 331 775 261 l 794 372 m 129 85 q 251 367 203 214 l 325 339 q 201 47 278 176 l 129 85 z "},"乒":{"ha":1182,"x_min":111,"x_max":1071,"o":"m 1069 332 l 1071 249 l 111 254 l 113 338 l 260 336 l 271 954 q 904 1049 632 985 l 922 968 q 346 883 626 904 l 343 747 l 1025 743 l 1025 661 l 872 661 l 876 333 l 1069 332 m 796 663 l 342 664 l 335 336 l 797 333 l 796 663 m 218 39 q 325 131 276 86 q 424 233 374 175 l 482 183 q 382 73 432 119 q 268 -22 332 26 l 218 39 z "},"乓":{"ha":1182,"x_min":111,"x_max":1071,"o":"m 1069 331 l 1071 247 l 111 253 l 113 338 l 260 336 l 271 954 q 904 1047 613 982 l 922 967 q 346 882 626 903 l 343 746 l 1025 742 l 1025 660 l 872 661 l 876 332 l 1069 331 m 796 661 l 342 664 l 335 336 l 797 332 l 796 661 m 749 210 q 961 49 868 135 l 911 -11 q 703 147 794 93 l 749 210 z "},"乔":{"ha":1101,"x_min":111,"x_max":990,"o":"m 776 692 q 976 435 858 533 l 921 371 q 681 693 769 504 l 463 693 q 347 540 414 614 q 178 381 279 467 l 128 450 q 363 693 279 574 l 111 694 l 114 779 l 417 778 q 500 951 457 847 q 221 933 367 938 l 217 1019 q 556 1047 381 1025 q 867 1104 732 1068 l 885 1021 q 590 963 756 985 q 510 778 553 864 l 988 776 l 990 692 l 776 692 m 711 3 l 703 519 l 782 519 l 792 4 l 711 3 m 244 36 q 295 254 282 153 q 308 496 308 356 l 385 494 q 372 236 385 342 q 318 11 358 131 l 244 36 z "},"乖":{"ha":1168,"x_min":113,"x_max":1057,"o":"m 1022 729 l 626 732 l 626 -8 l 547 -6 l 547 733 l 147 736 l 144 817 l 547 814 l 547 938 q 222 928 390 928 l 219 1008 q 585 1022 394 1008 q 921 1060 776 1035 l 938 982 q 626 942 814 958 l 626 813 l 1022 810 l 1022 729 m 358 638 l 438 638 l 439 193 l 361 193 l 361 282 q 131 231 233 251 l 113 308 q 360 364 253 333 l 360 476 l 114 481 l 114 558 l 358 553 l 358 638 m 1057 193 q 944 186 967 186 q 805 215 850 186 q 746 299 760 243 q 732 457 732 354 q 733 532 732 503 l 735 638 l 811 636 l 807 506 q 1035 553 932 524 l 1054 475 q 807 428 922 446 q 819 328 808 361 q 860 280 831 294 q 953 265 890 265 q 1053 272 990 265 l 1057 193 z "},"乘":{"ha":1140,"x_min":114,"x_max":1029,"o":"m 614 342 q 785 188 703 253 q 967 76 868 122 l 931 4 q 614 233 749 96 l 614 -37 l 533 -36 l 533 229 q 218 4 401 94 l 181 79 q 533 339 389 185 l 535 769 l 168 772 l 165 853 l 535 850 l 535 974 q 243 964 399 964 l 240 1044 q 874 1099 589 1047 l 890 1019 q 613 981 760 993 l 613 850 l 974 847 l 974 767 l 613 769 l 614 342 m 349 293 l 347 368 q 282 351 310 360 q 202 333 240 342 q 132 317 164 324 l 114 396 q 347 450 196 408 l 346 564 l 114 568 l 114 647 l 346 642 l 344 722 l 424 721 l 426 293 l 349 293 m 799 719 l 796 594 q 1007 638 919 614 l 1026 560 q 794 515 888 529 q 807 421 796 453 q 849 376 818 389 q 942 363 879 363 q 1026 365 971 363 l 1029 286 q 932 283 992 283 q 792 310 838 283 q 732 392 746 338 q 718 546 718 446 l 719 618 q 722 721 722 685 l 799 719 z "},"乙":{"ha":976,"x_min":111,"x_max":865,"o":"m 865 104 q 581 89 738 89 q 267 140 385 89 q 150 325 150 190 q 212 502 150 418 q 363 656 274 586 q 601 825 451 725 l 665 868 l 111 867 l 113 956 l 800 953 l 804 863 l 714 804 q 464 633 558 703 q 303 484 369 564 q 236 328 236 404 q 335 204 236 232 q 569 176 435 176 q 858 193 646 176 l 865 104 z "},"九":{"ha":1278,"x_min":111,"x_max":1167,"o":"m 1167 57 q 1085 54 1136 54 q 875 147 936 54 q 810 421 814 240 q 808 571 808 469 q 807 672 807 606 l 453 678 q 293 46 399 322 l 213 78 q 365 679 314 350 l 111 683 l 113 768 l 378 764 q 401 1014 394 903 l 486 1010 q 464 763 479 882 l 893 756 l 893 474 q 906 303 893 372 q 958 188 918 233 q 1076 140 999 143 l 1111 139 q 1163 142 1126 139 l 1167 57 z "},"乞":{"ha":1142,"x_min":111,"x_max":1031,"o":"m 1008 825 l 272 832 q 189 604 244 743 l 111 638 q 250 1089 207 858 l 331 1074 q 297 918 317 1001 l 1008 908 l 1008 825 m 1031 40 q 660 6 815 6 q 432 40 526 6 q 338 181 338 74 q 402 335 338 257 q 557 478 467 413 q 769 619 647 544 l 254 621 l 256 704 l 911 697 l 913 617 l 886 601 q 560 383 699 488 q 422 196 422 278 q 474 120 422 143 q 576 94 525 97 q 711 90 626 90 q 851 99 779 90 q 1019 124 924 108 l 1031 40 z "},"也":{"ha":1181,"x_min":111,"x_max":1065,"o":"m 1065 60 q 764 50 925 50 l 706 50 q 426 107 524 50 q 293 277 329 164 q 258 585 257 390 l 258 658 l 115 651 l 111 736 l 258 743 l 258 944 l 340 943 l 339 746 l 658 760 l 658 1017 l 740 1017 l 739 763 l 1057 776 q 1008 321 1051 542 l 928 335 q 969 690 968 532 l 739 679 l 738 382 l 657 382 l 657 676 l 339 661 l 339 586 q 367 319 339 414 q 475 180 394 225 q 717 135 556 135 q 1060 144 868 135 l 1065 60 z "},"习":{"ha":1015,"x_min":111,"x_max":906,"o":"m 897 908 l 899 824 q 906 406 906 563 q 896 74 906 224 l 813 82 q 822 417 822 229 q 817 738 822 529 l 815 824 l 113 833 l 111 919 l 897 908 m 528 510 q 225 674 396 603 l 258 751 q 435 665 361 704 q 571 581 508 626 l 528 510 m 196 211 q 440 310 338 260 q 676 444 542 360 l 721 367 q 475 232 583 283 q 231 136 367 181 l 196 211 z "},"乡":{"ha":957,"x_min":111,"x_max":846,"o":"m 846 568 q 710 208 797 360 q 476 -65 622 56 l 422 -1 q 653 283 568 121 l 253 283 l 383 561 l 111 671 l 299 1063 l 374 1024 l 222 713 l 419 635 l 558 931 l 632 894 l 383 367 l 693 368 q 763 588 735 465 l 846 568 z "},"书":{"ha":1140,"x_min":111,"x_max":1029,"o":"m 872 479 l 1026 478 l 1029 96 l 947 97 l 946 394 l 574 396 l 578 6 l 496 6 l 492 396 l 111 397 l 111 482 l 492 481 l 489 742 l 208 743 l 210 828 l 488 826 l 486 1044 l 568 1042 l 569 826 l 868 825 l 872 479 m 940 828 q 733 975 846 913 l 776 1043 q 990 892 881 986 l 940 828 m 788 740 l 571 742 l 574 479 l 790 479 l 788 740 z "},"买":{"ha":1129,"x_min":111,"x_max":1018,"o":"m 853 725 q 894 825 881 783 q 915 911 908 867 l 132 926 l 132 1008 l 1014 993 q 986 840 1004 903 q 931 696 968 778 l 853 725 m 697 347 q 794 201 715 268 q 1018 68 874 135 l 983 -10 q 770 108 850 50 q 635 246 690 167 q 456 99 568 158 q 142 -11 343 39 l 118 74 q 432 190 306 118 q 588 349 558 261 l 111 353 l 113 442 l 597 436 q 603 824 603 549 l 689 824 l 689 644 q 690 435 689 490 l 1000 431 l 1001 344 l 697 347 m 499 664 q 367 711 419 694 q 247 743 315 728 l 268 814 q 391 781 338 799 q 522 735 444 764 l 499 664 m 174 643 q 303 617 242 632 q 451 575 364 601 l 432 503 q 161 569 301 544 l 174 643 z "},"乱":{"ha":1454,"x_min":111,"x_max":1343,"o":"m 451 694 l 703 690 l 703 608 l 451 613 l 453 432 l 656 428 l 661 54 l 161 58 l 165 438 l 375 433 l 374 614 l 111 618 l 113 699 l 374 694 l 372 869 q 157 856 246 857 l 151 938 q 650 1000 436 950 l 667 919 q 450 879 558 893 l 451 694 m 1343 81 q 1175 68 1247 67 q 936 128 1013 69 q 840 297 860 188 q 819 617 819 406 l 821 999 l 903 997 q 901 943 903 967 l 900 758 q 901 621 900 669 q 918 337 904 425 q 988 201 932 249 q 1175 154 1044 154 q 1294 163 1208 154 l 1336 167 l 1343 81 m 238 138 l 583 133 l 581 349 l 242 357 l 238 138 z "},"乳":{"ha":1426,"x_min":111,"x_max":1315,"o":"m 111 1003 q 657 1061 426 1019 l 668 983 q 117 924 442 939 l 111 1003 m 1315 76 q 1146 61 1228 61 q 903 124 979 61 q 810 293 828 186 q 792 611 792 400 l 793 997 l 876 996 q 875 947 876 964 q 872 700 872 808 q 874 549 872 599 q 895 306 879 383 q 967 189 911 229 q 1144 149 1022 149 q 1308 163 1218 149 l 1315 76 m 489 704 q 586 917 542 792 l 661 888 q 560 668 626 779 l 489 704 m 400 900 q 429 725 425 814 l 354 713 q 325 886 349 793 l 400 900 m 213 886 q 264 718 244 808 l 190 693 q 140 864 165 796 l 213 886 m 143 553 l 144 636 l 618 632 q 513 372 614 461 l 456 425 q 506 485 488 456 q 532 551 525 515 l 143 553 m 649 306 l 654 221 l 442 215 q 443 165 443 199 q 435 18 443 92 l 358 22 q 363 149 363 88 q 361 213 363 192 l 133 206 l 129 289 l 351 296 q 314 444 336 381 l 392 469 q 433 299 421 382 l 649 306 z "},"乾":{"ha":1360,"x_min":113,"x_max":1249,"o":"m 633 761 l 639 288 l 421 290 l 422 185 l 621 182 l 621 104 l 422 106 l 424 -18 l 346 -17 l 346 107 l 131 108 l 131 188 l 344 185 l 344 290 l 113 293 l 122 768 l 344 765 l 344 867 l 132 871 l 132 949 l 343 944 l 343 1053 l 421 1054 l 422 943 l 615 940 l 615 863 l 422 865 l 424 764 l 633 761 m 1246 783 l 815 789 q 749 611 786 689 l 672 643 q 742 837 713 732 q 788 1042 772 942 l 868 1028 q 838 869 854 940 l 1244 864 l 1246 783 m 560 563 l 558 682 l 199 686 l 196 571 l 560 563 m 1249 28 q 1094 21 1190 21 q 903 53 979 21 q 828 179 828 85 q 878 313 828 243 q 1018 474 929 382 q 1099 563 1085 543 l 765 568 l 767 647 l 1206 639 l 1208 563 q 1118 472 1200 554 q 973 306 1036 389 q 910 186 910 222 q 965 116 910 132 q 1097 100 1021 100 q 1214 106 1142 100 l 1242 107 l 1249 28 m 560 483 l 193 490 l 190 371 l 561 364 l 560 483 z "},"了":{"ha":1094,"x_min":111,"x_max":983,"o":"m 113 1008 l 983 993 q 907 785 978 879 q 715 628 836 692 l 672 701 q 805 797 749 743 q 875 914 861 851 l 111 926 l 113 1008 m 569 738 q 624 278 624 511 q 613 44 624 171 l 528 47 q 539 268 539 163 q 486 717 539 504 l 569 738 z "},"予":{"ha":1072,"x_min":111,"x_max":961,"o":"m 693 597 l 961 592 q 915 421 953 506 q 819 261 876 336 l 753 308 q 819 411 786 351 q 860 514 851 471 l 564 519 l 561 4 l 481 6 l 483 521 l 111 526 l 111 610 l 632 599 q 357 753 500 682 l 394 824 q 538 750 440 803 q 658 838 607 792 q 725 944 710 885 l 239 954 l 239 1040 l 825 1028 l 824 1017 q 763 836 817 911 q 618 701 710 761 q 718 639 672 671 l 693 597 z "},"争":{"ha":1172,"x_min":111,"x_max":1061,"o":"m 944 457 l 949 207 l 608 210 l 608 -43 l 529 -43 l 528 211 l 169 214 l 168 296 l 528 292 l 528 463 l 111 468 l 113 554 l 526 549 l 526 724 l 179 729 l 181 817 l 550 807 q 636 982 597 889 l 468 1049 q 428 958 453 1007 q 397 899 403 910 l 328 932 q 372 1019 351 969 q 426 1151 393 1068 l 738 1025 l 725 997 q 639 806 663 850 l 938 797 l 942 542 l 1060 540 l 1061 456 l 944 457 m 857 718 l 607 722 l 607 547 l 860 543 l 857 718 m 863 458 l 607 461 l 608 292 l 865 289 l 863 458 z "},"事":{"ha":1153,"x_min":111,"x_max":1042,"o":"m 946 299 l 1042 297 l 1042 218 l 947 218 l 951 35 l 619 36 l 621 -86 l 539 -86 l 538 36 l 175 38 l 175 117 l 536 114 l 535 221 l 111 224 l 111 307 l 533 303 l 532 410 l 185 415 l 186 494 l 531 490 l 529 594 l 211 596 l 217 876 l 526 871 l 525 964 l 174 967 l 176 1047 l 524 1044 l 522 1147 l 603 1147 l 604 1043 l 949 1040 l 950 960 l 606 963 l 607 869 l 908 865 l 914 592 l 611 593 l 613 489 l 942 485 l 946 299 m 293 794 l 293 671 l 529 669 l 526 790 l 293 794 m 833 667 l 831 786 l 608 789 l 610 668 l 833 667 m 865 404 l 614 408 l 615 303 l 868 300 l 865 404 m 617 219 l 618 113 l 872 111 l 869 218 l 617 219 z "},"二":{"ha":1251,"x_min":111,"x_max":1140,"o":"m 999 793 l 232 801 l 233 890 l 999 882 l 999 793 m 1140 151 l 111 156 l 113 243 l 1138 240 l 1140 151 z "},"于":{"ha":1142,"x_min":111,"x_max":1031,"o":"m 638 494 l 639 378 q 624 199 640 267 q 564 94 607 131 q 442 56 521 58 l 397 54 l 340 56 l 336 136 q 436 136 414 135 q 513 163 486 140 q 550 237 540 186 q 558 378 560 288 l 557 496 l 113 501 l 111 588 l 556 583 l 551 896 l 176 900 l 176 985 l 953 975 l 953 890 l 632 894 l 636 582 l 1029 578 l 1031 489 l 638 494 z "},"亏":{"ha":1046,"x_min":111,"x_max":935,"o":"m 203 986 l 838 981 l 839 900 l 203 906 l 203 986 m 376 593 l 368 408 l 817 399 q 809 199 815 288 q 786 22 803 110 l 710 33 q 736 318 736 199 l 286 326 l 297 594 l 111 596 l 111 676 l 933 669 l 935 589 l 376 593 z "},"云":{"ha":1142,"x_min":111,"x_max":1031,"o":"m 228 985 l 921 978 l 924 892 l 226 899 l 228 985 m 463 493 l 351 176 l 844 188 q 772 329 806 268 l 846 368 q 1007 18 944 196 l 928 -15 q 883 103 911 36 l 240 92 l 376 493 l 111 496 l 111 582 l 1031 572 l 1031 488 l 463 493 z "},"互":{"ha":1135,"x_min":113,"x_max":1024,"o":"m 1024 131 l 1022 47 l 113 56 l 114 139 l 742 133 l 753 306 l 249 319 l 311 918 l 113 919 l 114 1004 l 947 996 l 950 913 l 392 917 l 374 750 l 853 733 q 819 132 847 531 l 1024 131 m 336 397 l 760 388 q 771 653 771 568 l 364 665 l 336 397 z "},"五":{"ha":1238,"x_min":111,"x_max":1126,"o":"m 946 163 l 1122 161 l 1126 71 l 111 81 l 113 168 l 343 167 l 381 525 l 176 528 l 176 619 l 390 617 l 418 888 l 154 890 l 154 979 l 1021 972 l 1021 883 l 508 888 l 479 615 l 933 608 l 946 163 m 849 517 l 469 524 l 432 165 l 856 163 l 849 517 z "},"井":{"ha":1243,"x_min":111,"x_max":1132,"o":"m 1132 313 l 876 317 l 882 -29 l 793 -29 l 788 318 l 419 324 q 349 -26 392 129 l 263 -7 q 331 325 303 146 l 111 328 l 113 418 l 343 414 q 368 731 363 569 l 129 735 l 129 824 l 371 819 l 371 849 q 372 919 372 871 l 371 1060 l 458 1058 q 460 939 460 1011 q 458 818 460 861 l 781 813 l 776 1057 l 865 1057 l 869 811 l 1111 807 l 1111 719 l 871 724 l 875 406 l 1131 401 l 1132 313 m 786 407 l 782 725 l 456 729 q 431 413 447 553 l 786 407 z "},"亚":{"ha":1211,"x_min":111,"x_max":1100,"o":"m 772 821 l 774 142 l 1100 140 l 1100 58 l 113 63 l 111 143 l 419 142 l 422 824 l 158 826 l 158 910 l 1050 900 l 1050 818 l 772 821 m 694 821 l 500 824 l 497 142 l 697 142 l 694 821 m 229 671 q 360 285 310 496 l 278 264 q 151 639 221 488 l 229 671 m 836 286 q 969 663 914 450 l 1051 639 q 914 253 1001 436 l 836 286 z "},"些":{"ha":1219,"x_min":111,"x_max":1108,"o":"m 414 607 l 610 611 l 614 531 l 114 518 l 111 601 l 172 603 l 175 913 l 250 911 l 251 604 l 332 606 l 339 1058 l 419 1056 l 417 861 l 593 858 l 593 778 l 417 781 l 414 607 m 958 506 q 767 558 826 506 q 695 684 707 610 q 682 901 683 758 l 681 972 q 679 1046 681 1026 l 761 1044 l 761 943 q 763 850 761 882 q 1076 896 894 863 l 1094 814 q 767 767 896 779 q 788 665 771 703 q 845 610 804 628 q 963 592 886 592 q 1101 599 1018 592 l 1108 515 q 958 506 999 506 m 944 304 l 315 313 l 315 400 l 943 389 l 944 304 m 1050 -17 l 218 -10 l 217 78 l 1050 68 l 1050 -17 z "},"亟":{"ha":1210,"x_min":111,"x_max":1099,"o":"m 708 815 q 801 874 767 844 q 851 942 836 903 l 261 947 l 261 1026 l 949 1018 q 889 847 944 907 q 746 746 833 788 l 708 815 m 571 139 q 581 367 581 272 q 522 833 581 633 l 596 853 q 658 349 658 642 q 650 133 658 240 l 571 139 m 114 711 l 464 704 l 468 214 l 111 217 l 114 711 m 963 353 q 1099 229 1038 272 l 1053 169 q 914 297 983 226 q 781 183 861 243 l 735 244 q 863 353 813 303 q 746 500 804 417 l 806 540 q 913 408 868 457 q 1006 606 994 510 l 735 611 l 736 690 l 1094 681 q 963 353 1086 504 m 186 631 l 183 294 l 392 293 l 389 629 l 186 631 m 207 -6 l 210 72 l 994 64 l 997 -11 l 207 -6 z "},"亡":{"ha":1219,"x_min":111,"x_max":1108,"o":"m 704 143 q 981 147 856 143 l 1083 149 l 1086 63 q 710 56 988 56 q 419 106 521 56 q 278 263 318 157 q 239 557 239 369 q 240 743 239 690 l 111 744 l 111 829 l 582 825 l 583 1028 l 664 1025 l 661 824 l 1107 819 l 1108 733 l 326 742 l 325 690 q 322 535 322 585 q 350 315 325 396 q 456 189 375 235 q 704 143 538 143 z "},"亢":{"ha":1101,"x_min":111,"x_max":990,"o":"m 553 910 l 911 908 l 911 829 l 111 833 l 111 913 l 469 911 l 472 1068 l 554 1064 l 553 910 m 990 60 q 922 57 953 56 q 774 108 822 58 q 710 240 725 158 q 696 454 696 322 l 696 611 l 328 615 q 303 302 325 436 q 235 39 282 168 l 160 67 q 231 351 210 207 q 251 694 251 494 l 776 690 l 776 454 q 783 284 776 344 q 826 181 790 224 q 939 138 861 138 q 981 140 950 138 l 990 60 z "},"交":{"ha":1151,"x_min":114,"x_max":1040,"o":"m 613 972 l 1010 969 l 1013 886 l 114 894 l 117 976 l 532 974 l 533 1119 l 614 1117 l 613 972 m 814 818 q 1040 525 938 685 l 971 479 q 750 765 865 639 l 814 818 m 411 775 q 306 614 365 694 q 182 467 246 533 l 121 525 q 238 662 181 585 q 342 817 296 739 l 411 775 m 828 521 q 646 257 744 365 q 994 49 788 135 l 967 -29 q 583 196 735 63 q 244 -26 439 61 l 208 51 q 519 256 374 125 q 318 524 415 364 l 388 569 q 582 315 474 425 q 754 563 686 424 l 828 521 z "},"亥":{"ha":1097,"x_min":111,"x_max":982,"o":"m 778 718 q 181 267 565 424 l 146 349 q 389 476 274 401 l 197 663 l 410 890 l 111 893 l 111 978 l 494 974 l 496 1110 l 576 1107 l 575 974 l 975 969 l 975 886 l 521 890 l 314 667 l 460 525 q 707 772 610 635 l 778 718 m 733 310 q 982 78 860 206 l 922 14 q 665 253 824 118 q 225 14 485 111 l 190 96 q 566 294 404 182 q 857 575 728 407 l 925 519 q 733 310 833 397 z "},"亦":{"ha":1197,"x_min":114,"x_max":1082,"o":"m 1075 792 l 800 794 l 814 25 l 731 25 l 719 794 l 488 797 q 464 392 483 582 q 400 28 444 201 l 317 47 q 406 797 399 367 l 129 800 l 131 881 l 571 876 l 569 1072 l 650 1068 l 649 876 l 1074 872 l 1075 792 m 963 618 q 1033 422 1001 526 q 1082 219 1064 318 l 999 204 q 886 589 975 356 l 963 618 m 114 213 q 213 606 165 367 l 290 586 q 194 188 260 382 l 114 213 z "},"产":{"ha":1143,"x_min":111,"x_max":1032,"o":"m 1031 633 l 1032 553 l 267 565 q 189 -50 261 271 l 111 -35 q 190 647 188 289 l 392 644 q 383 772 390 700 q 365 901 375 844 l 250 903 l 250 983 l 578 979 l 579 1101 l 660 1097 l 657 978 l 982 974 l 985 893 l 858 894 q 829 636 850 743 l 1031 633 m 443 900 q 471 643 463 772 l 753 638 q 778 896 772 746 l 443 900 z "},"亨":{"ha":1074,"x_min":111,"x_max":961,"o":"m 574 1190 l 572 1054 l 961 1047 l 961 963 l 111 976 l 113 1061 l 490 1056 l 494 1193 l 574 1190 m 210 536 l 218 868 l 876 856 l 883 529 l 210 536 m 303 782 l 300 624 l 796 615 l 790 771 l 303 782 m 122 351 l 122 436 l 947 429 q 721 118 935 224 l 675 189 q 782 261 740 225 q 843 344 824 297 l 122 351 m 571 226 q 603 -110 603 74 l 603 -161 l 518 -161 q 519 -76 519 -132 q 490 207 519 83 l 571 226 z "},"亩":{"ha":1185,"x_min":111,"x_max":1074,"o":"m 628 933 l 1071 929 l 1074 847 l 111 853 l 115 939 l 547 935 l 550 1072 l 631 1068 l 628 933 m 171 24 l 178 713 l 1013 703 l 1024 19 l 171 24 m 554 410 l 556 622 l 260 625 l 257 414 l 554 410 m 638 410 l 933 406 l 931 618 l 638 621 l 638 410 m 554 324 l 257 328 l 254 108 l 553 106 l 554 324 m 638 324 l 638 106 l 938 103 l 935 319 l 638 324 z "},"享":{"ha":1056,"x_min":111,"x_max":944,"o":"m 565 1061 l 943 1057 l 944 971 l 111 982 l 111 1067 l 485 1063 l 488 1188 l 568 1182 l 565 1061 m 186 554 l 196 886 l 860 872 l 867 546 l 186 554 m 279 799 l 278 642 l 779 633 l 775 788 l 279 799 m 657 229 q 781 358 749 285 l 169 368 l 169 454 l 883 442 q 831 287 878 358 q 700 163 783 215 l 657 229 m 553 272 q 593 108 582 196 l 943 104 l 942 19 l 600 24 q 601 -25 601 7 q 594 -161 601 -82 l 511 -154 q 519 25 522 -46 l 113 29 l 114 115 l 511 110 q 476 247 500 178 l 553 272 z "},"京":{"ha":1056,"x_min":111,"x_max":944,"o":"m 569 974 l 943 971 l 944 886 l 111 894 l 113 976 l 489 974 l 492 1126 l 572 1122 l 569 974 m 857 764 l 871 340 l 565 343 l 569 -37 l 493 -36 l 489 343 l 204 346 l 210 774 l 857 764 m 781 683 l 285 690 l 283 426 l 790 421 l 781 683 m 178 53 q 292 257 242 150 l 363 224 q 310 113 342 171 q 246 10 278 56 l 178 53 m 778 251 q 892 43 838 165 l 818 10 q 711 213 781 101 l 778 251 z "},"亭":{"ha":1138,"x_min":111,"x_max":1026,"o":"m 1003 956 l 135 965 l 133 1042 l 521 1038 l 522 1167 l 603 1164 l 601 1038 l 1001 1033 l 1003 956 m 907 575 l 228 579 l 236 868 l 896 857 l 907 575 m 818 775 l 314 782 l 311 661 l 822 654 l 818 775 m 115 479 l 1021 465 l 1026 269 l 951 269 l 947 388 l 189 397 l 189 269 l 111 271 l 115 479 m 617 206 l 251 210 l 251 289 l 885 281 l 883 203 l 693 206 l 696 -74 l 621 -72 l 617 206 z "},"亮":{"ha":1076,"x_min":114,"x_max":965,"o":"m 576 1032 l 939 1029 l 939 949 l 128 954 l 129 1035 l 500 1032 l 500 1143 l 578 1140 l 576 1032 m 856 590 l 233 593 l 236 879 l 846 871 l 856 590 m 771 792 l 315 799 l 314 672 l 775 672 l 771 792 m 965 311 l 889 311 l 886 433 l 193 440 l 189 313 l 114 313 l 121 518 l 957 510 l 965 311 m 857 39 q 922 44 881 39 l 929 -40 q 856 -46 879 -46 q 696 29 736 -44 q 656 239 656 103 l 656 278 l 417 281 q 381 98 411 175 q 290 -39 350 21 l 226 15 q 311 155 286 78 q 338 360 336 232 l 738 353 l 738 256 q 742 142 738 181 q 772 71 746 103 q 857 39 799 39 z "},"亲":{"ha":1092,"x_min":111,"x_max":981,"o":"m 981 542 l 588 547 l 589 388 l 956 383 l 958 303 l 590 306 l 594 -60 l 514 -61 l 511 307 l 140 310 l 140 392 l 510 388 l 508 549 l 111 554 l 113 633 l 294 631 q 284 770 292 700 q 267 907 276 840 l 142 908 l 143 989 l 511 986 l 511 1129 l 592 1128 l 592 986 l 950 983 l 950 901 l 818 903 q 789 625 814 775 l 981 622 l 981 542 m 349 907 q 376 631 365 793 l 706 626 q 736 903 732 775 l 349 907 m 796 250 q 925 35 874 140 l 854 -3 q 732 207 794 115 l 796 250 m 174 38 q 285 246 238 129 l 357 215 q 240 -6 310 92 l 174 38 z "},"亳":{"ha":1142,"x_min":111,"x_max":1031,"o":"m 1006 999 l 138 1008 l 136 1088 l 522 1083 l 525 1197 l 604 1194 l 603 1082 l 1001 1078 l 1006 999 m 906 628 l 233 633 l 242 921 l 894 911 l 906 628 m 818 833 l 317 840 l 314 713 l 824 706 l 818 833 m 950 463 l 192 471 l 189 338 l 111 340 l 118 551 l 1025 540 l 1031 340 l 956 340 l 950 463 m 801 -33 q 1000 -19 889 -33 l 1007 -99 q 829 -112 919 -112 q 628 -97 700 -112 q 519 -39 556 -81 q 478 82 483 3 l 179 67 l 175 147 l 476 163 l 476 271 q 267 260 363 261 l 260 343 q 552 364 419 347 q 821 417 685 381 l 843 338 q 554 279 704 299 l 554 165 l 997 188 l 1003 107 l 556 85 q 583 15 560 40 q 659 -21 607 -10 q 801 -33 711 -32 z "},"亵":{"ha":1276,"x_min":111,"x_max":1165,"o":"m 646 1072 l 1104 1068 l 1104 990 l 124 1000 l 124 1078 l 569 1074 l 569 1186 l 647 1183 l 646 1072 m 299 449 q 111 453 210 449 l 113 531 q 300 526 219 526 l 303 726 l 115 732 l 119 810 l 304 804 l 306 951 l 385 949 l 383 801 l 547 796 l 546 718 l 382 724 l 379 528 q 547 535 485 531 l 553 458 q 378 450 463 451 l 376 292 l 297 293 l 299 449 m 1165 297 q 1108 293 1142 293 q 1002 356 1031 296 q 974 514 974 417 l 972 718 l 842 721 q 808 519 832 619 q 932 429 875 476 l 888 368 l 788 442 q 726 279 761 360 l 653 311 q 718 488 690 397 q 589 565 661 526 l 628 633 q 738 567 675 607 q 763 724 754 643 l 597 728 l 597 804 l 768 800 q 774 901 771 832 l 776 947 l 856 940 l 853 897 q 847 799 850 831 l 1053 793 l 1051 588 l 1051 540 q 1066 415 1054 451 q 1111 376 1078 378 q 1158 379 1140 376 l 1165 297 m 603 271 q 419 151 521 206 l 424 -112 l 347 -112 l 343 114 q 146 44 257 75 l 125 115 q 560 332 375 190 l 603 271 m 1058 208 q 893 61 999 139 q 1107 -35 992 -6 l 1088 -110 q 825 11 944 -74 q 621 224 706 96 l 682 269 q 829 108 743 179 q 1004 263 936 188 l 1058 208 z "},"人":{"ha":1239,"x_min":111,"x_max":1128,"o":"m 665 997 q 667 806 665 885 q 674 675 668 726 q 695 574 679 621 q 740 476 711 528 q 903 284 799 372 q 1128 142 1008 196 l 1093 63 q 805 252 936 126 q 624 519 674 378 q 522 335 596 425 q 347 174 447 244 q 143 64 247 103 l 111 147 q 342 283 232 193 q 507 478 451 374 q 568 678 557 569 q 575 810 574 736 q 576 903 576 885 l 576 997 l 665 997 z "},"亿":{"ha":1435,"x_min":111,"x_max":1324,"o":"m 111 614 q 358 783 240 683 q 556 996 475 882 l 619 947 q 436 740 550 842 l 446 64 l 367 63 l 358 675 q 149 542 256 594 l 111 614 m 1324 92 q 1081 76 1183 76 q 796 127 900 76 q 692 306 692 178 q 749 488 692 401 q 898 653 806 575 q 1133 828 990 731 l 671 828 l 671 913 l 1276 911 l 1281 822 q 1022 642 1126 721 q 849 476 918 563 q 779 308 779 390 q 865 195 779 226 q 1075 164 951 164 q 1249 174 1144 164 l 1315 179 l 1324 92 z "},"什":{"ha":1481,"x_min":111,"x_max":1369,"o":"m 1368 638 l 1369 553 l 1043 556 l 1044 58 l 964 58 l 961 556 l 622 558 l 622 643 l 961 640 l 960 1000 l 1043 1000 l 1043 640 l 1368 638 m 622 950 q 444 754 550 849 l 454 67 l 376 65 l 371 692 q 149 549 265 607 l 111 622 q 359 788 240 689 q 557 999 478 888 l 622 950 z "},"仁":{"ha":1479,"x_min":111,"x_max":1368,"o":"m 111 615 q 359 782 240 682 q 556 994 478 882 l 621 946 q 438 742 553 843 l 447 65 l 369 65 l 363 679 q 149 542 257 597 l 111 615 m 715 889 l 1282 883 l 1283 801 l 713 807 l 715 889 m 651 156 l 650 238 l 1368 232 l 1368 150 l 651 156 z "},"仃":{"ha":1449,"x_min":111,"x_max":1338,"o":"m 111 619 q 358 788 240 688 q 556 1003 475 888 l 619 953 q 435 744 549 847 l 446 69 l 367 68 l 360 682 q 149 547 261 604 l 111 619 m 674 910 l 1338 903 l 1338 821 l 1136 824 l 1140 44 l 1057 44 l 1056 824 l 672 828 l 674 910 z "},"仄":{"ha":1179,"x_min":111,"x_max":1068,"o":"m 250 881 q 236 447 250 625 q 188 85 222 269 l 111 100 q 162 481 150 296 q 174 964 174 667 l 1014 956 l 1015 872 l 250 881 m 1031 74 q 882 165 958 107 q 746 298 806 224 q 664 450 686 372 q 527 217 625 319 q 317 69 429 115 l 281 146 q 531 351 439 213 q 622 664 622 490 l 622 811 l 704 810 l 704 663 q 797 364 704 488 q 1068 147 890 240 l 1031 74 z "},"仅":{"ha":1403,"x_min":111,"x_max":1292,"o":"m 111 610 q 361 777 243 678 q 558 990 479 876 l 624 940 q 435 732 547 829 l 446 61 l 368 61 l 360 669 q 149 535 261 592 l 111 610 m 1250 31 q 972 249 1074 149 q 703 31 854 131 l 658 100 q 913 308 800 190 q 740 584 800 435 q 671 926 679 733 l 1268 915 q 1028 310 1264 583 q 1292 103 1135 203 l 1250 31 m 761 842 q 969 371 779 589 q 1119 600 1063 481 q 1181 836 1175 719 l 761 842 z "},"仆":{"ha":1396,"x_min":111,"x_max":1285,"o":"m 111 618 q 359 787 243 688 q 556 1000 475 886 l 619 950 q 438 746 553 850 l 449 68 l 369 67 l 361 682 q 147 544 256 600 l 111 618 m 1260 392 q 886 510 1049 472 l 885 47 l 803 47 l 808 999 l 889 1000 l 888 604 q 1285 476 1142 538 l 1260 392 z "},"仇":{"ha":1535,"x_min":111,"x_max":1424,"o":"m 1424 71 q 1364 67 1392 67 q 1231 106 1281 67 q 1176 193 1194 135 q 1150 356 1157 251 q 1143 643 1143 460 l 899 647 q 736 63 842 279 l 664 99 q 817 649 764 313 l 614 651 l 615 735 l 829 732 q 860 992 846 846 l 939 985 q 911 731 929 863 l 1221 725 l 1221 667 q 1231 332 1221 461 q 1278 172 1240 203 q 1369 147 1311 147 q 1415 150 1382 147 l 1424 71 m 618 939 q 433 732 550 835 l 444 53 l 365 51 l 358 669 q 149 535 256 588 l 111 607 q 356 774 240 675 q 554 988 472 874 l 618 939 z "},"仉":{"ha":1472,"x_min":111,"x_max":1361,"o":"m 111 619 q 360 785 242 686 q 557 1000 478 885 l 622 951 q 435 743 554 849 l 446 68 l 367 67 l 358 679 q 147 546 256 599 l 111 619 m 1361 58 q 1313 57 1343 57 q 1168 106 1213 57 q 1113 240 1124 154 q 1103 500 1103 325 l 1103 585 l 1103 843 l 782 850 q 765 416 782 596 q 706 50 749 236 l 628 68 q 687 421 669 250 q 704 801 704 592 q 703 932 704 886 l 1181 921 l 1181 589 l 1181 488 q 1186 290 1181 354 q 1215 186 1192 225 q 1290 140 1238 147 q 1315 139 1299 139 q 1354 143 1338 139 l 1361 58 z "},"今":{"ha":1221,"x_min":111,"x_max":1110,"o":"m 597 1078 q 845 825 707 954 q 1110 600 983 696 l 1058 533 q 813 745 947 624 q 597 957 678 867 q 397 743 531 872 q 165 538 263 614 l 111 601 q 597 1078 338 778 m 646 740 l 643 454 l 951 449 q 859 174 929 292 q 675 -40 789 56 l 621 21 q 767 179 701 89 q 851 367 832 269 l 253 376 l 256 461 l 564 456 l 565 743 l 646 740 z "},"介":{"ha":1269,"x_min":111,"x_max":1158,"o":"m 1113 561 q 855 769 996 644 q 639 989 714 893 q 428 778 571 900 q 161 567 286 657 l 111 639 q 391 858 246 728 q 642 1107 536 989 q 1158 628 910 799 l 1113 561 m 275 26 q 353 658 346 333 l 436 653 q 354 4 428 303 l 275 26 m 943 1 l 858 0 l 840 650 l 924 650 l 943 1 z "},"仍":{"ha":1450,"x_min":111,"x_max":1339,"o":"m 111 633 q 353 799 239 700 q 549 1013 468 897 l 613 964 q 433 760 542 857 l 443 82 l 365 82 l 358 694 q 150 560 256 613 l 111 633 m 1106 560 l 1339 550 q 1318 288 1329 396 q 1285 49 1307 179 l 1206 60 q 1254 475 1240 253 l 1015 483 l 1053 829 l 850 833 q 798 433 832 599 q 693 81 764 267 l 617 113 q 717 441 686 285 q 769 836 747 597 l 615 839 l 617 919 l 1142 908 l 1106 560 z "},"从":{"ha":1326,"x_min":111,"x_max":1215,"o":"m 893 507 q 1047 359 975 436 q 1215 167 1119 282 l 1147 114 q 1010 276 1078 204 q 858 425 942 349 q 599 81 772 249 l 543 142 q 667 279 608 204 q 438 500 539 415 q 333 294 399 394 q 165 92 268 194 l 111 151 q 303 413 235 281 q 397 677 371 544 q 433 981 424 810 l 521 972 q 500 758 513 851 q 464 583 488 665 q 717 350 590 478 q 842 628 804 485 q 896 960 879 771 l 981 951 q 947 706 967 810 q 893 507 928 601 z "},"仑":{"ha":1188,"x_min":111,"x_max":1076,"o":"m 581 1074 q 823 835 692 953 q 1076 653 954 718 l 1033 585 q 797 751 918 647 q 585 958 676 854 q 385 753 514 868 q 156 579 256 639 l 111 644 q 369 851 249 738 q 581 1074 490 965 m 676 101 q 954 122 815 101 l 963 39 q 707 17 822 17 q 474 49 553 17 q 365 149 396 81 q 329 347 335 218 q 324 579 324 438 q 322 638 322 604 l 403 640 q 406 432 403 525 q 879 581 675 488 l 915 506 q 410 347 701 410 q 435 206 415 256 q 510 128 454 156 q 676 101 565 101 z "},"仓":{"ha":1179,"x_min":111,"x_max":1068,"o":"m 1021 549 q 785 746 911 625 q 579 969 660 867 q 392 757 519 881 q 160 560 264 633 l 111 629 q 578 1097 363 807 q 1068 621 833 785 l 1021 549 m 633 28 q 439 63 511 29 q 335 169 367 96 q 303 365 303 242 l 303 650 l 875 643 q 871 281 875 389 l 789 285 q 794 497 794 356 l 794 558 l 386 565 q 385 454 385 535 l 385 356 q 440 170 385 229 q 631 111 496 111 q 896 121 781 111 l 903 38 q 813 31 890 36 q 633 28 736 26 z "},"仔":{"ha":1425,"x_min":111,"x_max":1314,"o":"m 111 611 q 358 778 238 678 q 560 989 478 878 l 622 939 q 436 736 549 836 l 447 56 l 369 54 l 363 676 q 149 538 251 590 l 111 611 m 1079 714 q 1178 882 1161 786 l 713 889 l 713 971 l 1275 965 q 1139 651 1267 779 l 1079 714 m 1314 454 l 1314 372 l 1053 375 q 1025 43 1054 224 l 942 53 q 965 322 965 197 q 964 375 965 357 l 671 378 l 669 458 l 960 457 q 903 724 944 600 l 983 747 q 1047 456 1032 608 l 1314 454 z "},"仕":{"ha":1483,"x_min":111,"x_max":1372,"o":"m 1372 682 l 1372 597 l 1033 601 l 1032 153 l 1332 149 l 1332 67 l 653 76 l 653 158 l 947 154 l 950 601 l 607 606 l 606 688 l 950 685 l 951 1003 l 1035 1001 l 1033 685 l 1372 682 m 619 951 q 439 749 550 849 l 449 68 l 369 68 l 364 685 q 149 549 261 604 l 111 622 q 358 788 243 690 q 557 999 474 885 l 619 951 z "},"他":{"ha":1453,"x_min":111,"x_max":1342,"o":"m 1115 154 q 1238 158 1169 154 q 1318 161 1260 158 l 1325 79 q 1114 69 1226 69 q 849 128 931 69 q 749 291 768 186 q 728 617 729 396 l 728 656 l 606 651 l 603 735 l 728 739 l 728 925 l 808 924 l 810 742 l 1003 749 l 1007 989 l 1088 988 l 1085 751 l 1342 760 q 1285 333 1333 536 l 1208 351 q 1257 672 1251 550 l 1083 667 l 1081 436 l 997 439 l 1001 664 l 811 658 l 811 589 q 827 324 813 406 q 905 198 842 242 q 1115 154 968 154 m 625 940 q 440 736 557 840 l 450 58 l 372 57 l 365 675 q 149 538 258 592 l 111 610 q 360 778 238 678 q 558 988 483 879 l 625 940 z "},"仗":{"ha":1400,"x_min":111,"x_max":1289,"o":"m 621 949 q 439 744 550 844 l 449 65 l 371 65 l 363 679 q 150 542 251 592 l 111 615 q 359 783 242 683 q 557 997 476 883 l 621 949 m 1256 42 q 919 232 1076 104 q 728 42 853 146 l 676 104 q 860 285 789 199 q 654 544 733 400 l 722 589 q 907 351 788 463 q 981 513 954 426 q 1019 713 1008 600 l 614 717 l 615 799 l 1025 794 q 1029 989 1029 853 l 1110 988 q 1106 793 1110 883 l 1275 792 l 1279 710 l 1099 711 q 1055 483 1086 582 q 967 297 1024 383 q 1289 115 1126 169 l 1256 42 z "},"付":{"ha":1451,"x_min":111,"x_max":1340,"o":"m 1167 757 l 1340 754 l 1339 672 l 1167 675 l 1172 61 l 1092 61 l 1088 675 l 629 682 l 629 767 l 1088 758 l 1086 997 l 1164 997 l 1167 757 m 111 611 q 355 778 239 679 q 551 993 471 878 l 617 944 q 432 738 540 833 l 443 58 l 364 57 l 357 674 q 149 539 254 592 l 111 611 m 713 567 q 993 315 871 451 l 938 257 q 664 503 793 407 l 713 567 z "},"仙":{"ha":1443,"x_min":111,"x_max":1332,"o":"m 1250 157 l 1253 657 l 1332 654 l 1329 76 l 647 81 l 642 667 l 722 667 l 728 160 l 940 158 l 944 990 l 1025 989 l 1022 158 l 1250 157 m 111 606 q 358 773 240 674 q 557 989 475 872 l 619 940 q 433 731 550 833 l 443 58 l 365 57 l 358 668 q 149 532 250 583 l 111 606 z "},"仝":{"ha":1200,"x_min":111,"x_max":1089,"o":"m 586 1017 q 829 760 694 890 q 1089 546 964 629 l 1042 476 q 804 669 922 557 q 590 896 686 782 q 389 668 514 792 q 163 476 264 544 l 111 542 q 586 1017 353 711 m 635 492 l 628 140 l 942 136 l 944 56 l 235 64 l 238 144 l 549 140 l 560 493 l 313 500 l 315 583 l 890 565 l 892 485 l 635 492 z "},"仟":{"ha":1528,"x_min":111,"x_max":1417,"o":"m 1417 568 l 1417 486 l 1076 489 l 1081 29 l 1000 29 l 996 490 l 649 493 l 649 575 l 994 572 l 992 881 q 724 865 840 869 l 721 947 q 1031 966 867 950 q 1329 1004 1194 982 l 1344 925 q 1072 888 1228 903 l 1075 571 l 1417 568 m 111 611 q 358 778 242 681 q 556 990 475 876 l 621 942 q 438 738 551 840 l 449 60 l 371 60 l 363 675 q 149 538 257 590 l 111 611 z "},"仡":{"ha":1457,"x_min":111,"x_max":1346,"o":"m 1326 771 l 772 779 q 701 610 739 679 l 626 646 q 703 836 669 733 q 753 1036 736 939 l 833 1021 q 799 864 815 925 l 1326 856 l 1326 771 m 111 608 q 360 776 246 678 q 556 989 475 874 l 621 940 q 436 732 550 835 l 449 57 l 369 56 l 361 669 q 150 535 261 588 l 111 608 m 1346 36 q 1168 24 1258 24 q 997 35 1068 24 q 878 83 925 46 q 831 193 831 121 q 877 324 831 257 q 983 445 924 392 q 1133 572 1042 499 l 750 576 l 750 660 l 1249 651 l 1251 568 q 1084 433 1151 490 q 965 311 1017 375 q 914 196 914 247 q 978 123 914 142 q 1153 104 1043 104 q 1338 117 1269 104 l 1346 36 z "},"代":{"ha":1422,"x_min":111,"x_max":1311,"o":"m 618 951 q 440 750 551 851 l 453 65 l 374 64 l 365 686 q 149 547 261 603 l 111 619 q 357 788 240 688 q 554 1001 474 888 l 618 951 m 988 596 q 1096 351 1025 463 q 1285 139 1167 240 l 1235 72 q 1020 310 1100 182 q 900 593 940 439 l 547 583 l 546 665 l 881 676 q 846 986 856 801 l 928 992 q 967 679 942 801 l 1308 690 l 1311 606 l 988 596 m 1204 744 q 1028 904 1114 835 l 1075 964 q 1260 800 1160 903 l 1204 744 z "},"令":{"ha":1244,"x_min":111,"x_max":1133,"o":"m 618 1104 q 867 840 735 967 q 1133 615 1000 713 l 1086 549 q 834 759 969 635 q 618 985 699 883 q 411 763 542 885 q 160 551 281 642 l 111 621 q 618 1104 357 800 m 947 501 q 711 117 931 296 q 882 32 783 83 l 842 -36 q 378 167 650 68 l 404 238 q 631 151 526 197 q 774 291 715 215 q 847 422 833 367 l 278 431 l 278 510 l 581 506 l 579 751 l 661 750 l 664 506 l 947 501 z "},"以":{"ha":1236,"x_min":111,"x_max":1125,"o":"m 1056 82 q 836 376 958 239 q 499 81 707 213 l 454 150 q 724 376 619 261 q 892 638 829 492 q 986 988 956 785 l 1069 976 q 1002 685 1047 815 q 885 444 957 554 q 1125 129 1025 292 l 1056 82 m 264 364 l 513 394 l 521 314 l 122 264 l 111 346 l 186 356 l 190 932 l 268 931 l 264 364 m 664 549 q 390 775 547 667 l 438 843 q 718 610 597 733 l 664 549 z "},"仨":{"ha":1554,"x_min":111,"x_max":1443,"o":"m 111 617 q 358 784 239 683 q 557 997 478 885 l 619 949 q 438 744 553 849 l 447 67 l 368 67 l 361 679 q 149 543 258 599 l 111 617 m 706 876 l 1354 871 l 1354 789 l 701 793 l 706 876 m 1339 540 l 1339 458 l 735 465 l 735 547 l 1339 540 m 625 113 l 625 196 l 1443 192 l 1443 110 l 625 113 z "},"仪":{"ha":1489,"x_min":111,"x_max":1378,"o":"m 621 940 q 438 735 550 835 l 447 58 l 371 58 l 363 672 q 149 533 256 588 l 111 608 q 360 775 242 675 q 557 989 478 875 l 621 940 m 978 660 q 792 932 875 831 l 851 982 q 932 877 897 928 q 1014 751 967 826 l 1043 704 l 978 660 m 1350 67 q 1133 160 1228 111 q 964 269 1039 210 q 650 63 839 156 l 617 138 q 903 324 786 219 q 749 513 818 404 q 615 771 681 621 l 690 804 q 818 558 754 660 q 960 381 882 456 q 1115 612 1053 482 q 1219 917 1176 742 l 1299 896 q 1185 572 1250 708 q 1022 328 1121 435 q 1378 143 1156 224 l 1350 67 z "},"们":{"ha":1522,"x_min":111,"x_max":1411,"o":"m 667 1015 q 772 956 728 983 q 879 883 817 929 l 835 818 q 728 889 771 863 q 626 947 686 915 l 667 1015 m 543 953 q 407 744 488 849 l 413 63 l 335 63 l 329 651 q 163 494 253 565 l 111 561 q 310 757 219 646 q 471 996 401 868 l 543 953 m 943 975 l 1393 967 l 1411 60 l 1329 60 l 1313 883 l 943 892 l 943 975 m 621 58 l 619 786 l 701 786 l 703 58 l 621 58 z "},"仰":{"ha":1529,"x_min":111,"x_max":1418,"o":"m 950 944 q 674 861 778 883 l 669 306 l 935 324 l 940 244 l 597 221 l 600 924 q 922 1019 754 958 l 950 944 m 550 953 q 413 749 490 844 l 419 64 l 340 64 l 336 658 q 163 500 249 564 l 111 567 q 313 759 219 649 q 479 996 407 869 l 550 953 m 1028 958 l 1411 951 l 1418 226 l 1336 226 l 1332 872 l 1103 876 l 1104 53 l 1026 54 l 1028 958 z "},"仲":{"ha":1469,"x_min":111,"x_max":1358,"o":"m 1350 839 l 1358 322 l 1053 325 l 1056 22 l 975 22 l 974 326 l 660 329 l 668 854 l 969 847 l 968 1042 l 1047 1040 l 1049 846 l 1350 839 m 111 622 q 357 790 240 690 q 554 1004 474 890 l 618 956 q 442 754 549 850 l 453 67 l 375 65 l 367 690 q 149 549 260 604 l 111 622 m 744 769 l 740 414 l 972 410 l 969 764 l 744 769 m 1276 406 l 1272 757 l 1050 763 l 1053 410 l 1276 406 z "},"仵":{"ha":1476,"x_min":111,"x_max":1365,"o":"m 1365 376 l 1051 381 l 1054 18 l 974 18 l 971 381 l 628 385 l 629 469 l 971 465 l 968 757 l 750 758 q 696 590 726 667 l 617 618 q 678 816 653 711 q 713 1019 703 921 l 793 1008 q 769 840 788 931 l 1318 835 l 1319 754 l 1049 756 l 1051 465 l 1364 461 l 1365 376 m 619 947 q 440 744 550 846 l 453 58 l 374 57 l 365 681 q 150 542 265 600 l 111 617 q 358 783 242 685 q 554 997 475 882 l 619 947 z "},"件":{"ha":1504,"x_min":111,"x_max":1393,"o":"m 1393 426 l 1392 343 l 1078 344 l 1081 46 l 1000 46 l 997 346 l 661 347 l 663 429 l 997 428 l 994 742 l 765 746 q 708 579 743 663 l 632 610 q 697 807 669 703 q 733 1008 724 911 l 815 994 q 786 826 804 910 l 994 825 l 993 1033 l 1074 1032 l 1075 824 l 1346 822 l 1344 738 l 1075 742 l 1078 428 l 1393 426 m 111 613 q 357 778 240 679 q 554 993 474 878 l 618 943 q 440 742 546 836 l 451 56 l 372 54 l 365 678 q 149 538 258 593 l 111 613 z "},"价":{"ha":1506,"x_min":111,"x_max":1394,"o":"m 978 1019 q 1191 781 1100 874 q 1394 606 1282 688 l 1349 539 q 1149 711 1247 615 q 979 899 1050 807 q 822 717 918 811 q 618 540 725 624 l 574 606 q 785 792 688 692 q 978 1019 882 892 m 622 906 q 436 700 543 796 l 446 25 l 368 25 l 361 638 q 149 503 258 556 l 111 575 q 358 742 239 642 q 557 954 476 843 l 622 906 m 682 44 q 734 304 719 183 q 751 597 749 425 l 832 593 q 814 294 829 419 q 760 22 799 169 l 682 44 m 1146 28 l 1126 589 l 1208 590 l 1228 29 l 1146 28 z "},"任":{"ha":1504,"x_min":111,"x_max":1393,"o":"m 617 944 q 432 742 542 839 l 443 61 l 364 61 l 357 679 q 147 546 256 599 l 111 619 q 356 785 239 688 q 553 993 472 882 l 617 944 m 1393 468 l 1049 472 l 1049 143 l 1321 140 l 1321 57 l 667 65 l 667 147 l 968 144 l 967 474 l 592 479 l 590 564 l 965 560 l 964 844 q 694 822 839 829 l 692 904 q 1281 988 996 922 l 1303 906 q 1047 856 1182 875 l 1047 560 l 1393 556 l 1393 468 z "},"份":{"ha":1450,"x_min":111,"x_max":1339,"o":"m 869 968 q 772 708 833 842 q 638 468 710 574 l 571 514 q 698 742 640 618 q 796 994 756 867 l 869 968 m 1081 993 q 1339 518 1189 725 l 1276 471 q 1119 728 1182 613 q 1007 963 1056 843 l 1081 993 m 621 942 q 435 736 547 836 l 444 57 l 367 56 l 358 672 q 150 539 258 593 l 111 613 q 360 781 242 682 q 557 990 479 881 l 621 942 m 693 536 l 1206 526 q 1211 214 1211 410 l 1211 35 l 1136 35 l 1136 156 q 1135 444 1136 353 l 904 450 q 871 239 896 350 q 811 32 846 128 l 736 56 q 794 250 769 144 q 829 451 818 356 l 693 454 l 693 536 z "},"仿":{"ha":1442,"x_min":111,"x_max":1331,"o":"m 1329 767 l 918 772 q 903 575 914 683 l 1275 565 q 1279 176 1279 381 l 1279 21 l 1200 21 l 1201 213 q 1196 482 1201 372 l 892 492 q 796 19 861 251 l 717 40 q 838 772 810 375 l 668 775 l 668 856 l 965 851 l 968 1001 l 1049 997 l 1046 850 l 1331 846 l 1329 767 m 111 608 q 359 776 240 675 q 557 988 478 876 l 624 939 q 436 733 543 828 l 447 58 l 368 58 l 361 669 q 150 535 260 590 l 111 608 z "},"企":{"ha":1275,"x_min":111,"x_max":1164,"o":"m 643 1065 q 1164 610 911 790 l 1122 542 q 878 733 1004 625 q 643 951 753 840 q 413 737 546 850 q 158 535 281 624 l 111 606 q 390 825 251 704 q 643 1065 529 946 m 1006 354 l 685 360 l 689 97 l 1060 94 l 1060 15 l 182 22 l 181 101 l 300 100 l 296 507 l 376 508 l 379 100 l 608 99 l 600 758 l 681 757 l 685 440 l 1004 435 l 1006 354 z "},"伊":{"ha":1494,"x_min":111,"x_max":1383,"o":"m 1285 624 l 1289 344 l 972 349 q 875 53 936 176 l 803 86 q 889 349 857 213 l 664 351 l 664 429 l 904 428 q 931 625 919 517 l 622 626 l 622 710 l 936 707 q 942 915 942 800 l 683 918 l 683 1000 l 1279 989 l 1283 704 l 1382 701 l 1383 622 l 1285 624 m 111 613 q 357 780 240 681 q 553 993 474 879 l 618 944 q 433 736 549 840 l 444 58 l 365 56 l 358 672 q 150 538 251 589 l 111 613 m 1204 911 l 1022 914 q 1015 707 1019 775 l 1207 704 l 1204 911 m 1210 425 l 1207 624 l 1010 625 q 988 426 1004 540 l 1210 425 z "},"伍":{"ha":1560,"x_min":111,"x_max":1449,"o":"m 111 617 q 356 781 238 682 q 557 996 474 881 l 621 947 q 429 736 543 836 l 439 65 l 361 65 l 354 674 q 149 542 249 592 l 111 617 m 1314 151 l 1447 150 l 1449 71 l 640 79 l 642 158 l 822 157 l 858 532 l 697 535 l 699 619 l 867 617 l 894 900 l 682 901 l 682 982 l 1351 976 l 1353 896 l 975 899 l 946 617 l 1308 611 l 1314 151 m 1229 525 l 938 531 l 900 156 l 1235 153 l 1229 525 z "},"伎":{"ha":1435,"x_min":111,"x_max":1324,"o":"m 1294 7 q 993 161 1115 76 q 714 14 882 85 l 678 92 q 922 213 804 138 q 765 403 819 297 q 707 642 710 508 l 963 635 l 964 814 l 686 817 l 686 899 l 965 896 l 967 1053 l 1047 1050 l 1044 894 l 1304 892 l 1306 810 l 1043 813 l 1040 633 l 1274 626 q 1065 215 1274 386 q 1324 86 1174 150 l 1294 7 m 111 607 q 361 775 242 675 q 557 986 481 875 l 621 938 q 439 733 549 832 l 449 58 l 371 58 l 364 671 q 149 532 253 583 l 111 607 m 801 554 q 994 265 815 401 q 1181 544 1165 400 l 801 554 z "},"伏":{"ha":1431,"x_min":111,"x_max":1319,"o":"m 982 638 q 1096 358 1000 499 q 1319 118 1192 217 l 1268 49 q 944 476 1021 244 q 644 54 874 243 l 588 122 q 800 358 715 221 q 894 638 885 494 l 578 642 l 578 729 l 896 725 q 893 1013 896 815 l 975 1013 q 978 724 975 800 l 1311 718 l 1311 633 l 982 638 m 619 953 q 438 747 550 849 l 449 69 l 369 69 l 361 683 q 147 544 258 601 l 111 619 q 358 787 240 688 q 556 1001 475 886 l 619 953 m 1186 753 q 1046 932 1125 843 l 1106 982 q 1249 799 1182 896 l 1186 753 z "},"伐":{"ha":1435,"x_min":111,"x_max":1324,"o":"m 1117 328 q 1324 104 1197 194 l 1274 36 q 1054 265 1140 131 q 885 134 976 193 q 701 38 793 75 l 667 113 q 847 210 757 151 q 1011 342 936 269 q 911 653 944 474 l 572 640 l 568 721 l 899 732 q 874 1026 883 847 l 951 1028 q 981 735 961 857 l 1296 746 l 1300 665 l 996 656 q 1075 408 1025 514 q 1193 582 1153 494 l 1265 539 q 1117 328 1211 429 m 1206 782 q 1067 944 1146 858 l 1124 996 q 1197 916 1157 963 q 1265 829 1236 869 l 1206 782 m 621 946 q 443 744 557 850 l 453 63 l 375 61 l 367 681 q 149 539 263 597 l 111 613 q 359 781 242 681 q 557 994 476 881 l 621 946 z "},"休":{"ha":1468,"x_min":111,"x_max":1357,"o":"m 618 956 q 440 754 546 849 l 451 71 l 372 69 l 364 690 q 147 550 257 606 l 111 625 q 357 791 240 692 q 554 1006 474 890 l 618 956 m 1006 617 q 1357 222 1199 363 l 1307 163 q 1151 315 1231 228 q 1007 492 1071 403 l 1011 50 l 933 50 l 928 490 q 649 165 774 282 l 596 225 q 926 615 750 364 l 925 665 l 593 671 l 594 753 l 924 749 l 921 986 l 1003 983 l 1006 747 l 1336 743 l 1338 660 l 1006 665 l 1006 617 z "},"众":{"ha":1236,"x_min":111,"x_max":1125,"o":"m 613 958 q 388 731 508 843 q 156 542 267 618 l 111 611 q 362 813 243 700 q 613 1071 481 926 q 1125 619 886 790 l 1081 549 q 613 958 863 704 m 828 321 q 974 198 914 256 q 1124 38 1035 140 l 1057 -19 q 926 126 979 74 q 796 238 872 179 q 597 -54 735 101 l 536 6 q 628 118 589 64 q 510 222 564 179 q 385 317 457 264 q 305 146 354 229 q 174 -36 256 63 l 114 24 q 256 228 206 132 q 328 419 306 325 q 367 649 351 514 l 449 642 q 410 403 429 486 q 542 304 482 351 q 675 190 601 257 q 762 394 735 292 q 801 636 789 497 l 883 632 q 860 458 872 531 q 828 321 849 385 z "},"优":{"ha":1492,"x_min":111,"x_max":1381,"o":"m 1381 39 q 1258 32 1294 31 q 1106 79 1161 33 q 1031 208 1051 125 q 1008 418 1010 292 q 1007 667 1007 485 l 922 668 q 862 340 908 489 q 714 22 815 192 l 639 65 q 781 364 736 224 q 839 668 825 504 l 608 671 l 610 756 l 844 753 q 851 1021 849 839 l 936 1021 q 928 753 935 876 l 1360 749 l 1363 664 l 1092 667 q 1090 436 1090 565 q 1124 199 1090 278 q 1256 117 1158 119 q 1343 119 1294 115 l 1372 122 l 1381 39 m 1244 806 q 1046 938 1163 872 l 1086 1003 q 1289 868 1194 946 l 1244 806 m 624 947 q 435 739 554 843 l 446 67 l 368 65 l 360 676 q 147 542 249 592 l 111 615 q 360 783 242 683 q 558 996 479 882 l 624 947 z "},"伙":{"ha":1443,"x_min":111,"x_max":1332,"o":"m 111 635 q 358 802 240 703 q 556 1017 475 901 l 619 968 q 438 763 550 864 l 449 85 l 369 85 l 361 699 q 147 560 258 617 l 111 635 m 1031 589 q 1332 119 1063 342 l 1282 54 q 1090 247 1178 140 q 978 457 1003 353 q 865 245 953 350 q 669 57 776 140 l 624 124 q 828 340 749 219 q 922 588 908 460 q 938 913 938 682 l 938 999 l 1013 999 l 1011 856 q 1031 589 1011 664 m 1314 810 q 1265 624 1296 721 q 1194 443 1233 528 l 1118 475 q 1235 828 1200 658 l 1314 810 m 738 449 q 622 793 689 636 l 697 821 q 817 469 765 668 l 738 449 z "},"会":{"ha":1238,"x_min":111,"x_max":1126,"o":"m 625 1088 q 1126 646 872 813 l 1083 579 q 624 975 796 774 q 157 574 421 746 l 111 644 q 377 848 243 732 q 625 1088 511 964 m 361 628 l 361 711 l 897 701 l 897 621 l 361 628 m 531 356 l 472 131 l 838 138 q 796 231 825 168 l 869 265 q 976 -1 932 135 l 901 -31 l 868 60 l 371 54 l 450 356 l 253 357 l 253 439 l 1013 433 l 1015 351 l 531 356 z "},"伞":{"ha":1301,"x_min":111,"x_max":1190,"o":"m 654 1036 q 431 842 582 956 q 156 657 281 728 l 111 725 q 409 926 285 832 q 654 1139 533 1021 q 1190 744 879 922 l 1151 674 q 871 855 1008 753 q 654 1036 733 957 m 621 842 l 703 840 l 713 283 l 1175 276 l 1172 193 l 715 199 l 719 -61 l 633 -60 l 629 200 l 160 206 l 161 290 l 629 283 l 621 842 m 847 393 q 926 541 890 463 q 982 686 963 619 l 1060 654 q 999 500 1036 582 q 919 350 963 418 l 847 393 m 411 360 q 256 643 340 522 l 325 685 q 485 396 406 575 l 411 360 z "},"伟":{"ha":1407,"x_min":111,"x_max":1296,"o":"m 1294 388 l 1296 78 l 1215 81 l 1217 307 l 976 310 l 976 14 l 897 15 l 897 310 l 590 313 l 590 394 l 897 392 l 897 550 l 646 553 l 646 633 l 897 631 l 897 775 l 621 779 l 622 858 l 897 854 l 897 1003 l 976 1001 l 976 854 l 1264 850 l 1264 771 l 976 775 l 976 629 l 1236 626 l 1238 547 l 976 550 l 976 390 l 1294 388 m 617 943 q 438 736 542 832 l 447 58 l 369 58 l 361 669 q 150 532 256 586 l 111 606 q 356 774 242 674 q 551 990 469 874 l 617 943 z "},"传":{"ha":1456,"x_min":111,"x_max":1344,"o":"m 1260 408 q 1200 236 1249 310 q 1067 103 1151 163 l 1199 35 l 1160 -35 q 980 58 1078 13 q 792 133 882 103 l 825 206 q 986 140 906 176 q 1157 331 1128 228 l 769 333 q 829 550 799 429 l 597 553 l 597 631 l 847 628 q 882 790 874 746 l 646 793 l 646 872 l 897 868 q 925 1042 917 985 l 1004 1032 q 976 867 996 975 l 1286 863 l 1286 786 l 963 790 q 928 626 942 689 l 1343 622 l 1344 546 l 910 550 q 872 413 893 481 l 1260 408 m 619 933 q 439 731 547 828 l 449 53 l 371 53 l 364 668 q 149 532 261 588 l 111 606 q 359 771 244 674 q 557 983 474 868 l 619 933 z "},"伤":{"ha":1394,"x_min":111,"x_max":1282,"o":"m 757 797 q 697 642 729 708 l 622 676 q 735 1056 700 846 l 814 1038 q 781 882 801 958 l 1276 874 l 1276 789 l 757 797 m 111 631 q 356 797 244 701 q 549 1008 468 893 l 614 960 q 433 756 539 851 l 444 79 l 365 79 l 357 690 q 149 556 247 606 l 111 631 m 1269 554 q 1279 340 1276 421 q 1282 133 1282 258 l 1282 50 l 1197 50 q 1199 86 1197 75 l 1200 214 q 1190 474 1200 332 l 931 476 q 876 261 910 361 q 788 46 842 161 l 711 82 q 794 279 761 185 q 849 478 828 374 l 668 481 l 668 563 l 863 560 q 881 711 874 624 l 961 703 q 943 558 951 608 l 1269 554 z "},"伥":{"ha":1414,"x_min":111,"x_max":1303,"o":"m 621 954 q 436 747 549 847 l 446 72 l 368 72 l 361 685 q 147 549 264 608 l 111 622 q 363 792 249 696 q 556 1004 476 889 l 621 954 m 861 497 q 1059 313 967 392 q 1279 143 1151 233 l 1233 76 q 1010 249 1106 169 q 826 422 915 329 l 829 49 l 751 46 l 749 496 l 596 494 l 593 574 l 747 575 l 744 990 l 822 990 l 825 575 l 1301 578 l 1303 500 l 861 497 m 1196 919 q 1092 770 1149 839 q 963 632 1036 701 l 908 689 q 1131 963 1028 797 l 1196 919 z "},"伦":{"ha":1488,"x_min":111,"x_max":1376,"o":"m 963 1043 q 1161 836 1068 924 q 1376 669 1254 749 l 1333 601 q 1135 754 1219 679 q 964 926 1050 829 q 803 753 896 839 q 610 593 711 667 l 563 658 q 963 1043 776 810 m 622 921 q 438 714 547 811 l 447 39 l 368 38 l 361 650 q 149 515 258 569 l 111 589 q 361 757 243 658 q 557 969 479 856 l 622 921 m 1072 136 q 1178 139 1142 136 q 1279 151 1214 142 l 1288 67 q 1190 56 1228 58 q 1089 53 1153 53 q 881 81 953 53 q 779 174 810 108 q 742 364 749 240 q 736 583 736 456 q 735 636 735 604 l 817 638 q 819 450 817 536 q 1031 506 940 476 q 1215 578 1122 535 l 1253 504 q 1057 428 1156 460 q 824 364 958 396 q 853 223 831 271 q 927 156 876 175 q 1072 136 978 136 z "},"伪":{"ha":1475,"x_min":111,"x_max":1363,"o":"m 1350 736 q 1363 160 1363 493 l 1363 33 l 1281 33 l 1281 160 q 1271 650 1281 464 l 971 657 q 888 340 940 486 q 747 53 835 193 l 676 97 q 888 658 826 333 l 613 665 l 614 751 l 761 749 q 668 911 729 824 l 739 954 q 803 850 781 892 q 851 746 826 808 l 901 746 q 928 1001 919 860 l 1011 993 q 985 743 1000 854 l 1350 736 m 619 950 q 435 742 551 846 l 446 68 l 367 67 l 360 679 q 149 543 254 594 l 111 617 q 358 784 240 685 q 556 997 475 883 l 619 950 m 1068 557 q 1201 299 1143 444 l 1128 265 q 1000 517 1082 386 l 1068 557 z "},"伯":{"ha":1425,"x_min":111,"x_max":1314,"o":"m 1304 822 l 1314 56 l 674 60 l 683 829 l 951 826 q 1043 1036 1007 933 l 1121 1010 q 1044 825 1089 914 l 1304 822 m 111 608 q 358 776 242 676 q 556 990 475 875 l 619 942 q 440 738 544 832 l 451 57 l 372 56 l 364 674 q 149 535 256 588 l 111 608 m 1229 474 l 1225 742 l 761 746 l 758 482 l 1229 474 m 757 399 l 754 139 l 1235 135 l 1231 393 l 757 399 z "},"估":{"ha":1381,"x_min":111,"x_max":1269,"o":"m 1269 811 l 1269 731 l 989 733 l 992 511 l 1238 507 l 1246 68 l 664 74 l 671 518 l 913 514 l 910 733 l 621 736 l 622 817 l 908 814 l 906 1011 l 985 1011 l 988 814 l 1269 811 m 111 611 q 357 778 240 679 q 554 992 474 878 l 619 944 q 436 738 550 840 l 447 61 l 368 60 l 361 675 q 149 538 257 592 l 111 611 m 742 154 l 1165 149 l 1161 428 l 747 436 l 742 154 z "},"伴":{"ha":1447,"x_min":111,"x_max":1336,"o":"m 1335 371 l 1336 289 l 1039 292 l 1042 49 l 963 49 l 960 293 l 658 296 l 658 376 l 958 374 l 956 535 l 692 540 l 693 622 l 956 618 l 950 1014 l 1031 1013 l 1036 617 l 1292 613 l 1292 529 l 1036 533 l 1038 374 l 1335 371 m 111 625 q 356 790 240 692 q 554 1004 472 889 l 618 956 q 440 754 551 856 l 451 71 l 374 69 l 367 692 q 149 551 260 606 l 111 625 m 796 676 q 749 815 776 743 q 694 942 722 886 l 765 972 q 823 838 794 913 q 869 699 851 764 l 796 676 m 1293 931 q 1183 665 1247 783 l 1114 700 q 1219 958 1183 843 l 1293 931 z "},"伶":{"ha":1469,"x_min":111,"x_max":1358,"o":"m 971 1014 q 1358 618 1181 753 l 1310 553 q 1118 728 1217 631 q 971 892 1019 826 q 825 724 929 826 q 644 564 721 622 l 596 628 q 971 1014 767 753 m 622 942 q 438 740 543 833 l 447 60 l 369 60 l 361 676 q 149 540 253 592 l 111 614 q 358 781 239 682 q 558 990 478 881 l 622 942 m 1233 490 q 1056 158 1222 308 l 1185 92 l 1144 26 q 978 112 1063 74 q 782 190 893 150 l 807 260 q 979 194 890 233 q 1085 301 1042 244 q 1140 414 1128 358 l 693 419 l 694 497 l 939 494 l 939 717 l 1017 717 l 1018 493 l 1233 490 z "},"伸":{"ha":1414,"x_min":111,"x_max":1303,"o":"m 1292 864 l 1303 267 l 1031 269 l 1032 31 l 950 31 l 949 269 l 672 272 l 682 878 l 943 872 l 942 1019 l 1025 1018 l 1026 869 l 1292 864 m 111 614 q 356 781 239 682 q 553 996 472 881 l 617 946 q 440 746 550 846 l 451 60 l 372 58 l 364 681 q 149 540 258 596 l 111 614 m 946 607 l 943 790 l 758 793 l 754 608 l 946 607 m 1028 606 l 1218 604 l 1214 785 l 1026 788 l 1028 606 m 946 524 l 753 526 l 749 356 l 949 353 l 946 524 m 1029 524 l 1031 351 l 1224 349 l 1219 521 l 1029 524 z "},"伺":{"ha":1465,"x_min":111,"x_max":1354,"o":"m 111 618 q 358 787 240 686 q 556 1001 475 888 l 621 953 q 439 749 554 853 l 450 69 l 372 68 l 364 685 q 149 544 258 600 l 111 618 m 694 992 l 1340 983 l 1354 53 l 1274 53 l 1264 903 l 696 908 l 694 992 m 728 683 l 729 765 l 1133 761 l 1135 679 l 728 683 m 713 186 l 718 564 l 1136 556 l 1143 182 l 713 186 m 799 478 l 793 269 l 1063 267 l 1057 474 l 799 478 z "},"似":{"ha":1489,"x_min":111,"x_max":1378,"o":"m 543 953 q 407 742 490 846 l 411 63 l 332 63 l 331 651 q 163 494 253 565 l 111 561 q 312 758 219 647 q 472 994 404 869 l 543 953 m 686 328 l 883 350 l 894 271 l 544 229 l 535 311 l 607 319 l 614 982 l 693 981 l 686 328 m 1306 71 q 1138 324 1242 193 q 933 74 1060 197 l 874 135 q 1140 515 1054 318 q 1249 975 1226 711 l 1333 965 q 1185 406 1308 644 q 1378 114 1310 247 l 1306 71 m 993 533 q 806 779 899 675 l 864 833 q 1060 579 939 749 l 993 533 z "},"伽":{"ha":1571,"x_min":111,"x_max":1460,"o":"m 978 782 q 988 225 988 561 l 986 67 l 907 67 l 907 114 l 908 369 q 901 700 908 574 l 740 703 q 706 392 725 535 q 650 58 686 250 l 565 75 q 657 706 624 342 l 510 708 l 511 790 l 664 788 q 676 1001 672 894 l 760 996 l 751 861 q 746 786 749 836 l 978 782 m 542 953 q 410 743 493 850 l 417 60 l 336 61 l 332 651 q 161 496 253 567 l 111 561 q 471 996 338 739 l 542 953 m 1081 946 l 1451 939 l 1460 96 l 1071 100 l 1081 946 m 1160 860 l 1153 186 l 1376 182 l 1371 857 l 1160 860 z "},"佃":{"ha":1492,"x_min":111,"x_max":1381,"o":"m 111 613 q 357 780 240 681 q 554 993 474 879 l 618 944 q 439 742 551 843 l 450 63 l 371 63 l 364 678 q 149 538 258 593 l 111 613 m 697 949 l 1369 938 l 1381 101 l 681 107 l 697 949 m 999 571 l 997 865 l 775 869 l 771 574 l 999 571 m 1079 571 l 1294 568 l 1290 858 l 1078 863 l 1079 571 m 1000 490 l 769 493 l 764 186 l 1001 183 l 1000 490 m 1079 490 l 1081 182 l 1300 179 l 1296 488 l 1079 490 z "},"但":{"ha":1396,"x_min":111,"x_max":1285,"o":"m 111 618 q 356 786 238 686 q 556 999 475 886 l 619 951 q 438 749 547 849 l 449 69 l 369 67 l 361 683 q 147 544 260 601 l 111 618 m 704 988 l 1251 978 l 1257 258 l 696 265 l 704 988 m 1176 658 l 1175 894 l 781 903 l 778 664 l 1176 658 m 778 579 l 775 347 l 1178 342 l 1176 575 l 778 579 m 668 154 l 1283 146 l 1285 65 l 668 74 l 668 154 z "},"位":{"ha":1476,"x_min":111,"x_max":1365,"o":"m 1040 867 l 1340 864 l 1342 782 l 665 788 l 668 869 l 958 867 l 963 1028 l 1043 1024 l 1040 867 m 111 610 q 357 775 240 678 q 556 985 474 872 l 621 936 q 438 735 547 831 l 449 56 l 369 56 l 361 671 q 149 536 260 590 l 111 610 m 1365 149 l 1364 67 l 640 72 l 640 157 l 815 156 q 756 719 808 465 l 833 732 q 896 154 889 481 l 1093 151 q 1175 726 1154 414 l 1256 718 q 1178 151 1231 396 l 1365 149 z "},"低":{"ha":1456,"x_min":111,"x_max":1344,"o":"m 778 521 l 774 164 l 1032 186 q 988 319 1011 258 l 1058 343 q 1147 32 1119 182 l 1072 17 q 1053 108 1067 47 l 696 79 l 707 925 q 1242 997 999 950 l 1258 919 q 1111 892 1206 907 q 1163 597 1132 733 l 1329 596 l 1329 518 l 1182 519 q 1344 124 1244 286 l 1276 83 q 1103 519 1165 265 l 778 521 m 111 619 q 358 784 238 683 q 558 996 478 885 l 624 947 q 438 744 549 842 l 447 65 l 369 65 l 363 682 q 149 546 264 604 l 111 619 m 1036 881 q 781 850 943 868 l 778 600 l 1083 597 q 1036 881 1056 731 z "},"住":{"ha":1475,"x_min":111,"x_max":1364,"o":"m 1058 146 l 1364 142 l 1364 58 l 664 67 l 667 150 l 978 146 l 974 451 l 718 456 l 721 539 l 972 535 l 969 801 l 688 803 l 689 886 l 963 883 q 914 1028 935 979 l 988 1056 q 1044 882 1019 989 l 1317 879 l 1318 799 l 1050 800 l 1053 535 l 1299 531 l 1299 447 l 1054 451 l 1058 146 m 111 601 q 357 769 240 669 q 554 982 474 868 l 618 933 q 439 731 549 832 l 450 51 l 371 51 l 364 667 q 149 528 260 583 l 111 601 z "},"佐":{"ha":1471,"x_min":111,"x_max":1360,"o":"m 1092 140 l 1360 136 l 1360 60 l 754 68 l 754 144 l 1014 140 l 1014 422 l 793 426 l 793 483 q 681 294 746 388 l 618 343 q 804 713 733 508 l 613 715 l 614 794 l 829 792 q 881 1003 858 888 l 958 989 q 910 790 940 896 l 1351 785 l 1351 703 l 885 711 q 803 503 846 594 l 1313 494 l 1313 418 l 1092 422 l 1092 140 m 619 944 q 440 740 549 838 l 450 63 l 372 61 l 364 676 q 149 538 253 589 l 111 611 q 359 780 242 681 q 557 993 476 879 l 619 944 z "},"佑":{"ha":1468,"x_min":111,"x_max":1357,"o":"m 1357 699 l 888 704 q 811 511 856 611 l 1311 500 l 1317 64 l 785 69 l 792 469 q 693 301 751 389 l 628 349 q 804 706 736 504 l 622 708 l 624 789 l 831 786 q 882 1001 858 885 l 960 986 q 911 785 936 869 l 1357 779 l 1357 699 m 622 939 q 442 739 553 838 l 453 58 l 374 57 l 365 675 q 149 538 257 590 l 111 611 q 359 777 240 678 q 558 989 478 876 l 622 939 m 1239 419 l 865 425 l 861 146 l 1242 140 l 1239 419 z "},"体":{"ha":1447,"x_min":111,"x_max":1336,"o":"m 1132 349 q 996 519 1058 429 l 999 278 l 1176 276 l 1178 196 l 999 199 l 1000 39 l 921 39 l 918 199 l 733 201 l 732 281 l 918 279 l 915 515 q 764 331 861 438 l 747 314 q 625 197 675 239 l 575 264 q 755 444 664 338 q 913 663 846 551 l 913 710 l 626 713 l 628 797 l 911 794 l 908 1000 l 989 999 l 992 793 l 1278 790 l 1278 707 l 993 710 l 993 658 q 1336 264 1149 419 l 1288 199 q 1151 325 1235 243 l 1132 349 m 624 947 q 439 743 544 839 l 450 67 l 372 64 l 364 681 q 149 543 267 603 l 111 615 q 357 783 240 685 q 560 996 474 881 l 624 947 z "},"何":{"ha":1475,"x_min":111,"x_max":1364,"o":"m 111 618 q 357 784 240 685 q 554 999 474 883 l 618 950 q 439 747 551 849 l 450 67 l 371 65 l 364 683 q 150 544 257 599 l 111 618 m 663 944 l 1364 938 l 1361 853 l 1239 854 l 1244 63 l 1163 63 l 1156 854 l 663 860 l 663 944 m 639 275 l 647 686 l 1036 679 l 1040 268 l 639 275 m 726 599 l 719 360 l 958 353 l 957 594 l 726 599 z "},"佘":{"ha":1236,"x_min":111,"x_max":1125,"o":"m 607 1107 q 863 838 724 972 q 1125 615 1003 703 l 1074 547 q 826 757 956 636 q 607 989 697 878 q 402 772 522 882 q 160 569 282 661 l 111 639 q 370 856 225 719 q 607 1107 515 993 m 335 624 l 338 707 l 876 696 l 876 613 l 335 624 m 561 365 l 215 369 l 217 451 l 990 443 l 990 361 l 640 365 l 646 -25 l 565 -24 l 561 365 m 236 56 q 347 289 304 164 l 421 261 q 306 17 379 129 l 236 56 m 856 281 q 919 160 888 225 q 971 42 951 94 l 900 13 q 786 244 860 114 l 856 281 z "},"余":{"ha":1240,"x_min":111,"x_max":1129,"o":"m 611 1092 q 866 830 726 961 q 1129 611 1006 699 l 1079 542 q 892 693 988 611 l 892 625 l 651 629 l 653 454 l 961 451 l 963 371 l 654 374 l 657 17 l 579 17 l 578 375 l 253 378 l 253 457 l 578 454 l 576 629 l 332 633 l 332 700 q 160 564 279 656 l 111 635 q 379 853 233 721 q 611 1092 525 985 m 878 704 q 611 974 710 850 q 347 713 519 857 l 878 704 m 265 100 q 386 308 335 196 l 456 272 q 331 53 406 160 l 265 100 m 854 306 q 989 96 928 208 l 918 57 q 790 261 874 144 l 854 306 z "},"佛":{"ha":1458,"x_min":111,"x_max":1350,"o":"m 1347 374 q 1332 78 1350 210 l 1256 86 q 1269 294 1264 149 l 1129 297 l 1132 -21 l 1051 -21 l 1049 300 l 883 303 q 835 -19 865 129 l 757 -3 q 806 306 788 133 l 610 310 l 621 675 l 825 675 q 828 871 828 806 l 621 875 l 621 957 l 828 954 l 828 1079 l 907 1079 l 907 953 l 1046 950 l 1044 1078 l 1124 1078 l 1125 949 l 1325 946 l 1331 594 l 1128 594 l 1129 379 l 1347 374 m 596 936 q 436 735 536 838 l 443 43 l 364 42 l 358 661 q 151 511 257 572 l 111 585 q 344 760 235 657 q 529 983 453 864 l 596 936 m 907 869 l 904 675 l 1047 675 l 1046 868 l 907 869 m 1126 675 l 1247 675 l 1244 864 l 1125 867 l 1126 675 m 901 593 q 890 385 896 457 l 1049 381 l 1047 594 l 901 593 m 692 390 l 813 388 q 824 593 818 454 l 697 593 l 692 390 z "},"作":{"ha":1435,"x_min":111,"x_max":1324,"o":"m 1324 761 l 1011 765 l 1013 578 l 1310 575 l 1311 494 l 1014 497 l 1014 354 l 1314 351 l 1314 271 l 1015 275 l 1017 33 l 935 35 l 932 765 l 775 768 q 706 553 749 663 l 628 583 q 746 1040 713 803 l 828 1028 q 796 850 817 946 l 1324 843 l 1324 761 m 111 621 q 356 786 242 690 q 558 996 471 882 l 622 947 q 440 749 543 840 l 450 65 l 372 64 l 364 685 q 147 547 267 608 l 111 621 z "},"你":{"ha":1433,"x_min":111,"x_max":1322,"o":"m 1008 760 l 1011 42 l 931 42 l 928 760 l 728 763 q 674 588 703 665 l 594 617 q 653 810 629 704 q 689 1018 678 915 l 771 1008 q 746 844 763 926 l 1308 842 q 1287 724 1301 778 q 1244 611 1272 671 l 1168 642 q 1213 757 1201 704 l 1008 760 m 599 947 q 429 731 538 839 l 439 47 l 361 46 l 353 657 q 154 510 256 569 l 111 582 q 347 764 236 657 q 532 990 458 871 l 599 947 m 611 204 q 675 356 646 272 q 722 517 704 439 l 799 496 q 753 331 783 418 q 686 171 724 244 l 611 204 m 1218 515 q 1278 356 1250 442 q 1322 193 1306 271 l 1244 174 q 1143 485 1207 333 l 1218 515 z "},"佣":{"ha":1489,"x_min":111,"x_max":1378,"o":"m 624 943 q 436 738 543 832 l 446 63 l 368 63 l 361 675 q 147 539 260 596 l 111 614 q 358 781 240 682 q 560 993 476 881 l 624 943 m 1297 54 l 1294 314 l 1065 317 l 1065 57 l 985 56 l 985 317 l 736 319 q 693 53 719 174 l 614 68 q 661 356 646 211 q 680 631 676 501 q 685 969 683 760 l 1367 964 l 1378 54 l 1297 54 m 986 889 l 763 890 q 760 682 763 749 l 986 679 l 986 889 m 1067 679 l 1290 676 l 1288 886 l 1067 888 l 1067 679 m 985 394 l 986 601 l 757 604 q 744 396 753 497 l 985 394 m 1067 601 l 1065 394 l 1293 393 l 1290 599 l 1067 601 z "},"佥":{"ha":1219,"x_min":111,"x_max":1108,"o":"m 596 974 q 394 758 518 881 q 158 551 269 636 l 111 618 q 343 824 244 725 q 551 1047 442 924 l 592 1092 q 851 833 731 947 q 1108 626 972 719 l 1061 558 q 596 974 844 708 m 896 658 l 896 579 l 308 586 l 310 667 l 896 658 m 560 229 q 514 483 547 367 l 589 503 q 638 240 625 382 l 560 229 m 732 174 q 804 331 776 261 q 856 482 832 400 l 931 456 q 879 299 908 371 q 803 138 850 226 l 732 174 m 360 194 q 274 440 326 326 l 344 469 q 433 218 404 347 l 360 194 m 979 122 l 979 43 l 226 50 l 228 131 l 979 122 z "},"佩":{"ha":1710,"x_min":111,"x_max":1599,"o":"m 1599 67 q 1569 65 1589 65 q 1471 93 1511 65 q 1393 239 1411 131 q 1375 499 1375 347 l 1375 907 l 767 917 q 751 462 767 672 q 692 57 735 251 l 614 71 q 673 494 660 299 q 686 997 686 689 l 1454 983 l 1454 536 q 1468 299 1454 411 q 1519 161 1482 186 q 1574 144 1543 144 q 1594 146 1586 144 l 1599 67 m 624 942 q 436 736 543 831 l 446 63 l 368 61 l 361 674 q 147 539 249 589 l 111 613 q 359 781 240 681 q 560 992 478 881 l 624 942 m 1111 714 l 1110 606 l 1296 600 l 1311 146 l 1235 146 l 1225 524 l 1108 526 l 1103 76 l 1022 76 l 1028 529 l 906 532 l 899 140 l 824 142 l 833 613 l 1029 607 l 1031 717 l 856 719 l 856 799 l 1276 790 l 1276 711 l 1111 714 z "},"佯":{"ha":1451,"x_min":111,"x_max":1340,"o":"m 1340 347 l 1340 267 l 1032 271 l 1035 13 l 960 14 l 957 272 l 644 276 l 646 358 l 956 353 l 954 519 l 694 524 l 699 606 l 953 603 l 951 776 l 669 781 l 671 861 l 824 858 q 764 1015 801 933 l 835 1046 q 908 857 878 956 l 1074 856 q 1118 950 1097 899 q 1150 1043 1139 1001 l 1221 1019 q 1161 854 1201 935 l 1313 851 l 1315 772 l 1026 776 l 1028 603 l 1292 600 l 1293 515 l 1029 519 l 1031 353 l 1340 347 m 111 618 q 358 785 240 685 q 556 999 475 885 l 619 950 q 433 742 549 844 l 446 71 l 368 69 l 360 679 q 149 543 254 597 l 111 618 z "},"佰":{"ha":1444,"x_min":111,"x_max":1333,"o":"m 111 613 q 358 780 240 681 q 557 993 476 879 l 621 944 q 435 738 556 847 l 447 63 l 368 63 l 360 675 q 149 538 247 588 l 111 613 m 1029 724 l 1324 718 l 1333 57 l 669 61 l 679 729 l 947 725 l 978 904 l 699 910 l 701 992 l 1304 979 l 1306 897 l 1056 903 l 1029 724 m 1251 428 l 1247 638 l 758 644 l 756 439 l 1251 428 m 754 354 l 750 142 l 1256 140 l 1253 346 l 754 354 z "},"佳":{"ha":1425,"x_min":111,"x_max":1314,"o":"m 1019 311 l 1021 111 l 1314 110 l 1314 25 l 650 29 l 651 114 l 939 113 l 936 313 l 700 317 l 699 401 l 935 397 l 933 550 l 649 554 l 650 638 l 932 633 l 933 810 l 701 813 l 701 899 l 935 894 l 936 1043 l 1017 1040 l 1015 894 l 1254 890 l 1254 806 l 1015 808 l 1014 633 l 1297 629 l 1299 546 l 1017 550 l 1018 397 l 1250 393 l 1251 307 l 1019 311 m 111 615 q 357 783 240 683 q 553 996 474 882 l 618 947 q 436 742 551 846 l 447 63 l 368 61 l 361 679 q 147 543 257 596 l 111 615 z "},"佼":{"ha":1438,"x_min":111,"x_max":1326,"o":"m 1024 911 l 1310 908 l 1310 832 l 654 835 l 654 914 l 943 911 l 946 1040 l 1026 1036 l 1024 911 m 111 614 q 358 781 240 682 q 556 996 475 881 l 621 946 q 440 744 554 847 l 451 65 l 374 64 l 365 681 q 147 540 256 593 l 111 614 m 879 757 q 703 476 818 618 l 636 526 q 808 793 732 638 l 879 757 m 1156 793 q 1326 522 1254 671 l 1257 482 q 1090 746 1186 625 l 1156 793 m 1172 506 q 1044 271 1117 371 q 1286 96 1153 164 l 1250 24 q 993 207 1107 97 q 750 17 893 94 l 711 89 q 936 268 843 161 q 782 504 842 374 l 854 540 q 988 333 907 429 q 1097 539 1046 417 l 1172 506 z "},"使":{"ha":1406,"x_min":111,"x_max":1294,"o":"m 1003 422 q 951 261 989 329 q 1285 124 1097 174 l 1267 46 q 907 194 1067 100 q 732 47 851 128 l 690 117 q 839 240 790 183 q 699 360 764 294 l 749 417 q 883 306 803 364 q 922 424 910 360 l 661 426 l 667 761 l 942 756 l 942 868 l 692 871 l 693 949 l 942 946 l 942 1044 l 1018 1046 l 1018 946 l 1265 943 l 1265 865 l 1018 868 l 1018 826 l 1019 753 l 1289 747 l 1294 418 l 1003 422 m 111 617 q 358 785 243 688 q 556 997 474 882 l 621 949 q 440 747 551 847 l 451 65 l 374 64 l 365 683 q 147 543 257 599 l 111 617 m 738 503 l 933 500 q 942 678 939 554 l 738 682 l 738 503 m 1217 496 l 1215 672 l 1019 676 q 1013 499 1019 585 l 1217 496 z "},"侄":{"ha":1401,"x_min":111,"x_max":1290,"o":"m 606 958 q 431 744 535 846 l 440 65 l 363 65 l 356 675 q 154 531 257 589 l 111 603 q 349 781 235 675 q 539 1003 464 888 l 606 958 m 1001 142 l 1290 139 l 1290 56 l 633 63 l 633 146 l 919 143 l 915 317 l 689 319 l 688 408 l 914 404 l 911 557 l 668 553 l 794 886 l 643 888 l 643 972 l 1286 965 l 1288 881 l 878 885 l 785 635 l 1139 640 q 1069 771 1097 722 l 1139 808 q 1275 519 1207 693 l 1200 489 q 1174 561 1194 507 l 993 558 l 996 404 l 1219 400 l 1221 314 l 997 317 l 1001 142 z "},"來":{"ha":1138,"x_min":111,"x_max":1026,"o":"m 610 439 q 1011 100 817 219 l 967 31 q 784 162 878 85 q 610 322 690 239 l 613 -42 l 529 -42 l 526 324 q 351 168 447 243 q 160 36 256 93 l 117 110 q 526 435 331 239 l 524 819 l 111 824 l 113 907 l 524 901 l 522 1057 l 606 1057 l 607 901 l 1019 896 l 1021 815 l 607 819 l 610 439 m 915 763 q 882 594 908 664 q 1026 447 975 508 l 969 393 q 846 521 933 442 q 736 397 807 454 l 681 458 q 768 551 738 507 q 812 645 799 596 q 832 772 825 694 l 915 763 m 357 757 q 324 597 349 663 l 358 569 q 443 496 419 519 l 394 435 q 289 522 361 465 q 174 396 249 454 l 118 457 q 231 589 197 522 q 275 767 264 656 l 357 757 z "},"侈":{"ha":1456,"x_min":111,"x_max":1344,"o":"m 1344 460 q 1154 176 1275 289 q 839 -35 1033 64 l 803 36 q 1060 201 953 110 l 885 346 q 811 267 851 307 l 754 324 q 990 629 869 436 q 656 397 869 507 l 619 469 q 871 629 771 544 l 701 768 q 628 693 667 729 l 571 751 q 697 889 640 814 q 817 1063 753 964 l 1161 894 q 999 638 1106 750 l 1344 460 m 624 943 q 442 742 549 836 l 453 58 l 375 58 l 365 678 q 149 539 251 588 l 111 613 q 358 778 240 679 q 558 993 476 878 l 624 943 m 928 681 q 1053 853 1014 764 l 844 956 q 751 825 815 903 l 928 681 m 1118 254 q 1235 419 1194 332 l 1025 532 q 933 404 989 471 l 1118 254 z "},"例":{"ha":1599,"x_min":111,"x_max":1488,"o":"m 542 949 q 410 744 486 843 l 415 58 l 338 58 l 335 654 q 163 492 250 560 l 111 557 q 471 992 324 726 l 542 949 m 575 907 l 579 988 l 1072 979 l 1071 899 l 771 904 q 749 742 758 800 l 1036 721 q 991 384 1029 538 q 875 54 953 231 l 804 86 q 907 390 869 240 l 685 454 q 657 361 675 415 l 583 385 q 693 906 660 604 l 575 907 m 1396 976 l 1478 976 l 1488 65 l 1407 67 l 1396 976 m 1219 315 l 1136 315 l 1143 886 l 1225 885 l 1219 315 m 926 469 q 951 646 944 558 l 733 663 q 704 529 721 594 l 926 469 z "},"侍":{"ha":1425,"x_min":111,"x_max":1314,"o":"m 1314 579 l 1139 581 l 1142 429 l 1293 426 l 1293 346 l 1143 349 l 1147 13 l 1069 13 l 1065 350 l 671 356 l 671 436 l 1064 431 l 1061 582 l 653 585 l 653 667 l 943 663 l 944 836 l 715 840 l 717 921 l 946 917 l 947 1071 l 1026 1069 l 1026 915 l 1257 911 l 1257 831 l 1025 835 l 1025 661 l 1313 657 l 1314 579 m 111 606 q 358 774 242 675 q 556 988 475 874 l 621 938 q 438 733 549 832 l 447 57 l 369 56 l 361 669 q 147 532 256 585 l 111 606 m 803 299 q 974 124 882 231 l 917 69 q 750 242 850 151 l 803 299 z "},"侗":{"ha":1508,"x_min":111,"x_max":1397,"o":"m 590 964 q 421 738 528 849 l 432 61 l 353 60 l 346 664 q 154 517 256 581 l 111 588 q 343 777 235 667 q 521 1008 451 888 l 590 964 m 646 979 l 1389 971 l 1397 43 l 1317 43 l 1313 888 l 721 896 l 717 43 l 636 42 l 646 979 m 819 671 l 819 757 l 1215 750 l 1215 665 l 819 671 m 808 164 l 815 546 l 1217 539 l 1225 161 l 808 164 m 897 458 l 893 249 l 1140 243 l 1138 454 l 897 458 z "},"供":{"ha":1525,"x_min":111,"x_max":1414,"o":"m 1231 421 l 1410 418 l 1414 335 l 618 343 l 618 428 l 792 425 l 794 754 l 647 756 l 649 836 l 796 835 l 797 1028 l 874 1026 l 872 833 l 1147 831 l 1146 1024 l 1224 1022 l 1226 829 l 1389 828 l 1390 746 l 1226 749 l 1231 421 m 111 618 q 355 788 239 689 q 551 999 471 886 l 617 950 q 439 751 546 847 l 450 67 l 372 65 l 364 688 q 149 543 263 604 l 111 618 m 1149 749 l 872 753 l 869 425 l 1151 421 l 1149 749 m 688 82 q 829 269 756 154 l 896 228 q 827 126 867 179 q 750 31 788 72 l 688 82 m 1193 269 q 1343 78 1264 200 l 1278 33 q 1133 219 1219 126 l 1193 269 z "},"依":{"ha":1563,"x_min":111,"x_max":1451,"o":"m 1057 732 q 871 571 988 654 l 872 58 l 799 58 l 797 521 q 615 424 704 464 l 582 497 q 797 616 693 544 q 986 776 901 688 l 626 778 l 628 860 l 978 856 l 979 1003 l 1061 1000 l 1058 854 l 1410 850 l 1410 774 l 1013 776 l 1057 732 m 619 950 q 442 747 554 850 l 451 67 l 374 67 l 365 683 q 149 544 264 601 l 111 618 q 359 785 242 686 q 557 999 476 885 l 619 950 m 1233 354 q 1451 122 1325 211 l 1406 58 q 1174 298 1268 154 q 1025 617 1079 442 l 1096 644 q 1192 422 1135 526 q 1394 578 1317 504 l 1444 514 q 1233 354 1343 426 z "},"侠":{"ha":1499,"x_min":111,"x_max":1388,"o":"m 1388 464 l 1388 382 l 1082 386 q 1197 219 1118 307 q 1364 81 1275 132 l 1324 11 q 1135 157 1215 75 q 1017 332 1054 239 q 906 164 979 240 q 725 21 832 88 l 681 92 q 835 219 764 142 q 949 388 907 296 l 649 392 l 649 476 l 972 471 l 972 858 l 682 863 l 683 943 l 972 939 l 972 1085 l 1058 1085 l 1060 939 l 1356 935 l 1357 853 l 1060 857 l 1063 469 l 1388 464 m 111 611 q 359 774 240 675 q 557 990 478 874 l 622 939 q 438 733 556 840 l 447 58 l 368 57 l 363 671 q 149 538 257 589 l 111 611 m 786 806 q 883 539 847 675 l 810 518 q 715 779 776 642 l 786 806 m 1154 539 q 1240 796 1206 665 l 1315 776 q 1226 510 1286 646 l 1154 539 z "},"侣":{"ha":1418,"x_min":111,"x_max":1307,"o":"m 111 619 q 358 789 239 688 q 556 1001 478 890 l 621 951 q 433 743 551 850 l 443 71 l 365 68 l 358 681 q 147 546 260 603 l 111 619 m 719 982 l 1222 974 l 1231 574 l 715 576 l 719 982 m 797 900 l 793 654 l 1154 651 l 1150 893 l 797 900 m 650 472 l 1300 460 l 1307 31 l 642 38 l 650 472 m 725 389 l 722 115 l 1228 110 l 1225 382 l 725 389 z "},"侥":{"ha":1500,"x_min":111,"x_max":1389,"o":"m 656 868 l 653 946 l 890 960 q 874 1086 881 1017 l 954 1093 q 972 964 961 1017 l 1297 982 l 1303 904 l 992 886 q 1089 701 1025 774 q 1249 819 1161 746 l 1299 761 q 1146 644 1226 697 q 1311 554 1210 593 l 1278 482 q 1072 601 1157 529 q 903 532 993 560 q 694 482 813 504 l 678 557 q 1015 661 882 596 q 907 882 944 747 l 656 868 m 601 932 q 431 718 540 828 l 442 38 l 364 36 l 356 650 q 153 506 254 561 l 111 575 q 351 756 239 651 q 536 976 463 860 l 601 932 m 1389 -1 q 1272 -4 1325 -6 q 1110 60 1160 -3 q 1060 242 1060 122 l 1061 346 l 876 350 q 836 157 867 243 q 747 -14 806 71 l 682 32 q 762 183 735 108 q 799 351 789 257 l 621 356 l 621 435 l 1340 419 l 1340 339 l 1138 343 l 1138 247 q 1149 149 1136 185 q 1199 95 1163 113 q 1303 76 1235 78 l 1335 75 q 1382 78 1351 75 l 1389 -1 z "},"侦":{"ha":1397,"x_min":111,"x_max":1286,"o":"m 972 1049 l 972 938 l 1286 935 l 1286 857 l 974 858 l 974 746 l 1249 743 l 1256 236 l 1178 236 l 1171 660 l 721 665 l 718 238 l 638 238 l 642 750 l 894 747 l 893 1050 l 972 1049 m 111 613 q 358 778 242 679 q 556 993 475 878 l 621 944 q 435 736 549 838 l 444 63 l 367 63 l 358 672 q 149 539 256 590 l 111 613 m 1003 319 q 1090 166 1024 224 q 1268 68 1156 108 l 1238 -7 q 1055 91 1125 33 q 944 231 985 149 q 660 -4 875 74 l 631 71 q 801 169 739 113 q 888 319 864 225 q 904 421 901 375 q 907 589 907 467 l 988 589 l 988 476 q 990 390 988 421 q 1003 319 993 358 z "},"侧":{"ha":1599,"x_min":111,"x_max":1488,"o":"m 546 950 q 407 733 489 836 l 413 57 l 335 58 l 331 644 q 161 490 253 561 l 111 556 q 474 989 342 738 l 546 950 m 1394 964 l 1474 964 l 1488 53 l 1408 54 l 1394 964 m 964 860 l 671 863 l 664 293 l 585 293 l 593 942 l 1042 936 l 1049 293 l 969 293 l 964 860 m 1233 279 l 1156 282 l 1158 876 l 1238 875 l 1233 279 m 865 376 q 1061 114 885 199 l 1025 43 q 818 272 856 128 q 596 40 769 119 l 563 111 q 768 374 749 197 q 777 500 775 433 q 779 675 779 567 l 779 768 l 856 768 q 857 528 856 604 q 865 376 858 451 z "},"侨":{"ha":1481,"x_min":111,"x_max":1369,"o":"m 1174 633 q 1363 400 1253 492 l 1307 336 q 1186 464 1239 399 l 1197 -6 l 1117 -7 l 1107 488 l 1168 488 q 1078 633 1117 557 l 896 633 q 797 508 854 568 q 651 375 739 447 l 603 443 q 794 633 725 539 l 596 635 l 596 717 l 846 715 q 929 896 879 772 q 704 882 831 886 l 700 965 q 986 985 854 968 q 1257 1040 1118 1003 l 1275 960 q 1021 907 1149 926 q 940 715 978 789 l 1367 713 l 1369 632 l 1174 633 m 607 939 q 429 725 539 831 l 440 46 l 361 46 l 354 657 q 151 515 253 569 l 111 586 q 350 763 236 658 q 540 985 464 868 l 607 939 m 707 35 q 758 243 744 153 q 771 469 771 333 l 850 468 q 836 229 850 324 q 782 10 822 135 l 707 35 z "},"侮":{"ha":1514,"x_min":111,"x_max":1403,"o":"m 624 700 q 764 1047 717 854 l 842 1028 q 804 897 825 960 l 1336 889 l 1338 808 l 774 819 q 696 658 744 749 l 624 700 m 624 954 q 438 753 544 847 l 447 74 l 369 72 l 363 690 q 149 553 256 607 l 111 626 q 358 794 239 694 q 558 1004 478 893 l 624 954 m 1299 350 q 1283 168 1294 294 l 1378 167 l 1378 88 l 1275 89 l 1263 -19 l 1188 -12 q 1199 90 1196 60 l 697 97 l 713 360 l 613 363 l 614 440 l 717 438 l 732 713 l 1313 694 q 1304 428 1313 603 l 1399 425 l 1403 347 l 1299 350 m 806 628 l 794 438 l 1228 429 q 1235 617 1232 490 l 806 628 m 1067 442 q 919 538 986 499 l 960 604 q 1044 551 1013 572 q 1108 506 1076 531 l 1067 442 m 778 176 l 1207 169 q 1218 289 1215 244 l 1224 350 l 789 358 l 778 176 m 950 346 q 1100 250 1019 310 l 1056 183 q 911 282 1004 225 l 950 346 z "},"侯":{"ha":1410,"x_min":111,"x_max":1299,"o":"m 1285 356 l 1286 278 l 1040 282 q 1111 169 1058 215 q 1264 67 1164 122 l 1226 -3 q 981 218 1042 93 q 885 93 956 151 q 738 -3 815 35 l 701 67 q 841 159 786 108 q 924 283 896 210 l 658 288 l 658 367 l 939 361 q 944 528 944 407 l 771 531 q 729 436 753 482 l 658 468 q 747 718 706 572 l 646 719 l 646 796 l 1122 789 l 1119 958 l 731 967 l 729 1046 l 1193 1036 l 1199 788 l 1294 786 l 1299 707 l 828 715 q 797 604 818 667 l 1236 599 l 1238 522 l 1024 526 q 1026 360 1024 471 l 1285 356 m 111 604 q 366 776 250 678 q 557 985 482 874 l 622 936 q 436 728 549 825 l 444 56 l 368 54 l 360 664 q 149 531 257 585 l 111 604 z "},"侵":{"ha":1424,"x_min":111,"x_max":1313,"o":"m 729 1099 l 1235 1086 l 1246 653 l 728 658 l 728 738 l 1165 732 l 1163 835 l 749 840 l 751 918 l 1161 910 l 1158 1010 l 728 1019 l 729 1099 m 111 617 q 358 785 240 685 q 554 999 475 885 l 618 950 q 438 744 550 849 l 449 67 l 369 65 l 361 681 q 147 543 256 596 l 111 617 m 656 569 l 1307 557 l 1313 371 l 1239 372 l 1236 483 l 725 490 l 724 383 l 650 383 l 656 569 m 1201 369 q 1061 101 1196 213 q 1233 33 1139 61 l 1211 -37 q 989 51 1093 -10 q 774 -37 903 -1 l 753 35 q 917 101 832 58 q 810 224 850 156 q 769 372 771 292 l 775 388 l 1194 375 l 1201 369 m 860 301 q 986 143 881 217 q 1108 296 1090 215 l 860 301 z "},"便":{"ha":1439,"x_min":111,"x_max":1326,"o":"m 1029 343 q 975 208 1015 269 q 1319 86 1131 124 l 1304 11 q 921 143 1094 47 q 710 10 839 61 l 678 83 q 849 186 794 138 q 721 278 781 231 l 772 343 q 901 250 832 293 q 943 344 925 288 l 679 347 l 686 856 l 963 851 l 963 974 l 708 976 l 708 1056 l 1296 1049 l 1296 969 l 1043 972 l 1043 851 l 1318 847 l 1326 339 l 1029 343 m 111 614 q 358 781 240 681 q 554 994 475 881 l 619 946 q 435 739 547 840 l 446 63 l 367 63 l 360 676 q 149 540 257 594 l 111 614 m 963 772 l 763 776 l 760 643 l 963 640 l 963 772 m 1043 639 l 1246 636 l 1244 767 l 1043 771 l 1043 639 m 760 564 l 757 426 l 954 424 q 961 561 961 490 l 760 564 m 1249 419 l 1247 557 l 1042 560 q 1038 422 1042 479 l 1249 419 z "},"促":{"ha":1438,"x_min":111,"x_max":1326,"o":"m 1324 51 q 1039 92 1188 58 q 761 176 890 125 q 719 31 744 100 l 640 57 q 690 238 671 140 q 711 428 708 336 l 792 422 q 776 256 786 311 q 946 199 867 222 l 944 583 l 697 585 l 704 1024 l 1251 1018 l 1260 581 l 1022 582 l 1022 414 l 1257 410 l 1257 332 l 1022 333 l 1022 178 q 1326 129 1186 135 l 1324 51 m 111 611 q 360 780 243 681 q 557 994 478 879 l 622 943 q 442 742 551 838 l 451 61 l 374 61 l 365 676 q 147 538 260 594 l 111 611 m 1171 935 l 782 939 l 779 672 l 1176 667 l 1171 935 z "},"俄":{"ha":1561,"x_min":111,"x_max":1449,"o":"m 544 957 q 408 743 493 853 l 414 64 l 335 65 l 331 651 q 161 496 249 563 l 111 563 q 313 758 217 644 q 472 997 410 872 l 544 957 m 1449 588 l 1200 589 q 1272 372 1228 465 q 1356 519 1326 449 l 1432 481 q 1317 290 1385 374 l 1326 275 l 1343 250 q 1442 121 1389 181 l 1382 63 q 1258 224 1304 149 q 1043 67 1160 124 l 1003 143 q 1215 303 1115 197 q 1119 589 1151 428 l 847 592 l 853 369 l 1038 403 l 1054 319 q 854 281 935 293 l 860 51 l 779 51 l 775 268 q 582 244 668 251 l 568 329 q 772 357 625 335 l 768 592 l 553 593 l 553 681 l 765 679 l 761 869 q 589 847 706 861 l 578 929 q 976 994 826 956 l 997 915 q 840 882 926 897 l 846 679 l 1104 678 q 1079 915 1092 761 l 1076 944 l 1157 949 q 1185 676 1174 756 l 1449 675 l 1449 588 m 1344 736 q 1243 910 1282 850 l 1310 947 q 1411 772 1361 872 l 1344 736 z "},"俊":{"ha":1357,"x_min":111,"x_max":1244,"o":"m 742 696 l 724 696 l 640 694 l 822 1076 l 897 1043 l 769 775 l 1108 778 q 1058 897 1090 825 l 1129 929 q 1244 632 1192 807 l 1169 607 q 1135 701 1164 624 l 1029 699 l 1017 699 l 742 696 m 622 942 q 438 742 549 840 l 447 64 l 368 63 l 361 678 q 149 542 261 600 l 111 615 q 358 782 238 682 q 558 993 478 882 l 622 942 m 1174 536 l 1243 444 l 1185 396 q 986 624 1078 535 l 1040 681 q 1158 553 1122 596 l 1174 536 m 769 508 q 681 392 725 443 l 617 440 q 779 678 706 542 l 847 642 q 775 517 815 582 l 769 508 m 1136 426 q 1014 169 1108 271 q 1207 81 1106 111 l 1182 7 q 953 115 1072 38 q 743 10 867 51 l 718 83 q 885 164 818 119 q 801 242 842 199 l 850 299 q 949 214 900 251 q 1042 365 1019 285 l 831 417 q 742 196 800 318 l 672 228 q 725 349 700 286 q 783 508 750 413 l 1136 426 z "},"俏":{"ha":1393,"x_min":111,"x_max":1282,"o":"m 1282 31 l 1201 31 l 1199 196 l 728 200 l 725 29 l 646 32 l 661 721 l 924 717 l 931 1035 l 1008 1033 l 1003 717 l 1267 713 l 1282 31 m 774 729 q 674 968 735 854 l 746 1000 q 844 753 810 869 l 774 729 m 1238 965 q 1138 715 1201 836 l 1067 751 q 1163 988 1128 872 l 1238 965 m 111 582 q 356 754 240 653 q 549 972 471 856 l 613 925 q 432 711 546 819 l 442 39 l 364 38 l 357 646 q 151 511 251 563 l 111 582 m 1194 497 l 1193 629 l 736 635 l 733 503 l 1194 497 m 732 418 l 729 285 l 1197 281 l 1196 411 l 732 418 z "},"俐":{"ha":1563,"x_min":111,"x_max":1451,"o":"m 543 953 q 407 739 492 849 l 413 60 l 333 60 l 331 649 q 163 493 258 571 l 111 560 q 310 755 214 639 q 469 994 407 871 l 543 953 m 840 668 l 1047 665 l 1047 586 l 840 588 l 842 524 q 934 434 885 486 q 1015 338 983 382 l 958 283 q 843 415 883 375 l 847 63 l 769 64 l 767 381 q 608 175 672 244 l 549 231 q 660 367 600 283 q 765 526 721 451 l 764 589 l 549 590 l 550 671 l 764 668 l 761 857 q 597 831 650 838 l 585 913 q 983 992 822 946 l 1006 913 q 836 872 911 889 l 840 668 m 1360 982 l 1442 982 l 1451 71 l 1371 71 l 1360 982 m 1185 318 l 1101 319 l 1110 892 l 1192 889 l 1185 318 z "},"俑":{"ha":1410,"x_min":111,"x_max":1299,"o":"m 1219 42 l 1217 192 l 999 196 l 1000 40 l 919 42 l 918 196 l 710 200 l 708 39 l 628 39 l 636 711 l 996 707 q 814 801 893 767 l 844 869 q 960 817 892 853 q 1033 875 1001 843 q 1069 938 1065 907 l 721 944 l 721 1025 l 1171 1015 q 1033 776 1167 879 q 1107 729 1081 749 l 1094 706 l 1285 704 l 1299 42 l 1219 42 m 111 611 q 360 778 242 679 q 560 990 478 878 l 624 940 q 438 736 550 835 l 447 61 l 368 60 l 361 672 q 147 538 249 588 l 111 611 m 918 496 l 917 624 l 713 625 l 711 499 l 918 496 m 997 494 l 1211 492 l 1208 621 l 996 622 l 997 494 m 711 415 l 710 281 l 918 278 l 918 414 l 711 415 m 997 413 l 999 278 l 1215 275 l 1213 411 l 997 413 z "},"俗":{"ha":1474,"x_min":111,"x_max":1363,"o":"m 111 617 q 358 783 240 685 q 556 997 475 882 l 618 947 q 442 747 553 847 l 453 61 l 375 61 l 367 683 q 150 543 261 599 l 111 617 m 904 942 q 815 840 867 892 q 708 747 763 788 l 658 808 q 844 993 751 882 l 904 942 m 1269 744 q 1099 942 1183 861 l 1154 993 q 1332 792 1238 917 l 1269 744 m 1315 336 l 1221 421 l 1225 47 l 761 54 l 769 425 q 678 350 724 386 l 631 413 q 997 771 826 564 q 1363 399 1178 553 l 1315 336 m 1217 425 q 997 658 1068 561 q 782 436 914 550 l 1217 425 m 843 351 l 840 131 l 1147 126 l 1146 346 l 843 351 z "},"俘":{"ha":1440,"x_min":111,"x_max":1329,"o":"m 1294 1003 q 685 944 1011 949 l 682 1024 q 1279 1081 1008 1031 l 1294 1003 m 111 604 q 360 771 243 672 q 557 985 476 869 l 621 935 q 435 728 553 832 l 446 54 l 368 54 l 360 665 q 149 529 250 581 l 111 604 m 1068 403 q 1163 524 1140 464 l 668 528 l 668 613 l 1104 607 l 1046 658 q 1219 928 1158 775 l 1292 896 q 1212 743 1260 818 q 1107 607 1164 668 l 1263 604 q 1220 460 1256 522 q 1125 344 1185 397 l 1068 403 m 924 706 l 919 742 q 894 903 906 856 l 969 914 q 999 713 992 819 l 924 706 m 747 686 q 703 881 731 776 l 775 897 q 822 700 804 811 l 747 686 m 1329 247 l 1329 163 l 1047 167 q 1038 -31 1051 81 l 954 -26 q 964 124 964 50 q 963 168 964 154 l 642 174 l 642 256 l 956 251 q 910 413 940 339 l 988 443 q 1040 251 1028 351 l 1329 247 z "},"保":{"ha":1442,"x_min":111,"x_max":1331,"o":"m 1293 78 q 1035 267 1122 181 l 1036 33 l 961 33 l 960 264 q 699 85 851 168 l 663 154 q 819 253 742 197 q 960 368 897 308 l 960 404 l 679 408 l 679 486 l 958 482 l 957 614 l 732 617 l 739 1031 l 1247 1021 l 1258 610 l 1031 613 l 1033 481 l 1311 476 l 1311 400 l 1033 404 l 1035 368 q 1331 144 1154 253 l 1293 78 m 111 613 q 356 779 238 679 q 557 990 475 879 l 621 940 q 442 744 549 842 l 451 60 l 372 58 l 365 679 q 147 540 257 594 l 111 613 m 1174 942 l 811 949 l 807 693 l 1179 686 l 1174 942 z "},"俞":{"ha":1265,"x_min":111,"x_max":1154,"o":"m 632 1140 q 876 931 742 1035 q 1154 743 1011 828 l 1113 674 q 851 851 997 742 q 632 1033 704 961 q 412 844 550 949 q 154 668 274 740 l 111 736 q 390 926 251 819 q 632 1140 528 1033 m 949 688 l 335 699 l 335 782 l 949 769 l 949 688 m 194 -4 l 214 593 l 619 585 l 632 -7 l 556 -6 l 554 111 l 274 117 l 269 -7 l 194 -4 m 1003 -19 l 988 592 l 1063 592 l 1081 -18 l 1003 -19 m 550 386 l 549 506 l 286 511 l 282 392 l 550 386 m 821 133 l 746 138 l 747 507 l 824 506 l 821 133 m 279 313 l 276 193 l 553 189 l 551 307 l 279 313 z "},"信":{"ha":1415,"x_min":111,"x_max":1304,"o":"m 1046 1064 l 1043 936 l 1304 931 l 1304 846 l 693 856 l 693 943 l 963 938 l 965 1068 l 1046 1064 m 111 621 q 356 789 238 689 q 557 1000 475 889 l 619 950 q 439 751 546 846 l 450 69 l 372 68 l 364 689 q 149 547 256 601 l 111 621 m 785 668 l 785 750 l 1214 740 l 1214 660 l 785 668 m 1217 483 l 781 488 l 781 572 l 1215 564 l 1217 483 m 736 31 l 742 394 l 1261 382 l 1264 25 l 736 31 m 819 113 l 1179 107 l 1179 301 l 822 310 l 819 113 z "},"俩":{"ha":1481,"x_min":111,"x_max":1369,"o":"m 601 938 q 432 738 533 835 l 440 61 l 363 60 l 356 671 q 149 533 256 588 l 111 604 q 349 771 239 674 q 536 983 458 868 l 601 938 m 1369 63 l 1292 63 l 1288 336 l 1228 285 q 1178 344 1203 315 q 1125 399 1153 374 q 1014 211 1092 314 l 953 261 q 1049 419 1018 342 q 1090 601 1079 497 l 888 604 q 867 493 882 549 q 989 367 936 435 l 931 315 q 839 415 897 358 q 714 231 796 319 l 664 275 l 663 64 l 586 64 l 592 688 l 817 685 q 821 842 821 756 l 633 842 l 633 921 l 1339 918 l 1339 840 l 1179 840 l 1175 679 l 1360 676 l 1369 63 m 1096 681 q 1100 840 1100 751 l 900 842 q 894 683 897 735 l 1096 681 m 664 293 q 763 438 729 365 q 808 606 796 511 l 667 608 l 664 293 m 1151 482 q 1219 418 1192 449 q 1288 338 1247 388 l 1285 599 l 1169 600 q 1151 482 1163 533 z "},"俭":{"ha":1496,"x_min":111,"x_max":1385,"o":"m 953 1057 q 1385 631 1104 878 l 1338 567 q 957 935 1100 776 q 608 565 814 747 l 557 628 q 953 1057 779 818 m 615 925 q 433 719 540 817 l 446 46 l 367 44 l 358 656 q 149 519 260 575 l 111 593 q 356 761 240 663 q 551 974 471 860 l 615 925 m 1211 543 l 731 550 l 733 628 l 1211 622 l 1211 543 m 926 194 q 890 453 914 347 l 965 467 q 1003 204 994 338 l 926 194 m 1086 132 q 1144 290 1122 218 q 1183 450 1165 363 l 1257 433 q 1222 275 1244 350 q 1158 106 1199 200 l 1086 132 m 750 157 q 683 410 729 272 l 756 435 q 822 176 806 299 l 750 157 m 1289 8 l 653 17 l 654 96 l 1289 88 l 1289 8 z "},"修":{"ha":1418,"x_min":111,"x_max":1307,"o":"m 1283 490 q 1021 613 1140 535 q 751 489 914 540 l 726 567 q 949 665 844 603 q 806 813 863 735 l 867 863 q 1018 713 929 779 q 1174 906 1133 800 l 824 911 q 750 731 794 821 l 674 764 q 741 933 713 842 q 782 1111 769 1024 l 864 1097 q 844 993 853 1029 l 1283 986 q 1092 664 1244 794 q 1307 565 1204 593 l 1283 490 m 544 954 q 407 743 490 847 l 413 64 l 333 64 l 331 654 q 163 497 243 561 l 111 563 q 313 761 221 650 q 474 996 406 872 l 544 954 m 529 151 l 522 746 l 601 744 l 607 153 l 529 151 m 1135 476 q 892 383 1017 414 l 868 457 q 1097 549 1008 500 l 1135 476 m 857 263 q 1175 383 1050 319 l 1207 308 q 881 186 1038 226 l 857 263 m 831 64 q 1261 224 1074 121 l 1294 153 q 1081 56 1203 101 q 851 -12 960 11 l 831 64 z "},"俯":{"ha":1544,"x_min":111,"x_max":1433,"o":"m 1035 776 q 903 615 979 693 l 899 32 l 826 33 l 829 546 q 706 454 771 496 l 675 508 q 632 133 663 311 l 554 149 q 599 508 589 326 q 610 932 610 690 l 967 929 l 967 1054 l 1049 1051 l 1047 928 l 1418 925 l 1419 847 l 685 854 q 676 528 685 690 q 974 821 844 636 l 1035 776 m 542 951 q 411 742 492 846 l 418 57 l 339 58 l 335 651 q 163 490 260 567 l 111 556 q 312 753 215 639 q 471 992 408 868 l 542 951 m 1318 596 l 1433 593 l 1433 517 l 1318 518 l 1319 33 l 1247 33 l 1246 519 l 975 524 l 978 601 l 1246 596 l 1244 786 l 1318 786 l 1318 596 m 1067 443 q 1201 228 1135 353 l 1133 189 q 1003 399 1060 324 l 1067 443 z "},"俱":{"ha":1490,"x_min":111,"x_max":1379,"o":"m 1272 1050 l 1285 281 l 1379 279 l 1379 200 l 590 208 l 590 286 l 686 285 l 693 1057 l 1272 1050 m 619 972 q 442 771 550 869 l 450 86 l 371 86 l 363 706 q 147 567 258 625 l 111 626 q 360 803 243 703 q 557 1018 478 904 l 619 972 m 1196 860 l 1194 974 l 769 979 l 769 865 l 1196 860 m 768 788 l 768 672 l 1199 668 l 1197 785 l 768 788 m 1201 475 l 1200 592 l 767 596 l 767 479 l 1201 475 m 1203 397 l 767 404 l 765 285 l 1206 281 l 1203 397 m 701 31 q 759 101 728 60 q 810 175 790 142 l 871 132 q 819 56 851 99 q 758 -18 786 13 l 701 31 m 1150 172 q 1272 31 1242 75 l 1215 -18 q 1094 119 1171 40 l 1150 172 z "},"俺":{"ha":1511,"x_min":111,"x_max":1400,"o":"m 1197 857 q 1289 707 1236 781 q 1400 578 1342 633 l 1350 525 q 1271 611 1296 579 l 1278 218 l 1044 219 q 1089 128 1054 157 q 1192 100 1124 100 q 1279 103 1224 100 l 1282 28 q 1196 24 1257 24 q 1034 73 1083 24 q 971 221 985 122 l 721 222 l 725 619 q 654 538 688 574 l 600 590 q 799 863 714 714 l 635 865 l 635 939 l 836 936 q 888 1063 871 1010 l 958 1038 q 918 935 942 993 l 1349 929 l 1350 854 l 1197 857 m 621 936 q 443 736 547 829 l 454 53 l 375 53 l 368 672 q 147 532 260 585 l 111 606 q 359 773 242 675 q 557 985 476 871 l 621 936 m 1035 679 l 1221 676 q 1115 858 1153 772 l 885 861 q 774 683 833 764 l 961 681 l 961 789 l 1035 788 l 1035 679 m 961 604 l 794 607 l 794 482 l 961 479 l 961 604 m 1201 601 l 1035 604 l 1035 479 l 1203 476 l 1201 601 m 794 406 l 794 293 l 965 293 l 963 403 l 794 406 m 1206 292 l 1204 400 l 1036 403 q 1039 292 1036 367 l 1206 292 z "},"倍":{"ha":1493,"x_min":111,"x_max":1382,"o":"m 1382 606 l 1382 524 l 669 533 l 669 614 l 806 613 q 786 904 806 754 l 682 906 l 683 986 l 982 982 l 982 1088 l 1060 1086 l 1060 981 l 1351 976 l 1351 896 l 1250 897 q 1222 607 1243 753 l 1382 606 m 111 606 q 358 773 240 674 q 558 986 476 872 l 621 938 q 439 733 554 838 l 450 54 l 372 53 l 364 671 q 149 532 264 590 l 111 606 m 865 903 q 885 611 879 768 l 1143 608 q 1174 899 1163 732 l 865 903 m 763 32 l 774 438 l 1289 426 l 1294 28 l 763 32 m 851 351 l 843 111 l 1211 107 l 1208 343 l 851 351 z "},"倒":{"ha":1567,"x_min":111,"x_max":1456,"o":"m 544 954 q 407 740 493 851 l 411 63 l 333 63 l 329 650 q 161 494 250 565 l 111 561 q 311 758 214 643 q 472 996 408 872 l 544 954 m 615 574 l 690 900 l 578 901 l 578 982 l 1056 976 l 1057 894 l 767 899 l 710 649 l 936 654 q 903 760 928 683 l 976 786 q 1053 524 1026 654 l 978 503 q 958 579 974 519 l 615 574 m 1374 982 l 1449 979 l 1456 67 l 1381 65 l 1374 982 m 1203 340 l 1129 342 l 1131 869 l 1207 868 l 1203 340 m 857 319 l 860 151 l 1078 154 l 1079 78 l 568 69 l 567 149 l 783 151 l 782 321 l 613 325 l 615 401 l 781 397 l 779 529 l 854 528 l 856 396 l 1026 392 l 1025 315 l 857 319 z "},"倔":{"ha":1490,"x_min":111,"x_max":1379,"o":"m 1372 765 l 744 771 q 675 165 731 431 l 596 179 q 656 587 640 375 q 671 1058 671 799 l 1364 1051 l 1372 765 m 615 969 q 436 758 551 864 l 446 83 l 367 82 l 358 692 q 150 553 263 615 l 111 626 q 358 799 239 697 q 550 1017 476 901 l 615 969 m 1293 843 l 1289 972 l 746 979 l 746 850 l 1293 843 m 1297 75 l 1299 268 l 1379 269 l 1376 -8 l 782 -4 l 781 281 l 860 278 l 860 76 l 1040 76 l 1036 361 l 804 364 l 800 635 l 878 632 l 881 443 l 1036 442 l 1032 707 l 1111 707 l 1115 440 l 1282 439 l 1283 629 l 1361 629 l 1360 358 l 1115 361 l 1118 75 l 1297 75 z "},"倘":{"ha":1511,"x_min":111,"x_max":1400,"o":"m 1389 696 l 1400 36 l 1321 36 l 1311 615 l 703 625 l 692 33 l 613 35 l 628 708 l 789 706 q 678 935 751 808 l 746 971 q 863 731 819 849 l 800 706 l 964 703 l 968 1036 l 1047 1033 l 1042 701 l 1389 696 m 619 939 q 438 733 549 833 l 447 58 l 368 58 l 361 669 q 147 535 258 589 l 111 610 q 358 775 240 676 q 556 989 475 874 l 619 939 m 1321 954 q 1213 707 1288 831 l 1144 742 q 1244 979 1213 865 l 1321 954 m 806 126 l 817 490 l 1181 479 l 1188 119 l 806 126 m 890 410 l 885 206 l 1108 199 l 1104 404 l 890 410 z "},"候":{"ha":1440,"x_min":111,"x_max":1329,"o":"m 1315 347 l 1318 269 l 1078 272 q 1151 150 1101 203 q 1279 54 1201 97 l 1239 -15 q 1018 214 1074 82 q 937 89 994 147 q 810 -12 879 31 l 768 54 q 890 153 835 96 q 957 275 944 210 l 707 278 l 706 357 l 979 353 l 979 519 l 817 522 q 778 431 789 453 l 707 463 q 754 579 731 513 q 794 708 778 646 l 692 710 l 693 789 l 1154 781 l 1151 949 l 778 956 l 778 1035 l 1225 1025 l 1231 779 l 1326 778 l 1329 699 l 876 707 q 844 596 865 653 l 1268 589 l 1269 514 l 1061 518 l 1061 351 l 1315 347 m 543 958 q 411 754 488 853 l 417 67 l 338 67 l 335 663 q 163 503 253 572 l 111 569 q 472 1001 318 729 l 543 958 m 533 150 l 529 744 l 607 744 l 611 153 l 533 150 z "},"倚":{"ha":1418,"x_min":111,"x_max":1307,"o":"m 668 625 q 838 722 779 669 q 918 854 896 775 l 654 857 l 654 939 l 932 935 q 936 1057 936 989 l 1017 1054 q 1014 933 1017 965 l 1296 928 l 1297 849 l 1003 853 q 983 788 997 819 q 1123 698 1049 750 q 1251 600 1197 646 l 1201 536 q 944 718 1125 606 q 700 551 871 617 l 668 625 m 111 574 q 358 738 240 639 q 556 953 475 836 l 619 904 q 439 701 549 799 l 447 22 l 368 21 l 361 636 q 149 500 257 556 l 111 574 m 653 504 l 1307 496 l 1307 417 l 1194 418 l 1201 3 l 1124 3 l 1118 419 l 653 425 l 653 504 m 678 54 l 686 343 l 1000 333 l 1004 51 l 678 54 m 760 261 l 756 132 l 926 129 l 925 257 l 760 261 z "},"借":{"ha":1467,"x_min":111,"x_max":1356,"o":"m 1204 681 l 1354 678 l 1356 594 l 660 604 l 660 689 l 814 686 l 815 885 l 692 886 l 692 971 l 817 968 l 818 1111 l 897 1111 l 896 967 l 1124 964 l 1124 1107 l 1204 1107 l 1204 963 l 1326 960 l 1328 876 l 1204 878 l 1204 681 m 111 607 q 360 775 243 676 q 556 988 476 874 l 621 939 q 438 733 550 833 l 449 58 l 369 57 l 363 669 q 150 532 254 585 l 111 607 m 1124 879 l 896 883 l 893 685 l 1126 682 l 1124 879 m 729 -1 l 740 500 l 1292 493 l 1299 -4 l 729 -1 m 1214 286 l 1213 410 l 819 415 l 817 292 l 1214 286 m 814 208 l 811 79 l 1217 76 l 1215 201 l 814 208 z "},"倡":{"ha":1408,"x_min":111,"x_max":1297,"o":"m 704 1050 l 1247 1040 l 1254 588 l 696 596 l 704 1050 m 111 614 q 357 783 240 683 q 554 996 474 882 l 617 947 q 438 743 542 835 l 447 63 l 369 61 l 363 679 q 149 542 257 594 l 111 614 m 1175 854 l 1174 963 l 778 968 l 776 860 l 1175 854 m 774 781 l 772 674 l 1176 668 l 1175 776 l 774 781 m 657 507 l 1290 494 l 1297 1 l 649 6 l 657 507 m 1211 290 l 1210 414 l 733 422 l 732 297 l 1211 290 m 729 211 l 728 86 l 1214 82 l 1213 208 l 729 211 z "},"倦":{"ha":1535,"x_min":111,"x_max":1418,"o":"m 1418 621 l 1418 540 l 1268 543 q 1417 332 1328 438 l 1354 282 q 1181 546 1254 404 l 892 551 l 883 535 q 728 290 828 426 l 661 343 q 800 554 739 442 l 640 557 l 642 638 l 840 633 q 888 749 864 682 l 683 753 l 685 833 l 799 832 q 719 986 765 921 l 788 1025 q 881 831 838 949 l 914 829 q 964 1053 947 938 l 1044 1040 q 999 828 1024 915 l 1161 825 q 1210 918 1192 874 q 1243 1017 1229 963 l 1317 992 q 1289 903 1307 950 q 1251 824 1271 857 l 1363 822 l 1364 740 l 974 747 q 929 632 946 669 l 1418 621 m 111 618 q 357 784 238 683 q 558 997 476 885 l 622 947 q 438 744 547 842 l 446 64 l 368 63 l 363 682 q 149 546 254 600 l 111 618 m 1169 75 q 1300 78 1228 75 l 1303 -4 q 1118 -8 1240 -8 q 953 15 1015 -8 q 863 97 892 39 q 833 258 833 154 l 833 438 l 1242 428 l 1240 168 l 1163 171 l 1165 350 l 915 354 l 915 254 q 947 128 915 167 q 1025 83 979 90 q 1169 75 1071 76 z "},"倩":{"ha":1425,"x_min":111,"x_max":1314,"o":"m 1015 792 l 1015 700 l 1314 694 l 1314 618 l 638 625 l 640 707 l 936 701 l 936 793 l 690 797 l 690 876 l 936 872 l 938 964 l 671 968 l 671 1049 l 938 1043 l 938 1131 l 1017 1128 l 1017 1042 l 1275 1038 l 1275 960 l 1017 964 l 1015 872 l 1249 868 l 1247 789 l 1015 792 m 111 592 q 354 762 239 661 q 550 978 469 863 l 614 929 q 436 725 544 824 l 446 43 l 368 42 l 360 658 q 150 519 251 572 l 111 592 m 707 -39 l 719 543 l 1236 533 l 1246 -42 l 1167 -42 l 1165 79 l 790 83 l 788 -40 l 707 -39 m 1160 347 l 1158 451 l 797 457 l 796 351 l 1160 347 m 793 271 l 792 167 l 1164 161 l 1161 267 l 793 271 z "},"倪":{"ha":1419,"x_min":111,"x_max":1308,"o":"m 1308 51 q 1228 47 1275 47 q 1101 81 1144 47 q 1044 171 1058 115 q 1029 308 1029 226 l 1029 418 l 667 419 l 672 947 q 935 1011 786 968 l 956 933 q 749 883 832 896 l 747 736 l 936 733 l 936 651 l 746 656 l 744 499 l 1219 496 l 1218 650 l 1036 651 l 1036 732 l 1217 731 l 1215 865 l 1033 869 l 1033 949 l 1290 943 l 1297 417 l 1108 418 l 1108 308 q 1115 211 1108 246 q 1149 153 1121 176 q 1239 129 1178 129 q 1304 132 1263 129 l 1308 51 m 111 606 q 361 776 243 678 q 557 985 479 874 l 619 938 q 436 731 550 832 l 446 57 l 368 56 l 360 668 q 149 533 256 589 l 111 606 m 713 76 q 818 386 794 213 l 899 376 q 786 38 876 200 l 713 76 z "},"倭":{"ha":1418,"x_min":111,"x_max":1307,"o":"m 675 586 q 922 757 797 651 l 668 760 l 668 844 l 953 840 l 953 954 q 724 946 836 949 l 721 1026 q 1246 1069 978 1028 l 1258 989 q 1033 960 1147 971 l 1033 840 l 1306 836 l 1307 754 l 1056 757 q 1292 576 1188 639 l 1253 507 q 1033 672 1139 575 l 1035 486 l 954 486 l 953 678 q 713 513 822 569 l 675 586 m 111 615 q 359 781 242 682 q 557 994 476 881 l 619 946 q 438 740 553 844 l 447 65 l 369 65 l 361 676 q 149 540 258 596 l 111 615 m 1306 324 l 1214 326 q 1185 144 1208 239 l 1285 136 l 1278 58 l 1161 68 q 1122 -29 1150 35 l 1049 1 q 1079 76 1060 26 l 744 106 l 769 338 l 663 340 l 665 418 l 778 415 l 789 522 l 865 511 l 854 413 l 1304 401 l 1306 324 m 1103 151 q 1136 328 1126 235 l 846 336 l 828 175 l 1103 151 z "},"债":{"ha":1482,"x_min":111,"x_max":1371,"o":"m 1040 693 l 1369 688 l 1371 611 l 629 619 l 631 700 l 961 694 l 961 785 l 694 789 l 696 869 l 961 865 l 961 953 l 665 956 l 668 1035 l 961 1032 l 961 1140 l 1039 1138 l 1039 1032 l 1326 1029 l 1326 950 l 1039 953 l 1040 864 l 1294 860 l 1294 779 l 1040 783 l 1040 693 m 111 589 q 356 756 240 657 q 553 969 472 856 l 618 919 q 439 719 550 819 l 447 36 l 368 36 l 361 654 q 147 515 258 572 l 111 589 m 1214 443 l 790 449 l 788 129 l 707 129 l 713 531 l 1290 524 l 1304 129 l 1225 129 l 1214 443 m 1056 215 q 1145 78 1076 133 q 1313 -3 1214 22 l 1285 -76 q 1113 4 1178 -44 q 1006 131 1049 53 q 906 3 969 54 q 743 -79 842 -47 l 715 -6 q 876 81 815 28 q 953 213 936 133 q 963 308 963 244 l 961 379 l 1043 379 l 1043 338 q 1045 268 1043 294 q 1056 215 1047 242 z "},"值":{"ha":1493,"x_min":111,"x_max":1382,"o":"m 1289 785 l 1300 65 l 1382 64 l 1382 -17 l 621 -7 l 621 74 l 707 72 l 715 800 l 963 793 l 964 899 l 682 904 l 683 982 l 964 976 l 965 1081 l 1042 1079 l 1040 976 l 1324 971 l 1324 893 l 1040 899 l 1039 792 l 1289 785 m 621 919 q 438 713 551 814 l 449 35 l 369 35 l 363 650 q 149 513 257 565 l 111 586 q 358 753 240 654 q 556 967 476 853 l 621 919 m 1211 606 l 1210 710 l 786 719 l 786 613 l 1211 606 m 785 432 l 1215 425 l 1213 531 l 785 538 l 785 432 m 1218 247 l 1217 350 l 785 357 l 785 250 l 1218 247 m 1221 65 l 1219 169 l 783 175 l 783 72 l 1221 65 z "},"倾":{"ha":1568,"x_min":111,"x_max":1457,"o":"m 496 969 q 381 739 446 840 l 383 71 l 306 71 l 303 633 q 165 493 240 561 l 111 557 q 294 763 222 661 q 418 997 365 864 l 496 969 m 1374 683 l 1015 690 l 1011 242 l 933 242 l 942 771 l 1147 767 l 1163 911 l 960 914 l 963 994 l 1431 983 l 1432 907 l 1239 910 l 1224 765 l 1450 761 l 1457 242 l 1376 242 l 1374 683 m 774 200 q 876 208 825 200 l 888 125 q 768 115 829 115 q 607 178 657 115 q 547 337 557 242 q 536 613 536 432 l 536 933 l 619 929 l 619 632 q 847 710 746 667 l 876 632 q 619 543 756 575 q 629 360 619 432 q 672 244 639 289 q 774 200 706 200 m 1242 331 q 1310 183 1258 250 q 1456 74 1361 115 l 1422 3 q 1193 243 1232 96 q 1117 108 1172 169 q 978 0 1063 46 l 938 72 q 1078 183 1031 118 q 1142 335 1126 247 q 1149 403 1147 360 q 1151 525 1151 446 l 1151 604 l 1229 603 l 1231 531 q 1233 417 1231 467 q 1242 331 1235 368 z "},"偃":{"ha":1503,"x_min":111,"x_max":1392,"o":"m 757 1003 l 746 60 l 1392 44 l 1392 -31 l 663 -21 l 678 1083 l 1389 1078 l 1389 999 l 757 1003 m 111 588 q 352 763 236 658 q 543 982 468 868 l 608 933 q 431 722 538 822 l 440 46 l 361 46 l 356 656 q 150 514 251 568 l 111 588 m 844 938 l 1349 928 l 1357 519 l 836 529 l 844 938 m 1281 761 l 1279 854 l 917 861 l 914 768 l 1281 761 m 913 693 l 910 603 l 1285 593 l 1283 685 l 913 693 m 1365 349 l 1286 351 q 1267 218 1281 293 l 1349 210 l 1340 136 q 1249 147 1276 144 q 1217 56 1238 100 l 1147 82 q 1175 156 1158 106 q 1029 169 1132 161 q 861 186 921 179 l 890 364 l 796 367 l 797 440 l 903 438 l 915 518 l 988 506 l 975 435 l 1365 424 l 1365 349 m 1193 225 q 1214 353 1207 289 l 963 361 l 943 251 l 1193 225 z "},"假":{"ha":1514,"x_min":111,"x_max":1407,"o":"m 968 997 l 971 608 l 669 611 l 668 482 l 942 478 l 943 397 l 668 400 l 667 269 l 946 268 l 946 183 l 667 186 l 665 53 l 589 56 l 592 1004 l 968 997 m 542 956 q 401 735 486 843 l 407 63 l 328 63 l 325 646 q 161 494 247 561 l 111 561 q 314 762 222 650 q 469 997 406 874 l 542 956 m 1044 686 l 1313 683 l 1311 904 l 1042 910 l 1042 993 l 1390 982 l 1393 606 l 1044 608 l 1044 686 m 890 690 l 890 915 l 671 919 l 669 694 l 890 690 m 1403 500 q 1278 185 1407 314 q 1400 115 1322 151 l 1368 43 q 1218 132 1276 86 q 1076 43 1174 97 l 1038 115 q 1157 186 1096 142 q 1068 326 1096 246 q 1040 508 1040 406 l 1403 500 m 1121 429 q 1149 325 1125 375 q 1217 235 1174 275 q 1318 425 1304 325 l 1121 429 z "},"偎":{"ha":1454,"x_min":111,"x_max":1342,"o":"m 679 1044 l 1275 1036 l 1282 529 l 674 533 l 679 1044 m 938 822 l 936 963 l 757 965 l 756 825 l 938 822 m 1018 821 l 1201 818 l 1200 960 l 1017 963 l 1018 821 m 111 576 q 357 742 239 643 q 557 957 475 842 l 622 908 q 438 703 549 801 l 447 28 l 369 26 l 363 640 q 147 504 251 553 l 111 576 m 938 744 l 754 747 l 753 610 l 939 610 l 938 744 m 1018 743 l 1019 608 l 1204 608 l 1203 740 l 1018 743 m 1186 146 q 1342 56 1257 92 l 1313 -18 q 1091 116 1186 33 q 926 319 996 199 l 983 356 l 811 357 l 807 10 l 732 11 l 736 358 l 633 358 l 635 438 l 1329 433 l 1329 354 l 1000 356 q 1124 199 1054 265 q 1264 343 1199 261 l 1322 289 q 1186 146 1264 213 z "},"偏":{"ha":1513,"x_min":111,"x_max":1401,"o":"m 749 599 l 747 588 q 671 160 724 357 l 597 181 q 688 900 685 493 l 986 896 l 990 1039 l 1075 1036 l 1071 894 l 1374 889 l 1378 590 l 749 599 m 624 942 q 436 738 551 840 l 446 63 l 367 61 l 360 675 q 149 540 260 599 l 111 614 q 357 781 236 679 q 560 992 478 882 l 624 942 m 1301 811 l 760 819 q 754 674 760 740 l 1301 665 l 1301 811 m 1401 28 l 1328 28 l 1325 200 l 1204 201 l 1207 29 l 1132 31 l 1131 203 l 1006 203 l 1004 33 l 929 36 l 931 204 l 814 206 l 810 36 l 733 39 l 746 510 l 1394 500 l 1401 28 m 819 429 l 815 285 l 932 283 l 933 428 l 819 429 m 1008 426 l 1007 282 l 1129 282 l 1128 424 l 1008 426 m 1201 422 l 1204 281 l 1324 279 l 1322 421 l 1201 422 z "},"做":{"ha":1606,"x_min":111,"x_max":1490,"o":"m 1333 296 q 1490 122 1406 189 l 1442 58 q 1283 222 1353 128 q 1132 61 1218 133 l 1082 124 q 1235 296 1175 207 q 1118 578 1169 410 q 1093 503 1106 544 l 1015 533 q 1083 749 1058 642 q 1121 996 1107 856 l 1203 986 q 1178 803 1193 883 l 1486 796 l 1486 715 l 1161 719 q 1124 596 1142 654 l 1189 615 q 1285 376 1222 490 q 1378 621 1346 488 l 1456 601 q 1333 296 1413 424 m 544 953 q 406 739 488 840 l 413 61 l 333 61 l 328 647 q 163 493 249 563 l 111 558 q 312 756 215 640 q 472 993 408 871 l 544 953 m 729 974 l 804 974 l 804 797 l 993 793 l 993 711 l 806 715 l 806 501 l 974 497 l 981 86 l 551 89 l 558 507 l 729 503 l 729 717 l 542 719 l 542 801 l 729 799 l 729 974 m 629 168 l 900 167 l 899 419 l 636 426 l 629 168 z "},"停":{"ha":1496,"x_min":111,"x_max":1385,"o":"m 1043 1004 l 1353 1000 l 1353 922 l 635 933 l 635 1010 l 965 1006 l 964 1115 l 1044 1113 l 1043 1004 m 111 608 q 360 776 242 676 q 557 989 478 875 l 619 939 q 439 736 549 836 l 449 58 l 371 57 l 363 672 q 149 533 264 593 l 111 608 m 1288 569 l 713 574 l 722 849 l 1278 838 l 1288 569 m 1204 760 l 793 769 l 790 651 l 1207 644 l 1204 760 m 633 496 l 1379 483 l 1385 283 l 1311 286 l 1310 413 l 703 417 l 700 300 l 626 300 l 633 496 m 760 335 l 1251 328 l 1253 253 l 1108 254 l 1111 -11 l 1038 -14 l 1035 256 l 758 260 l 760 335 z "},"健":{"ha":1625,"x_min":111,"x_max":1514,"o":"m 1514 785 l 1514 700 l 1419 703 l 1424 510 l 1174 511 l 1175 404 l 1381 399 l 1381 318 l 1176 324 l 1178 214 l 1429 210 l 1431 126 l 1179 132 l 1181 25 q 1278 15 1210 21 l 1269 -67 q 703 61 942 -39 q 640 -53 669 -4 l 571 -11 q 628 96 601 42 q 472 188 543 138 l 515 256 q 664 172 582 211 q 735 393 719 293 l 529 399 l 628 768 l 449 771 l 449 800 l 407 743 l 413 64 l 333 64 l 331 651 q 163 499 254 569 l 111 565 q 310 761 214 646 q 469 1000 407 876 l 542 958 q 485 856 506 889 l 728 851 l 632 474 l 819 467 q 738 139 810 313 q 1099 38 911 69 l 1097 135 l 836 140 l 836 221 l 1097 215 l 1096 325 l 889 331 l 892 411 l 1096 406 l 1094 513 l 853 514 l 853 596 l 1094 593 l 1093 710 l 785 717 l 786 800 l 1093 793 l 1092 903 l 860 908 l 861 994 l 1092 988 l 1090 1094 l 1169 1094 l 1171 986 l 1414 979 l 1418 786 l 1514 785 m 1339 897 l 1171 901 l 1172 792 l 1340 788 l 1339 897 m 1172 708 l 1174 592 l 1342 590 l 1340 704 l 1172 708 z "},"偶":{"ha":1564,"x_min":111,"x_max":1453,"o":"m 1446 424 l 1453 -22 l 1378 -22 l 1371 344 l 1090 349 l 1093 158 l 1213 163 q 1193 221 1199 201 q 1178 264 1179 258 l 1251 290 q 1331 31 1296 174 l 1254 7 q 1236 86 1251 28 l 804 74 l 801 151 l 1014 157 l 1011 349 l 753 353 l 750 -17 l 672 -17 l 679 440 l 1010 433 l 1008 539 l 715 543 l 719 1058 l 1379 1047 l 1390 535 l 1089 539 l 1090 432 l 1446 424 m 111 621 q 356 790 240 690 q 553 1003 472 889 l 618 954 q 440 753 551 854 l 450 67 l 372 64 l 364 688 q 149 549 250 599 l 111 621 m 1007 839 l 1007 969 l 803 974 l 800 842 l 1007 839 m 1088 839 l 1304 836 l 1303 964 l 1088 968 l 1088 839 m 1008 757 l 799 760 l 796 626 l 1008 624 l 1008 757 m 1089 756 l 1089 622 l 1307 619 l 1306 753 l 1089 756 z "},"偷":{"ha":1510,"x_min":111,"x_max":1399,"o":"m 990 957 q 828 799 943 897 q 635 646 714 701 l 589 714 q 993 1068 803 860 q 1399 699 1192 847 l 1354 635 q 1160 790 1276 688 q 990 957 1043 893 m 624 908 q 425 697 543 799 l 435 28 l 357 26 l 350 636 q 147 507 250 560 l 111 581 q 358 747 238 646 q 558 958 478 847 l 624 908 m 1233 649 l 758 658 l 760 736 l 1233 724 l 1233 649 m 599 6 l 607 581 l 961 574 l 967 3 l 894 3 l 893 125 l 676 131 l 675 4 l 599 6 m 1301 1 l 1296 572 l 1368 572 l 1375 1 l 1301 1 m 1153 171 l 1076 174 l 1082 535 l 1154 533 l 1153 171 m 890 388 l 889 499 l 678 503 l 678 393 l 890 388 m 676 318 l 676 207 l 892 203 l 890 313 l 676 318 z "},"偿":{"ha":1542,"x_min":111,"x_max":1428,"o":"m 718 822 l 714 693 l 638 693 l 644 904 l 765 903 q 711 1004 732 972 l 779 1042 q 853 901 818 976 l 992 899 l 994 1069 l 1075 1068 l 1072 897 l 1218 894 q 1285 1042 1256 964 l 1357 1013 q 1306 893 1340 963 l 1424 892 l 1428 688 l 1351 688 l 1349 815 l 718 822 m 111 615 q 348 774 239 681 q 538 979 457 867 l 603 931 q 438 743 531 829 l 446 67 l 368 67 l 361 676 q 149 542 254 593 l 111 615 m 1318 653 l 1318 569 l 750 578 l 751 661 l 1318 653 m 925 328 l 872 136 l 1253 144 q 1208 240 1244 167 l 1282 276 q 1341 141 1319 194 q 1383 22 1363 88 l 1307 -3 q 1285 64 1297 32 l 765 51 l 843 328 l 661 331 l 664 415 l 1422 404 l 1424 321 l 925 328 z "},"傀":{"ha":1636,"x_min":111,"x_max":1525,"o":"m 1186 213 l 1229 353 l 1089 354 l 1089 299 q 1100 190 1088 229 q 1149 130 1113 150 q 1254 110 1185 110 q 1324 114 1286 110 l 1331 35 q 1244 29 1272 29 q 1098 61 1149 29 q 1028 156 1047 93 q 1010 324 1010 218 l 1010 356 l 940 356 q 856 172 908 254 q 722 22 803 90 l 669 81 q 857 357 796 192 l 643 358 l 651 911 l 931 906 q 997 1051 974 981 l 1072 1026 q 1021 903 1058 978 l 1254 899 l 1264 464 l 1296 568 l 1371 540 l 1292 292 l 1419 296 q 1389 389 1415 311 l 1460 413 q 1497 299 1479 364 q 1525 178 1514 235 l 1450 160 q 1440 222 1449 176 l 1186 213 m 603 926 q 431 711 539 818 l 442 32 l 363 32 l 354 642 q 151 499 256 558 l 111 571 q 353 752 242 649 q 538 972 464 856 l 603 926 m 729 829 l 725 667 l 908 664 q 910 826 910 714 l 729 829 m 1179 661 l 1174 821 l 989 824 q 986 664 989 713 l 1179 661 m 724 588 l 721 440 l 882 438 q 904 585 897 507 l 724 588 m 1186 433 l 1182 581 l 982 583 q 963 436 975 497 l 1186 433 z "},"傅":{"ha":1442,"x_min":111,"x_max":1331,"o":"m 744 449 l 744 357 l 667 357 l 672 854 l 957 849 l 957 936 l 690 942 l 692 1019 l 958 1014 l 958 1129 l 1038 1129 l 1038 1011 l 1222 1007 l 1175 1035 q 1106 1075 1132 1063 l 1143 1140 q 1269 1064 1199 1113 l 1233 1007 l 1308 1006 l 1307 928 l 1036 933 l 1036 846 l 1325 840 l 1331 350 l 1251 350 l 1251 443 l 1033 446 l 1033 354 l 954 356 l 954 446 l 744 449 m 111 594 q 353 772 239 668 q 543 992 468 875 l 608 943 q 432 732 543 838 l 443 51 l 364 51 l 356 664 q 151 524 254 579 l 111 594 m 956 685 l 957 769 l 747 774 l 747 689 l 956 685 m 1035 683 l 1249 679 l 1249 763 l 1036 767 l 1035 683 m 746 608 l 746 525 l 956 522 l 956 604 l 746 608 m 1035 604 l 1035 521 l 1250 518 l 1250 600 l 1035 604 m 1096 361 l 1171 361 l 1172 263 l 1318 261 l 1318 183 l 1174 186 l 1176 -36 l 1101 -36 l 1099 186 l 690 193 l 690 269 l 1097 264 l 1096 361 m 806 176 q 1014 50 931 111 l 972 -14 q 768 110 869 57 l 806 176 z "},"傈":{"ha":1497,"x_min":111,"x_max":1386,"o":"m 1061 315 q 1369 83 1211 165 l 1336 17 q 1061 213 1183 97 l 1063 -24 l 983 -24 l 983 211 q 715 19 861 93 l 676 89 q 838 188 758 129 q 982 314 917 247 l 982 317 l 675 319 l 675 400 l 982 396 l 982 515 l 654 518 l 660 836 l 874 832 l 876 950 l 689 951 l 689 1029 l 1351 1025 l 1351 946 l 1167 947 l 1168 828 l 1382 824 l 1386 511 l 1060 514 l 1060 396 l 1365 392 l 1367 313 l 1061 315 m 111 590 q 358 758 238 658 q 560 968 478 858 l 624 919 q 438 717 549 814 l 449 39 l 369 38 l 361 654 q 147 517 258 574 l 111 590 m 1093 949 l 951 949 l 950 831 l 1094 829 l 1093 949 m 874 751 l 733 753 l 733 596 l 869 594 l 874 751 m 1097 592 l 1094 749 l 949 750 l 946 594 l 1097 592 m 1171 592 l 1311 590 l 1307 746 l 1168 747 l 1171 592 z "},"傍":{"ha":1461,"x_min":111,"x_max":1350,"o":"m 750 671 l 746 560 l 672 563 l 678 749 l 800 747 q 789 936 800 822 l 694 936 l 696 1013 l 968 1013 l 969 1128 l 1050 1125 l 1049 1011 l 1321 1011 l 1322 933 l 1231 933 q 1210 740 1225 833 l 1343 738 l 1350 561 l 1278 564 l 1274 667 l 750 671 m 111 611 q 357 776 240 676 q 556 992 474 876 l 619 943 q 438 738 556 844 l 447 61 l 369 60 l 363 675 q 149 536 256 590 l 111 611 m 867 935 q 879 746 881 822 l 1132 742 q 1154 935 1146 828 l 867 935 m 1050 618 l 1049 513 l 1321 508 l 1321 428 l 926 433 q 914 325 922 383 l 1267 319 q 1274 32 1274 160 l 1274 -26 l 1196 -26 q 1197 106 1197 11 q 1193 240 1197 203 l 903 244 q 843 -22 876 97 l 769 -1 q 849 435 828 225 l 706 438 l 707 517 l 971 513 l 971 621 l 1050 618 z "},"傣":{"ha":1528,"x_min":111,"x_max":1414,"o":"m 1276 528 q 1414 347 1318 451 l 1356 293 l 1328 324 q 1303 353 1315 339 q 1278 383 1290 368 q 1140 288 1215 328 l 1099 350 q 1232 446 1168 390 q 1186 529 1207 483 l 838 533 q 789 456 813 490 q 915 356 850 413 l 867 296 q 744 393 810 347 q 668 297 700 336 l 606 349 q 742 535 686 443 l 606 536 l 606 615 l 786 613 q 835 713 804 646 l 682 715 l 682 794 l 865 790 q 897 888 888 854 l 661 890 l 661 969 l 918 965 q 946 1083 935 1029 l 1024 1065 l 1001 964 l 1340 958 l 1342 881 l 981 886 q 951 789 968 839 l 1322 782 l 1324 704 l 924 711 q 879 611 901 656 l 1407 604 l 1407 526 l 1276 528 m 619 940 q 436 735 543 831 l 447 57 l 368 57 l 361 671 q 149 532 264 594 l 111 607 q 358 776 240 676 q 557 989 476 876 l 619 940 m 960 10 l 957 472 l 1039 471 l 1042 10 l 960 10 m 647 106 q 768 163 719 135 q 874 233 817 190 l 918 167 q 802 90 856 121 q 679 33 749 60 l 647 106 m 1122 233 q 1225 176 1179 206 q 1353 92 1271 147 l 1311 26 q 1086 165 1201 103 l 1122 233 z "},"储":{"ha":1640,"x_min":111,"x_max":1529,"o":"m 1472 471 l 1481 15 l 1024 18 l 1029 392 q 929 332 963 350 l 892 403 q 1156 588 1036 486 l 871 590 l 869 671 l 1160 665 l 1163 851 l 926 853 l 926 933 l 1163 931 l 1164 1064 l 1242 1064 l 1239 931 l 1467 928 l 1467 849 l 1239 850 l 1236 665 l 1240 665 q 1383 829 1319 744 l 1442 779 q 1344 663 1406 731 l 1528 660 l 1529 583 l 1271 586 q 1144 476 1211 529 l 1472 471 m 546 931 q 410 718 488 817 l 415 38 l 336 38 l 335 629 q 163 474 249 536 l 111 539 q 474 971 336 713 l 546 931 m 822 750 q 578 846 685 810 l 599 919 q 724 876 663 900 q 849 824 785 851 l 822 750 m 889 158 q 949 164 910 158 l 956 85 q 890 79 926 79 q 860 81 869 79 q 701 353 701 94 l 701 546 l 506 546 l 506 622 l 774 622 l 774 378 q 802 208 774 257 q 889 158 831 158 m 1100 289 l 1403 282 l 1401 392 l 1103 397 l 1100 289 m 1099 208 l 1096 97 l 1406 94 l 1404 206 l 1099 208 z "},"催":{"ha":1463,"x_min":111,"x_max":1347,"o":"m 1347 1013 l 1346 776 l 786 786 l 847 758 q 790 638 826 701 l 1026 631 q 983 736 1008 690 l 1054 771 q 1110 628 1086 710 l 1339 621 l 1339 542 l 1096 547 l 1097 440 l 1322 436 l 1322 357 l 1099 361 l 1099 253 l 1322 250 l 1322 171 l 1100 174 l 1101 68 l 1344 65 l 1346 -14 l 724 -8 l 729 539 q 665 451 696 488 l 600 503 q 769 786 690 613 l 678 788 l 671 1017 l 749 1017 l 754 868 l 974 864 l 969 1065 l 1050 1064 l 1053 863 l 1268 858 l 1268 1013 l 1347 1013 m 618 943 q 438 740 550 842 l 449 60 l 369 60 l 364 678 q 149 539 261 594 l 111 611 q 356 778 240 679 q 554 993 472 878 l 618 943 m 1019 442 l 1018 549 l 804 554 l 803 447 l 1019 442 m 801 258 l 1021 254 l 1021 363 l 801 367 l 801 258 m 799 71 l 1024 68 l 1022 175 l 800 178 l 799 71 z "},"傲":{"ha":1689,"x_min":111,"x_max":1575,"o":"m 1068 482 l 736 488 q 728 379 735 432 l 1028 374 q 1035 125 1035 214 q 1033 36 1035 63 l 956 38 q 957 171 957 81 q 954 296 957 258 l 717 300 q 643 49 693 168 l 569 83 q 656 489 642 247 l 525 492 l 526 571 l 772 567 l 771 672 l 576 676 l 579 757 l 771 753 l 771 854 l 567 858 l 567 939 l 769 935 l 769 1033 l 847 1033 l 847 933 l 1058 929 l 1058 849 l 849 853 l 849 751 l 1040 747 l 1039 667 l 849 671 l 850 565 l 1067 561 l 1068 482 m 1413 285 q 1569 107 1475 192 l 1515 43 q 1363 206 1424 125 q 1204 39 1300 117 l 1151 106 q 1311 282 1249 185 q 1185 628 1232 418 q 1150 526 1165 568 l 1072 560 q 1181 1021 1146 740 l 1261 1008 q 1236 839 1249 899 l 1574 835 l 1575 751 l 1219 757 q 1186 633 1204 692 l 1260 651 q 1361 369 1303 479 q 1454 650 1418 488 l 1535 628 q 1481 440 1510 522 q 1413 285 1453 357 m 544 960 q 408 742 497 851 l 417 65 l 335 67 l 329 651 q 161 501 250 568 l 111 568 q 472 1000 342 746 l 544 960 z "},"傻":{"ha":1454,"x_min":111,"x_max":1343,"o":"m 1190 524 q 1343 350 1267 451 l 1282 300 q 1203 399 1236 361 q 1118 483 1169 436 l 1154 524 l 800 524 l 839 501 q 772 402 808 444 q 685 310 736 360 l 633 365 q 711 444 683 413 q 768 524 739 476 l 661 524 l 668 1022 l 943 1018 q 1010 1146 981 1071 l 1082 1117 q 1032 1017 1063 1063 l 1306 1013 l 1313 524 l 1190 524 m 111 613 q 361 783 242 683 q 557 993 481 882 l 621 944 q 435 738 547 835 l 444 61 l 367 60 l 360 675 q 149 540 258 596 l 111 613 m 743 947 l 739 599 l 1233 596 l 1231 939 l 1114 940 l 1161 906 q 1051 782 1113 842 q 1188 663 1124 724 l 1142 611 q 1000 735 1083 668 q 833 613 929 674 l 790 669 q 943 778 867 714 q 807 868 893 815 l 843 926 q 996 825 917 883 q 1101 942 1054 879 l 743 947 m 1221 353 q 1076 100 1197 199 q 1272 19 1171 44 l 1249 -57 q 1007 51 1125 -25 q 757 -51 910 -6 l 732 22 q 936 103 838 49 q 832 203 872 153 l 888 257 q 1006 146 936 197 q 1125 296 1101 217 l 854 354 q 819 267 838 306 q 772 176 801 229 l 706 213 q 760 324 739 274 q 803 440 782 375 l 1221 353 z "},"像":{"ha":1440,"x_min":111,"x_max":1329,"o":"m 1181 307 q 1329 125 1231 224 l 1278 69 q 1117 267 1189 151 l 1074 243 q 1089 72 1089 168 q 1085 -31 1089 22 l 1013 -24 q 1018 121 1022 64 q 758 14 925 68 l 735 82 q 1010 203 900 136 q 985 303 1001 253 q 857 231 929 267 q 725 175 785 196 l 696 240 q 832 300 760 264 q 957 374 904 336 q 918 456 936 422 q 835 406 882 429 q 715 353 788 383 l 685 421 q 910 544 844 479 l 688 546 l 696 864 l 981 857 q 1038 988 1019 933 l 904 1036 q 846 918 882 983 l 775 950 q 861 1140 824 1042 l 1142 1033 q 1068 856 1108 939 l 1293 850 l 1299 542 l 1004 543 q 975 506 988 518 q 1056 319 1031 408 q 1236 451 1161 378 l 1288 396 q 1181 307 1244 351 m 111 614 q 358 781 242 682 q 556 993 475 879 l 619 944 q 439 742 546 836 l 450 61 l 371 61 l 364 678 q 149 539 250 589 l 111 614 m 771 782 l 767 625 l 960 624 q 975 778 979 681 l 771 782 m 1221 622 l 1217 772 l 1046 776 q 1047 731 1047 760 q 1036 624 1047 672 l 1221 622 z "},"僚":{"ha":1569,"x_min":111,"x_max":1458,"o":"m 1347 642 q 1458 510 1406 558 l 1407 453 q 1285 597 1347 513 l 1293 272 l 1069 274 l 1072 6 l 996 7 l 993 274 l 767 275 l 775 604 q 665 471 721 529 l 608 528 q 724 667 668 585 l 628 744 l 671 804 l 764 731 q 835 865 797 788 l 631 868 l 631 949 l 868 944 q 911 1074 897 1024 l 986 1053 q 951 943 976 1015 l 1418 936 l 1421 856 l 1226 858 q 1306 706 1257 788 l 1397 781 l 1444 724 l 1347 642 m 622 943 q 443 740 556 842 l 454 63 l 375 60 l 367 676 q 149 538 261 594 l 111 611 q 361 778 243 679 q 558 992 479 878 l 622 943 m 919 864 q 829 690 881 774 l 1231 683 q 1142 860 1174 781 l 919 864 m 844 517 l 1214 513 l 1213 607 l 847 614 l 844 517 m 843 439 l 840 347 l 1218 347 l 1217 435 l 843 439 m 742 56 q 821 233 796 158 l 892 204 q 808 19 847 83 l 742 56 m 1236 233 q 1292 148 1263 196 q 1339 61 1321 100 l 1272 22 q 1169 194 1208 139 l 1236 233 z "},"僧":{"ha":1467,"x_min":111,"x_max":1356,"o":"m 1349 996 l 1356 547 l 669 551 l 679 1011 l 849 1007 q 792 1114 829 1053 l 858 1154 q 938 1006 901 1086 l 1100 1001 q 1176 1149 1149 1075 l 1246 1118 q 1190 1000 1229 1072 l 1349 996 m 111 606 q 359 774 242 675 q 557 985 476 872 l 621 936 q 436 731 547 829 l 447 54 l 369 54 l 361 668 q 150 533 257 588 l 111 606 m 976 926 l 756 931 l 749 629 l 976 628 l 976 926 m 1056 925 l 1057 628 l 1278 626 l 1272 921 l 1056 925 m 1089 701 q 1165 888 1136 799 l 1238 861 q 1163 672 1200 744 l 1089 701 m 860 886 q 938 697 896 818 l 868 672 q 789 851 831 776 l 860 886 m 740 -3 l 747 468 l 1281 457 l 1289 -7 l 740 -3 m 1206 265 l 1204 376 l 824 383 l 822 272 l 1206 265 m 821 192 l 819 78 l 1207 71 l 1206 183 l 821 192 z "},"僵":{"ha":1394,"x_min":111,"x_max":1283,"o":"m 721 1231 l 1254 1219 l 1257 1144 l 717 1156 l 721 1231 m 697 1083 l 1272 1071 l 1279 644 l 689 647 l 697 1083 m 950 897 l 951 999 l 771 1003 l 768 901 l 950 897 m 1201 892 l 1200 993 l 1025 997 l 1022 896 l 1201 892 m 111 603 q 360 769 242 669 q 558 983 478 869 l 622 933 q 438 728 553 832 l 449 53 l 369 51 l 361 664 q 147 526 256 582 l 111 603 m 949 822 l 765 826 l 763 724 l 947 721 l 949 822 m 1021 821 l 1019 721 l 1203 718 l 1201 817 l 1021 821 m 1257 497 l 707 506 l 710 581 l 1254 572 l 1257 497 m 697 436 l 1275 424 l 1283 -6 l 690 -1 l 697 436 m 951 247 l 953 351 l 771 356 l 769 250 l 951 247 m 1203 243 l 1201 344 l 1028 349 l 1026 246 l 1203 243 m 951 171 l 768 175 l 767 72 l 950 69 l 951 171 m 1025 171 l 1024 69 l 1204 67 l 1203 167 l 1025 171 m 701 -149 l 704 -74 l 1267 -81 l 1271 -156 l 701 -149 z "},"僻":{"ha":1672,"x_min":111,"x_max":1561,"o":"m 1561 514 l 1344 518 l 1346 351 l 1550 347 l 1550 268 l 1347 272 l 1349 60 l 1272 61 l 1269 272 l 1063 276 l 1063 356 l 1269 351 l 1267 519 l 1042 524 l 1042 601 l 1156 599 q 1140 844 1154 690 l 1138 875 l 1053 876 l 1053 956 l 1264 953 l 1264 1051 l 1342 1049 l 1342 953 l 1546 950 l 1546 872 l 1478 872 q 1457 593 1476 751 l 1561 590 l 1561 514 m 542 949 q 406 735 485 835 l 411 56 l 333 56 l 329 644 q 163 489 260 568 l 111 556 q 310 751 214 636 q 469 990 407 867 l 542 949 m 633 446 q 589 226 615 324 l 513 249 q 576 599 558 422 q 593 986 593 776 l 978 979 l 981 579 l 651 582 q 638 474 643 511 l 633 446 m 900 660 l 899 899 l 668 903 q 658 664 668 776 l 900 660 m 1213 875 q 1232 597 1226 754 l 1379 594 q 1401 874 1397 747 l 1213 875 m 633 68 l 643 443 l 978 436 l 985 63 l 633 68 m 717 360 l 711 147 l 906 142 l 904 357 l 717 360 z "},"儋":{"ha":1454,"x_min":111,"x_max":1343,"o":"m 1340 964 l 1343 883 l 690 893 q 674 404 690 594 q 607 47 657 214 l 528 69 q 583 311 565 186 q 606 564 601 436 q 613 917 611 692 l 613 975 l 975 969 q 1042 1093 1022 1039 l 890 1156 q 814 1014 867 1100 l 744 1050 q 850 1251 801 1143 l 1147 1133 q 1067 968 1093 1013 l 1340 964 m 544 924 q 407 711 485 810 l 414 32 l 335 32 l 331 621 q 163 465 250 535 l 111 532 q 472 965 333 704 l 544 924 m 939 835 q 788 674 869 738 l 735 726 q 878 881 810 786 l 939 835 m 1138 872 q 1315 717 1222 814 l 1263 668 q 1092 817 1188 746 l 1138 872 m 1065 760 l 1064 658 l 1307 654 l 1308 575 l 739 585 l 740 664 l 985 660 l 988 764 l 1065 760 m 817 499 l 1231 490 l 1231 418 l 814 425 l 817 499 m 1231 332 l 1231 261 l 817 267 l 817 340 l 1231 332 m 760 -106 l 768 185 l 1279 178 l 1289 -108 l 760 -106 m 846 111 l 843 -33 l 1207 -36 l 1200 106 l 846 111 z "},"儒":{"ha":1561,"x_min":111,"x_max":1450,"o":"m 1026 831 l 757 836 l 754 529 l 679 531 l 683 914 l 1026 907 l 1028 1001 l 746 1006 l 746 1083 l 1382 1072 l 1382 997 l 1101 1001 l 1101 907 l 1444 900 l 1450 522 l 1378 522 l 1371 825 l 1101 831 l 1100 528 l 1025 531 l 1026 831 m 111 618 q 358 785 242 686 q 557 999 475 883 l 619 950 q 438 744 553 849 l 447 69 l 369 68 l 363 682 q 149 544 257 600 l 111 618 m 815 771 l 963 767 l 963 699 l 814 701 l 815 771 m 1160 693 l 1163 763 l 1310 760 l 1308 690 l 1160 693 m 963 560 l 813 560 l 813 629 l 963 628 l 963 560 m 1311 549 l 1156 551 l 1157 621 l 1313 618 l 1311 549 m 1110 392 l 1089 285 l 1394 278 l 1399 -28 l 1326 -28 l 1324 201 l 1197 204 l 1201 -29 l 1131 -28 l 1129 206 l 1006 210 l 1003 -24 l 932 -24 l 935 211 l 810 214 l 807 -22 l 735 -22 l 742 293 l 1017 286 l 1039 393 l 764 397 l 764 471 l 1361 460 l 1363 388 l 1110 392 z "},"儡":{"ha":1681,"x_min":111,"x_max":1569,"o":"m 735 1097 l 1365 1088 l 1374 568 l 726 575 l 735 1097 m 622 974 q 401 736 543 856 l 406 54 l 326 54 l 325 675 q 147 565 238 610 l 111 640 q 358 808 240 708 q 557 1021 475 908 l 622 974 m 1013 868 l 1011 1014 l 810 1017 l 808 871 l 1013 868 m 1090 868 l 1293 865 l 1290 1010 l 1089 1013 l 1090 868 m 1013 793 l 807 796 l 806 650 l 1014 649 l 1013 793 m 1090 792 l 1092 647 l 1296 646 l 1293 789 l 1090 792 m 543 -22 l 550 492 l 1015 482 l 1019 -28 l 543 -22 m 1097 492 l 1563 481 l 1569 -28 l 1097 -22 l 1097 492 m 746 274 l 746 407 l 625 410 l 622 276 l 746 274 m 1294 274 l 1294 407 l 1172 410 l 1172 278 l 1294 274 m 942 268 l 940 403 l 822 406 l 822 271 l 942 268 m 1490 268 l 1489 401 l 1372 404 l 1372 272 l 1490 268 m 747 194 l 621 197 l 618 58 l 747 56 l 747 194 m 1296 194 l 1172 197 l 1172 58 l 1296 56 l 1296 194 m 822 192 l 822 54 l 943 51 l 942 189 l 822 192 m 1374 192 l 1374 54 l 1493 51 l 1492 189 l 1374 192 z "},"儿":{"ha":1151,"x_min":111,"x_max":1040,"o":"m 340 982 l 342 775 q 340 657 342 696 q 326 456 338 542 q 281 273 315 369 q 182 68 247 176 l 111 113 q 225 378 196 256 q 258 649 254 501 q 260 819 260 710 q 258 982 260 949 l 340 982 m 739 981 q 738 832 738 928 q 740 611 738 744 l 742 538 q 758 335 744 411 q 810 216 771 260 q 924 169 849 172 q 1028 175 972 168 l 1040 94 q 919 86 993 86 q 761 141 817 89 q 685 287 706 193 q 661 533 664 381 q 658 847 658 703 l 658 982 l 739 981 z "},"允":{"ha":1104,"x_min":111,"x_max":993,"o":"m 896 442 l 885 472 q 842 583 857 547 l 111 579 l 408 1107 l 483 1063 l 257 665 l 804 669 q 728 825 767 751 l 803 864 q 976 474 896 694 l 896 442 m 143 74 q 257 259 222 164 q 307 488 292 354 l 390 476 q 335 223 374 328 q 208 18 296 118 l 143 74 m 993 39 q 875 31 939 31 q 722 64 776 31 q 646 161 667 97 q 625 328 625 225 l 625 476 l 708 476 l 708 361 l 708 311 q 726 196 713 236 q 774 136 739 156 q 875 117 808 117 q 983 125 925 117 l 993 39 z "},"元":{"ha":1147,"x_min":111,"x_max":1036,"o":"m 208 1007 l 899 1001 l 900 913 l 208 922 l 208 1007 m 1036 54 q 925 51 992 51 q 761 100 815 51 q 692 224 707 149 q 676 419 676 300 l 676 524 l 446 525 q 382 268 425 396 q 276 39 339 140 l 206 82 q 301 293 260 174 q 363 525 343 413 l 111 526 l 111 613 l 1022 606 l 1022 521 l 758 522 l 757 401 q 768 253 760 303 q 814 169 776 204 q 935 133 851 133 q 1031 138 986 133 l 1036 54 z "},"兄":{"ha":1049,"x_min":111,"x_max":938,"o":"m 938 36 q 814 32 874 32 q 656 77 710 33 q 583 197 601 121 q 565 394 565 274 l 565 463 l 385 464 q 243 15 353 207 l 171 58 q 301 465 271 228 l 111 467 l 118 1036 l 843 1024 l 853 460 l 644 461 l 644 379 q 656 233 644 289 q 705 146 668 178 q 815 114 742 114 q 929 119 878 114 l 938 36 m 760 940 l 199 949 l 193 551 l 767 546 l 760 940 z "},"充":{"ha":1099,"x_min":111,"x_max":988,"o":"m 176 518 l 322 863 l 111 864 l 111 944 l 499 940 l 499 1085 l 579 1083 l 575 940 l 958 936 l 961 856 l 413 861 l 296 600 l 790 613 q 725 736 761 674 l 796 776 q 949 446 886 621 l 875 414 q 826 532 854 469 l 176 518 m 219 56 q 315 224 282 138 q 357 421 347 311 l 438 414 q 391 197 426 294 q 288 7 356 99 l 219 56 m 988 7 q 893 3 944 3 q 738 46 790 3 q 668 161 685 89 q 653 340 651 233 l 653 414 l 733 414 q 732 333 732 382 q 743 199 732 251 q 790 115 754 146 q 893 85 825 85 q 951 88 913 85 l 981 89 l 988 7 z "},"兆":{"ha":1215,"x_min":111,"x_max":1104,"o":"m 422 1004 l 500 1004 l 500 747 q 489 470 500 578 q 435 258 478 363 q 303 50 393 153 l 243 103 q 355 274 317 189 q 408 464 393 358 q 281 380 353 422 q 146 308 208 338 l 111 381 q 269 466 185 414 q 418 569 354 518 q 422 743 422 649 l 422 1004 m 1104 60 q 976 51 1054 51 q 861 70 910 51 q 776 128 813 89 q 709 297 725 182 q 693 583 693 413 l 693 674 l 694 1003 l 772 1003 l 772 690 l 772 564 q 1088 393 940 486 l 1046 322 q 774 474 939 396 q 790 288 778 356 q 831 189 803 221 q 890 145 857 158 q 972 132 924 132 q 1096 140 1021 132 l 1104 60 m 1040 875 q 976 758 1014 818 q 897 649 938 699 l 836 694 q 975 914 911 790 l 1040 875 m 307 649 q 222 749 271 696 q 132 840 174 801 l 188 893 q 281 798 232 851 q 368 697 331 744 l 307 649 z "},"先":{"ha":1118,"x_min":111,"x_max":1007,"o":"m 897 111 q 983 114 928 111 l 989 36 l 958 35 q 894 32 917 32 q 738 83 789 32 q 672 213 686 135 q 658 410 658 290 l 658 453 l 438 456 q 283 26 410 207 l 215 71 q 309 253 274 154 q 356 457 344 353 l 111 460 l 113 543 l 519 538 l 522 779 l 257 783 q 200 633 226 690 l 125 671 q 190 847 163 753 q 231 1031 218 940 l 313 1017 q 281 867 300 946 l 524 861 l 525 1063 l 606 1061 l 603 860 l 931 854 l 929 772 l 601 778 l 597 538 l 1006 532 l 1007 449 l 736 451 l 736 400 q 744 245 736 303 q 788 149 753 188 q 897 111 824 111 z "},"光":{"ha":1086,"x_min":111,"x_max":975,"o":"m 974 488 l 719 489 l 721 432 q 728 265 721 322 q 769 167 735 207 q 882 126 804 126 q 968 129 896 126 l 972 51 q 878 47 942 47 q 721 99 772 47 q 656 226 669 150 q 642 421 642 303 l 642 490 l 439 492 q 391 248 428 357 q 281 33 354 139 l 213 76 q 313 272 278 172 q 360 493 347 371 l 111 494 l 111 578 l 499 574 l 501 1024 l 582 1024 l 578 572 l 975 568 l 974 488 m 897 940 q 831 778 871 863 q 746 628 790 694 l 675 669 q 756 813 717 732 q 821 969 794 893 l 897 940 m 317 629 q 154 917 233 803 l 222 960 q 389 667 314 835 l 317 629 z "},"克":{"ha":1086,"x_min":111,"x_max":975,"o":"m 975 -22 l 851 -24 q 672 42 724 -24 q 621 242 621 108 l 621 333 l 428 338 q 369 140 414 232 q 253 -24 324 47 l 194 31 q 351 339 318 154 l 149 342 l 161 757 l 485 747 l 486 881 l 111 885 l 111 965 l 488 960 l 489 1111 l 568 1110 l 567 960 l 944 954 l 944 875 l 565 879 l 564 746 l 883 736 l 894 329 l 699 332 l 697 251 q 710 139 699 179 q 759 78 722 99 q 869 57 796 57 q 971 58 942 57 l 975 -22 m 806 656 l 238 669 l 229 424 l 811 414 l 806 656 z "},"免":{"ha":1086,"x_min":111,"x_max":975,"o":"m 975 21 q 871 13 925 13 q 828 14 843 13 q 688 54 736 17 q 622 153 639 92 q 606 308 606 215 l 606 375 l 497 376 q 210 -3 418 138 l 164 65 q 410 376 332 176 l 111 378 l 124 781 l 506 775 q 590 938 546 838 l 401 1004 q 319 825 376 940 l 246 858 q 357 1110 308 985 l 697 988 q 600 774 665 900 l 918 769 l 933 374 l 686 375 l 686 292 q 713 151 685 201 q 829 97 742 101 l 878 96 q 965 101 928 96 l 975 21 m 199 696 l 188 457 l 435 456 q 468 693 468 574 l 199 696 m 853 451 l 843 690 l 549 693 q 519 454 546 569 l 853 451 z "},"兑":{"ha":988,"x_min":111,"x_max":876,"o":"m 876 14 l 825 10 q 753 6 786 6 q 606 68 650 6 q 558 256 561 131 l 557 371 l 393 371 q 334 172 375 258 q 225 4 293 86 l 160 56 q 257 199 219 125 q 314 372 294 274 l 111 374 l 117 875 l 300 872 q 210 1049 274 938 l 275 1088 q 388 871 344 976 l 557 867 q 658 1090 608 949 l 729 1061 q 646 865 690 946 l 833 863 l 842 368 l 636 369 l 638 257 q 666 129 640 171 q 754 88 692 88 q 868 96 789 88 l 876 14 m 754 782 l 196 789 l 192 456 l 761 451 l 754 782 z "},"兔":{"ha":1090,"x_min":111,"x_max":979,"o":"m 979 47 q 807 36 899 36 q 656 72 708 36 q 586 173 604 108 q 568 336 568 238 l 568 397 l 503 397 q 214 19 426 168 l 168 88 q 417 399 342 207 l 111 400 l 126 807 l 515 801 q 600 965 557 871 l 406 1033 q 319 849 379 968 l 246 883 q 361 1139 313 1013 l 707 1015 q 608 800 674 924 l 919 796 l 938 394 l 649 396 l 649 329 q 658 219 649 263 q 698 149 667 176 q 793 119 729 121 q 969 128 867 118 l 979 47 m 200 724 l 189 479 l 442 476 q 485 719 478 601 l 200 724 m 857 474 l 846 715 l 565 719 q 526 476 558 600 l 857 474 m 786 351 q 911 229 861 290 l 854 176 q 733 299 807 231 l 786 351 z "},"兖":{"ha":1125,"x_min":111,"x_max":1014,"o":"m 589 978 l 1007 972 l 1008 893 l 111 901 l 113 983 l 511 978 l 511 1101 l 590 1099 l 589 978 m 424 838 q 317 699 372 757 q 193 589 263 642 l 143 654 q 253 751 204 697 q 358 882 303 804 l 424 838 m 928 596 q 707 828 821 676 l 769 879 q 982 657 872 744 l 928 596 m 461 753 l 529 710 l 390 486 l 760 492 q 694 583 731 535 l 760 628 q 919 365 850 510 l 847 329 q 804 417 828 374 l 249 407 l 461 753 m 224 13 q 310 169 276 90 q 368 346 344 249 l 446 324 q 385 135 422 222 q 292 -32 349 49 l 224 13 m 1014 -28 q 918 -33 956 -33 q 735 20 789 -33 q 674 190 681 74 q 669 289 669 236 q 668 322 668 300 l 751 322 q 754 208 751 240 q 792 87 760 124 q 907 50 824 50 q 1007 57 969 50 l 1014 -28 z "},"党":{"ha":1113,"x_min":111,"x_max":1001,"o":"m 922 738 l 919 867 l 193 876 l 189 744 l 111 749 l 118 957 l 300 954 q 235 1065 269 1015 l 297 1107 q 383 953 350 1033 l 518 950 l 521 1133 l 601 1129 l 597 950 l 736 947 q 806 1110 779 1029 l 878 1086 q 824 946 861 1019 l 994 943 l 1001 739 l 922 738 m 853 79 q 956 85 915 79 l 963 3 q 851 -3 901 -3 q 706 34 756 -3 q 641 136 657 71 q 626 307 625 201 l 628 340 l 483 342 q 360 -19 456 149 l 286 21 q 400 343 374 164 l 251 344 l 261 739 l 860 728 l 869 338 l 708 339 l 707 292 q 715 171 706 215 q 757 103 725 126 q 853 79 789 79 m 781 647 l 335 653 l 332 425 l 789 417 l 781 647 z "},"兜":{"ha":1376,"x_min":111,"x_max":1265,"o":"m 939 940 l 943 399 l 447 404 l 456 951 l 649 947 q 714 1088 694 1033 l 788 1064 q 740 944 772 1018 l 939 940 m 371 872 q 301 847 358 868 q 188 814 243 826 l 189 485 l 360 483 l 361 406 l 113 410 l 111 875 q 346 946 188 892 l 371 872 m 1265 408 l 1022 404 l 1019 481 l 1192 485 l 1185 839 l 1019 843 l 1021 918 l 1253 913 l 1265 408 m 865 711 l 865 861 l 531 869 l 528 717 l 865 711 m 525 636 l 522 482 l 865 478 l 865 632 l 525 636 m 406 25 q 487 176 454 94 q 526 336 519 257 l 601 326 q 557 147 592 236 q 468 -18 522 57 l 406 25 m 1038 58 q 1104 61 1060 58 q 1135 64 1126 64 l 1143 -11 q 1038 -19 1096 -19 q 903 7 951 -19 q 835 86 856 33 q 815 226 815 139 l 815 324 l 890 324 l 890 263 q 898 147 890 188 q 938 82 906 106 q 1038 58 969 58 z "},"兢":{"ha":1392,"x_min":111,"x_max":1281,"o":"m 518 94 l 632 110 l 646 33 l 443 7 l 429 342 l 318 344 q 235 -21 294 131 l 158 6 q 238 346 215 146 l 122 347 l 135 749 l 335 743 l 336 883 l 111 888 l 111 968 l 336 964 l 338 1096 l 417 1096 l 415 961 l 639 957 l 639 878 l 415 882 l 414 740 l 617 735 l 626 339 l 508 340 l 518 94 m 1281 -24 q 1235 -26 1261 -26 q 1106 7 1147 -26 q 1053 89 1064 40 q 1040 215 1042 138 l 1042 333 l 908 336 q 825 -29 883 118 l 749 -3 q 829 338 804 132 l 718 339 l 731 740 l 931 736 l 932 876 l 704 881 l 704 961 l 933 957 l 935 1088 l 1014 1088 l 1013 954 l 1239 950 l 1239 869 l 1011 874 l 1010 733 l 1214 729 l 1224 331 l 1117 332 l 1115 214 q 1135 92 1115 129 q 1213 49 1154 54 l 1235 47 q 1275 51 1253 47 l 1281 -24 m 539 654 l 211 664 l 204 429 l 544 424 l 539 654 m 1136 647 l 808 656 l 800 421 l 1142 415 l 1136 647 z "},"入":{"ha":1160,"x_min":111,"x_max":1049,"o":"m 432 1004 q 564 640 489 794 q 756 356 639 485 q 1049 115 872 228 l 1004 38 q 740 246 853 135 q 546 489 628 357 q 372 255 471 369 q 169 51 274 140 l 111 118 q 322 328 221 208 q 496 576 422 447 q 346 982 404 753 l 432 1004 z "},"全":{"ha":1233,"x_min":111,"x_max":1122,"o":"m 617 1082 q 1122 579 878 760 l 1075 514 q 826 730 947 613 q 617 965 704 847 q 161 522 429 731 l 111 589 q 617 1082 369 790 m 915 275 l 664 279 l 667 88 l 1026 83 l 1026 6 l 215 13 l 214 92 l 589 88 l 586 281 l 331 285 l 332 364 l 585 360 l 582 536 l 296 540 l 299 622 l 946 613 l 947 531 l 660 535 l 663 357 l 915 353 l 915 275 z "},"兩":{"ha":1279,"x_min":113,"x_max":1168,"o":"m 674 781 l 1160 772 l 1168 -11 l 1088 -11 l 1082 692 l 674 700 l 679 -19 l 597 -18 l 592 701 l 194 708 l 193 -11 l 113 -7 l 118 789 l 592 782 l 592 942 l 135 946 l 135 1029 l 1125 1017 l 1124 936 l 671 940 l 674 781 m 849 611 q 938 392 889 478 q 1075 204 988 306 l 1022 150 q 886 326 936 242 q 824 234 856 274 q 746 146 793 194 l 694 201 q 781 303 749 260 q 844 406 814 347 q 778 586 815 471 l 849 611 m 367 610 q 457 387 408 474 q 592 204 506 300 l 542 149 q 401 329 450 246 q 339 236 371 276 q 258 147 307 196 l 208 201 q 295 303 261 258 q 360 408 329 349 q 294 586 328 481 l 367 610 z "},"八":{"ha":1357,"x_min":111,"x_max":1246,"o":"m 933 943 q 1061 524 990 710 q 1246 168 1132 339 l 1174 115 q 979 490 1057 290 q 847 926 901 690 l 933 943 m 111 158 q 263 526 199 332 q 363 914 328 721 l 451 896 q 192 117 371 472 l 111 158 z "},"公":{"ha":1232,"x_min":111,"x_max":1121,"o":"m 881 994 q 1121 558 983 776 l 1050 514 q 803 957 917 717 l 881 994 m 408 957 q 183 518 304 707 l 111 561 q 329 990 232 750 l 408 957 m 849 450 q 1018 72 950 258 l 938 39 q 889 168 926 71 l 263 150 l 490 728 l 568 697 l 386 233 l 853 247 q 774 410 824 314 l 849 450 z "},"六":{"ha":1283,"x_min":115,"x_max":1172,"o":"m 669 847 l 1128 840 l 1129 760 l 124 771 l 126 854 l 590 847 l 593 1021 l 674 1017 l 669 847 m 932 565 q 1172 119 1069 347 l 1096 85 q 858 522 989 314 l 932 565 m 115 128 q 339 558 257 353 l 417 525 q 188 85 321 288 l 115 128 z "},"兮":{"ha":1253,"x_min":111,"x_max":1142,"o":"m 818 1101 q 956 849 876 963 q 1142 633 1035 735 l 1085 574 q 883 812 964 699 q 746 1068 803 925 l 818 1101 m 472 1067 q 345 806 414 918 q 169 575 276 694 l 111 632 q 275 847 210 739 q 400 1100 340 956 l 472 1067 m 264 592 l 267 672 l 985 664 l 985 582 l 503 589 l 474 372 l 925 358 q 911 142 921 224 q 872 -57 901 61 l 793 -39 q 827 121 818 57 q 842 278 836 185 l 385 293 l 424 589 l 264 592 z "},"兰":{"ha":1206,"x_min":111,"x_max":1094,"o":"m 1033 810 l 1035 726 l 160 740 l 161 824 l 382 819 q 281 1018 338 933 l 349 1058 q 469 818 429 936 l 732 814 q 853 1054 806 936 l 926 1021 q 826 813 893 928 l 1033 810 m 1004 417 l 201 425 l 201 508 l 1001 500 l 1004 417 m 113 85 l 111 169 l 1094 161 l 1093 76 l 113 85 z "},"共":{"ha":1290,"x_min":111,"x_max":1179,"o":"m 931 397 l 1178 396 l 1179 311 l 111 321 l 111 404 l 342 403 l 343 764 l 160 765 l 158 847 l 343 846 l 344 1053 l 429 1054 l 428 846 l 846 844 l 844 1054 l 924 1054 l 926 844 l 1121 843 l 1122 757 l 926 758 l 931 397 m 846 760 l 426 763 l 424 401 l 849 399 l 846 760 m 254 57 q 403 265 347 167 l 471 225 q 314 4 413 111 l 254 57 m 857 257 q 1024 46 931 182 l 960 3 q 799 208 886 114 l 857 257 z "},"关":{"ha":1115,"x_min":111,"x_max":1000,"o":"m 611 432 q 692 278 631 356 q 837 141 754 200 q 1000 60 919 82 l 969 -18 q 737 114 847 19 q 558 329 626 208 q 400 123 507 218 q 176 -21 293 28 l 143 54 q 303 146 225 86 q 435 282 381 206 q 506 433 490 358 l 111 439 l 113 524 l 514 518 q 517 614 517 579 l 515 764 l 157 767 l 158 849 l 360 846 q 260 1024 317 938 l 329 1064 q 447 846 403 957 l 685 843 q 793 1061 751 956 l 867 1031 q 778 842 835 947 l 954 840 l 953 761 l 596 764 l 596 681 q 600 517 596 567 l 996 511 l 999 426 l 611 432 z "},"兴":{"ha":1153,"x_min":113,"x_max":1042,"o":"m 1039 585 l 1042 504 l 113 514 l 117 597 l 724 589 q 824 785 775 674 q 904 992 874 896 l 976 964 q 902 763 944 863 q 817 588 860 664 l 1039 585 m 532 694 q 482 828 514 749 q 426 954 450 908 l 496 986 q 553 858 522 935 q 604 721 585 782 l 532 694 m 283 681 q 217 819 254 744 q 157 928 179 894 l 224 965 q 287 850 249 925 q 351 715 325 775 l 283 681 m 810 442 q 926 274 878 356 q 1025 82 974 192 l 950 46 q 851 231 897 151 q 742 394 804 310 l 810 442 m 125 90 q 235 254 190 176 q 328 439 281 332 l 406 403 q 306 208 354 290 q 192 39 258 125 l 125 90 z "},"兵":{"ha":1185,"x_min":111,"x_max":1074,"o":"m 1071 317 l 1074 232 l 111 236 l 113 321 l 257 321 l 269 953 q 904 1046 592 979 l 922 965 q 343 881 717 924 l 340 743 l 1026 740 l 1026 657 l 889 658 l 892 318 l 1071 317 m 811 658 l 339 661 l 332 319 l 811 318 l 811 658 m 199 42 q 294 124 243 75 q 388 221 346 174 l 444 167 q 351 66 404 118 q 249 -21 297 14 l 199 42 m 790 221 q 985 39 914 118 l 926 -14 q 739 164 850 74 l 790 221 z "},"其":{"ha":1208,"x_min":111,"x_max":1097,"o":"m 900 850 l 910 268 l 1097 268 l 1097 186 l 111 189 l 111 271 l 285 269 l 288 856 l 138 857 l 138 936 l 289 935 l 289 1071 l 368 1069 l 367 933 l 821 929 l 819 1064 l 896 1063 l 899 929 l 1046 928 l 1046 849 l 900 850 m 824 711 l 822 850 l 367 854 l 365 721 l 824 711 m 825 631 l 364 639 l 363 493 l 828 488 l 825 631 m 831 268 l 828 406 l 363 411 l 361 269 l 831 268 m 814 160 q 933 -4 876 88 l 869 -47 q 751 114 814 39 l 814 160 m 254 10 q 375 158 335 96 l 436 115 q 310 -43 381 31 l 254 10 z "},"具":{"ha":1174,"x_min":111,"x_max":1063,"o":"m 931 1083 l 943 267 l 1063 265 l 1063 181 l 111 189 l 111 272 l 236 271 l 242 1089 l 931 1083 m 851 878 l 850 999 l 319 1004 l 319 883 l 851 878 m 318 800 l 318 679 l 856 675 l 853 793 l 318 800 m 858 468 l 857 590 l 317 594 l 317 475 l 858 468 m 860 385 l 317 390 l 315 271 l 863 267 l 860 385 m 256 7 q 364 147 328 88 l 424 104 q 373 30 404 71 q 314 -42 342 -11 l 256 7 m 794 142 q 915 1 882 49 l 857 -44 q 739 90 803 22 l 794 142 z "},"典":{"ha":1306,"x_min":111,"x_max":1194,"o":"m 1093 342 l 1193 340 l 1194 258 l 111 265 l 111 349 l 200 349 l 214 936 l 472 931 l 472 1065 l 549 1064 l 549 929 l 754 926 l 754 1063 l 831 1061 l 832 924 l 1081 919 l 1093 342 m 471 644 l 472 851 l 290 854 l 285 647 l 471 644 m 756 642 l 754 847 l 549 850 l 549 643 l 756 642 m 833 640 l 1010 638 l 1007 844 l 832 847 l 833 640 m 469 561 l 283 564 l 278 347 l 468 346 l 469 561 m 758 343 l 757 558 l 547 560 l 547 346 l 758 343 m 1011 554 l 833 557 l 835 343 l 1015 342 l 1011 554 m 317 71 q 457 261 400 164 l 521 215 q 378 19 474 125 l 317 71 m 840 254 q 919 166 878 217 q 993 68 961 115 l 928 24 q 782 204 868 113 l 840 254 z "},"兹":{"ha":1289,"x_min":111,"x_max":1178,"o":"m 1101 56 q 1086 133 1096 86 l 724 122 l 846 414 l 628 501 l 756 792 l 358 797 l 246 543 l 382 493 l 458 675 l 533 643 l 349 204 l 575 210 q 528 371 557 278 l 603 396 q 652 231 635 300 q 682 74 669 161 l 607 53 q 593 131 608 47 l 226 122 l 351 418 l 139 499 l 274 799 l 111 801 l 113 882 l 422 878 q 396 950 411 915 q 354 1036 381 985 l 426 1072 q 470 983 453 1024 q 511 876 488 942 l 779 874 q 858 1061 818 946 l 933 1033 q 869 872 907 944 l 1157 868 l 1156 785 l 844 790 l 738 547 l 878 492 l 953 671 l 1028 639 l 843 206 l 1065 211 q 1017 358 1046 283 l 1093 383 q 1178 72 1147 247 l 1101 56 z "},"养":{"ha":1115,"x_min":114,"x_max":1000,"o":"m 767 474 q 1000 253 878 338 l 953 188 q 663 475 799 293 l 442 476 q 350 361 406 421 l 411 360 q 392 147 408 242 q 338 -43 376 53 l 257 -25 q 309 153 294 71 q 326 336 324 236 q 168 196 257 267 l 118 264 q 340 478 264 378 l 114 481 l 114 561 l 394 558 q 451 683 429 619 l 186 686 l 186 767 l 478 763 q 507 890 486 794 l 153 894 l 154 975 l 329 972 q 268 1096 301 1038 l 338 1132 q 414 971 379 1060 l 688 965 q 768 1128 735 1032 l 838 1097 q 776 964 811 1025 l 950 961 l 949 885 l 589 889 q 563 761 578 818 l 917 757 l 919 678 l 540 682 q 489 557 515 611 l 996 553 l 999 471 l 767 474 m 686 -49 l 678 350 l 761 350 l 767 -49 l 686 -49 z "},"兼":{"ha":1154,"x_min":111,"x_max":1043,"o":"m 1043 600 l 1043 514 l 933 517 l 938 289 l 731 293 l 731 282 q 982 54 858 144 l 936 -10 q 732 167 844 57 l 735 -71 l 651 -68 l 649 294 l 461 297 l 456 -75 l 376 -74 l 381 175 q 172 -14 281 65 l 125 50 q 260 165 192 101 q 382 296 328 229 l 382 299 l 171 303 l 172 388 l 383 383 l 385 525 l 111 531 l 115 615 l 386 610 l 389 743 l 183 749 l 183 833 l 390 829 l 392 943 l 119 946 l 119 1026 l 346 1024 q 297 1122 325 1069 l 364 1158 q 428 1024 396 1110 l 692 1019 q 731 1092 711 1053 q 760 1157 750 1131 l 828 1125 q 778 1019 811 1085 l 1003 1017 l 1003 935 l 726 939 l 728 824 l 926 819 l 931 603 l 1043 600 m 643 939 l 472 942 l 469 828 l 644 825 l 643 939 m 644 739 l 468 743 l 467 610 l 646 607 l 644 739 m 729 606 l 850 603 l 849 735 l 728 738 l 729 606 m 465 525 l 463 382 l 647 379 l 647 521 l 465 525 m 729 519 l 731 378 l 853 375 l 851 517 l 729 519 z "},"兽":{"ha":1040,"x_min":111,"x_max":929,"o":"m 917 1049 l 929 529 l 111 531 l 119 1061 l 306 1058 q 232 1176 282 1106 l 299 1217 q 396 1057 361 1126 l 640 1053 q 728 1207 690 1124 l 794 1171 q 733 1051 767 1110 l 917 1049 m 482 829 l 481 976 l 197 979 l 194 832 l 482 829 m 558 829 l 844 826 l 840 974 l 556 976 l 558 829 m 483 751 l 193 754 l 190 611 l 485 610 l 483 751 m 560 751 l 563 610 l 851 608 l 847 749 l 560 751 m 899 343 l 132 351 l 133 432 l 900 424 l 899 343 m 182 -117 l 186 238 l 860 228 l 871 -118 l 182 -117 m 267 153 l 263 -36 l 788 -36 l 783 146 l 267 153 z "},"冀":{"ha":1140,"x_min":113,"x_max":1029,"o":"m 403 788 l 404 899 q 132 832 264 860 l 114 911 q 404 981 264 938 l 406 1061 l 114 1067 l 113 1146 l 406 1139 l 407 1246 l 485 1244 l 481 786 l 403 788 m 883 786 q 713 822 768 786 q 641 919 657 857 q 625 1093 625 981 q 626 1242 625 1193 l 706 1242 q 705 1206 706 1229 q 704 1140 704 1183 l 704 1092 l 704 1086 q 996 1147 885 1115 l 1015 1068 q 707 1007 819 1025 q 726 927 711 957 q 779 883 742 897 q 886 868 817 868 q 1022 874 944 868 l 1029 793 q 883 786 957 786 m 1000 44 l 1004 -32 l 747 -29 q 876 -150 828 -93 l 821 -201 q 693 -79 753 -125 l 738 -28 l 422 -24 l 472 -72 q 346 -200 422 -135 l 296 -143 q 415 -24 350 -96 l 164 -21 l 167 54 l 357 51 l 358 140 l 233 142 l 236 218 l 358 217 l 360 303 l 197 304 l 203 749 l 940 729 l 950 297 l 800 299 l 801 211 l 933 210 l 933 133 l 803 135 l 804 47 l 1000 44 m 536 557 l 536 658 l 281 664 l 279 561 l 536 557 m 617 556 l 865 551 l 864 650 l 617 656 l 617 556 m 536 478 l 278 481 l 276 383 l 536 381 l 536 478 m 617 476 l 617 379 l 869 376 l 868 474 l 617 476 m 726 299 l 436 301 l 435 215 l 726 213 l 726 299 m 728 136 l 435 139 l 433 51 l 728 47 l 728 136 z "},"冁":{"ha":1551,"x_min":111,"x_max":1436,"o":"m 665 363 l 429 365 l 428 256 l 650 250 l 650 172 l 428 176 l 426 17 l 350 17 l 351 178 l 135 182 l 136 263 l 351 257 l 351 365 l 111 368 l 122 894 l 433 888 q 518 1069 483 976 l 593 1043 q 522 885 560 951 l 657 882 l 665 363 m 261 894 q 211 1044 243 964 l 283 1069 q 335 914 315 999 l 261 894 m 1286 124 q 1436 53 1344 82 l 1410 -21 q 1212 78 1288 21 q 1063 244 1136 136 l 1122 294 q 1225 172 1182 213 q 1340 294 1282 218 l 1006 297 l 1007 13 l 932 13 l 931 297 l 858 299 l 860 378 l 969 376 l 972 514 l 875 515 l 875 596 l 972 594 l 975 725 l 838 726 q 778 71 828 311 l 700 88 q 764 961 764 368 l 764 1022 l 1418 1014 l 1426 721 l 1292 722 l 1294 592 l 1404 590 l 1404 511 l 1294 513 l 1297 372 l 1433 371 l 1435 293 l 1346 294 l 1399 243 q 1286 124 1354 182 m 840 940 q 839 811 840 854 l 1344 804 l 1343 935 l 840 940 m 353 667 l 354 810 l 196 813 l 193 671 l 353 667 m 431 664 l 585 660 l 582 804 l 432 807 l 431 664 m 1217 722 l 1050 724 l 1049 594 l 1218 592 l 1217 722 m 190 590 l 188 450 l 353 447 l 353 586 l 190 590 m 431 585 l 429 446 l 589 443 l 586 581 l 431 585 m 1219 513 l 1047 514 l 1046 375 l 1221 374 l 1219 513 z "},"内":{"ha":1178,"x_min":111,"x_max":1067,"o":"m 1058 878 l 1067 53 l 983 54 l 976 792 l 643 796 q 615 625 636 694 q 763 506 688 571 q 892 383 838 440 l 832 317 q 581 542 719 429 q 477 425 543 476 q 308 328 411 374 l 268 413 q 428 507 368 458 q 518 624 488 556 q 551 796 549 693 l 206 800 l 196 53 l 111 53 l 125 890 l 551 885 l 554 1051 l 643 1051 l 643 883 l 1058 878 z "},"冈":{"ha":1174,"x_min":111,"x_max":1063,"o":"m 119 1035 l 1053 1025 l 1063 31 l 982 31 l 975 940 l 197 950 l 192 31 l 111 32 l 119 1035 m 874 801 q 674 518 792 657 q 865 304 782 406 l 807 244 q 618 456 736 333 q 349 211 500 325 l 297 279 q 557 517 435 382 q 322 739 460 614 l 375 803 q 614 581 493 701 q 803 850 731 719 l 874 801 z "},"冉":{"ha":1278,"x_min":111,"x_max":1167,"o":"m 1165 311 l 1167 225 l 1035 226 l 1038 26 l 956 26 l 953 228 l 321 239 l 319 35 l 236 36 l 238 240 l 111 242 l 113 326 l 239 325 l 244 856 l 589 850 l 588 1064 l 669 1063 l 672 850 l 1026 844 l 1033 313 l 1165 311 m 592 583 l 590 764 l 324 768 l 322 586 l 592 583 m 947 579 l 944 758 l 672 763 l 675 582 l 947 579 m 593 497 l 322 500 l 321 324 l 594 319 l 593 497 m 675 496 l 678 318 l 951 314 l 949 493 l 675 496 z "},"册":{"ha":1346,"x_min":111,"x_max":1235,"o":"m 1235 565 l 1235 479 l 1108 481 l 1113 56 l 1029 56 l 1026 482 l 814 485 q 771 56 803 244 l 690 68 q 735 486 724 272 l 599 488 l 600 56 l 519 56 l 518 489 l 308 492 q 261 56 297 264 l 181 69 q 226 493 215 290 l 111 494 l 111 579 l 231 578 q 236 1001 236 732 l 596 992 l 597 574 l 739 571 q 744 999 744 728 l 1104 992 l 1108 567 l 1235 565 m 518 574 l 517 907 l 317 913 q 311 576 317 706 l 518 574 m 1026 568 l 1025 907 l 828 911 q 818 571 824 688 l 1026 568 z "},"再":{"ha":1281,"x_min":111,"x_max":1169,"o":"m 1168 290 l 1169 204 l 1036 206 l 1039 14 l 958 14 l 954 207 l 318 217 l 317 24 l 233 25 l 235 218 l 111 219 l 113 304 l 236 303 l 240 781 l 590 776 l 590 778 l 589 947 l 246 950 l 246 1035 l 1013 1028 l 1010 944 l 671 947 l 674 779 l 674 776 l 1028 772 l 1035 292 l 1168 290 m 592 532 l 590 689 l 319 692 l 319 535 l 592 532 m 675 531 l 949 528 l 946 686 l 674 689 l 675 531 m 593 446 l 318 449 l 318 301 l 594 297 l 593 446 m 676 444 l 678 297 l 953 293 l 950 442 l 676 444 z "},"冒":{"ha":1042,"x_min":111,"x_max":931,"o":"m 931 647 l 847 647 l 839 1036 l 199 1042 l 194 647 l 111 647 l 118 1129 l 918 1118 l 931 647 m 253 863 l 254 946 l 786 938 l 788 857 l 253 863 m 793 678 l 250 682 l 250 764 l 790 760 l 793 678 m 208 -47 l 218 585 l 835 578 l 850 -56 l 208 -47 m 761 393 l 758 496 l 294 501 l 293 400 l 761 393 m 292 218 l 765 213 l 763 315 l 292 319 l 292 218 m 290 135 l 289 32 l 771 28 l 768 131 l 290 135 z "},"冕":{"ha":1076,"x_min":111,"x_max":965,"o":"m 844 1071 l 197 1078 l 194 704 l 111 704 l 117 1163 l 922 1154 l 936 703 l 853 703 l 844 1071 m 796 900 l 253 906 l 254 985 l 794 979 l 796 900 m 965 -96 q 835 -103 908 -104 q 663 -32 708 -97 q 618 147 618 33 l 618 158 l 503 158 q 395 21 464 82 q 213 -103 326 -40 l 172 -33 q 319 60 263 14 q 411 160 376 106 l 150 161 l 160 494 l 556 489 q 603 578 574 515 l 424 650 q 354 522 388 572 l 282 556 q 332 643 310 603 q 375 732 354 683 l 250 733 l 250 814 l 797 808 l 800 729 l 432 732 l 711 619 q 649 488 686 561 l 911 483 l 924 156 l 700 157 l 700 144 q 725 28 700 71 q 836 -19 750 -15 q 958 -14 910 -22 l 965 -96 m 231 242 l 450 240 q 482 408 474 306 l 236 411 l 231 242 m 563 407 q 533 239 554 313 l 843 236 l 836 404 l 563 407 z "},"冗":{"ha":1144,"x_min":111,"x_max":1033,"o":"m 190 756 l 111 760 l 122 1003 l 986 993 l 997 765 l 917 764 l 911 917 l 196 924 l 190 756 m 1033 60 q 971 57 992 57 q 818 119 867 57 q 758 274 769 182 q 746 525 747 365 l 746 590 l 746 685 l 365 692 q 278 53 361 361 l 201 71 q 292 775 290 415 l 824 764 l 825 501 l 825 453 q 834 289 825 354 q 876 181 843 224 q 978 138 910 138 q 1024 140 1001 138 l 1033 60 z "},"写":{"ha":1147,"x_min":111,"x_max":1036,"o":"m 119 1043 l 1031 1035 l 1036 803 l 956 801 l 954 954 l 193 961 l 192 807 l 111 810 l 119 1043 m 403 679 l 397 517 l 910 508 q 878 -28 910 171 l 796 -17 q 825 426 825 194 l 313 435 l 329 889 l 408 885 l 404 760 l 861 760 l 861 675 l 403 679 m 189 192 l 188 272 l 725 271 l 728 192 l 189 192 z "},"军":{"ha":1096,"x_min":111,"x_max":985,"o":"m 906 1004 l 193 1014 l 192 851 l 111 853 l 118 1097 l 979 1086 l 985 842 l 907 842 l 906 1004 m 954 200 l 956 119 l 646 119 l 646 -35 l 567 -35 l 567 119 l 176 119 l 179 200 l 567 200 l 565 364 l 213 364 q 317 686 274 533 l 135 686 l 135 767 l 340 767 q 381 939 365 868 l 460 924 q 421 767 447 865 l 947 765 l 949 685 l 399 686 q 321 440 358 544 l 565 440 l 565 622 l 646 622 l 646 442 l 907 442 l 908 364 l 646 364 l 646 200 l 954 200 z "},"农":{"ha":1135,"x_min":111,"x_max":1024,"o":"m 556 804 q 428 564 506 681 l 424 26 l 349 29 l 354 464 q 165 274 274 364 l 111 333 q 324 554 238 438 q 468 806 410 671 l 210 808 l 208 646 l 131 650 l 138 890 l 499 886 q 554 1067 529 965 l 632 1043 q 586 885 613 964 l 1015 879 l 1024 650 l 946 650 l 942 800 l 556 804 m 774 301 q 1014 79 865 175 l 978 10 q 798 149 872 74 q 666 324 724 225 q 547 571 608 422 l 617 606 q 731 367 672 461 q 939 542 847 449 l 992 486 q 774 301 903 389 z "},"冠":{"ha":1311,"x_min":111,"x_max":1200,"o":"m 1022 953 l 243 963 l 242 835 l 164 836 l 169 1044 l 1094 1035 l 1103 818 l 1025 818 l 1022 953 m 1092 561 l 1200 558 l 1200 483 l 1092 485 l 1097 35 l 1024 35 l 1018 488 l 692 493 l 692 569 l 1017 563 l 1014 750 l 1089 749 l 1092 561 m 593 658 l 171 664 l 174 742 l 594 736 l 593 658 m 683 75 q 774 78 713 75 l 807 79 l 813 -1 q 688 -6 763 -6 q 527 28 581 -6 q 456 126 474 61 q 439 304 439 190 l 439 393 l 313 394 q 288 191 306 296 q 243 0 271 86 l 168 22 q 238 396 217 172 l 111 399 l 111 478 l 643 468 l 644 389 l 515 392 l 515 301 q 524 168 517 211 q 568 100 532 125 q 683 75 604 75 m 801 422 q 958 221 882 333 l 896 175 q 743 371 838 263 l 801 422 z "},"冤":{"ha":1063,"x_min":111,"x_max":947,"o":"m 865 981 l 190 989 l 188 851 l 111 853 l 117 1071 l 939 1060 l 947 833 l 871 833 l 865 981 m 825 63 q 932 69 885 63 l 940 -10 q 844 -18 893 -18 q 688 13 742 -18 q 616 103 635 43 q 597 265 597 164 l 597 328 l 514 329 q 415 141 481 219 q 238 -19 350 63 l 190 46 q 342 178 286 114 q 429 329 399 243 l 139 333 l 147 679 l 529 669 q 588 794 571 743 l 451 850 q 388 717 433 806 l 317 750 q 411 951 356 829 l 690 839 q 618 668 663 758 l 894 661 l 904 324 l 675 326 l 675 258 q 685 153 675 194 q 728 88 694 113 q 825 63 761 63 m 218 410 l 451 407 q 475 593 469 492 l 224 599 l 218 410 m 554 590 q 533 406 550 501 l 824 401 l 818 585 l 554 590 m 763 283 q 928 182 849 240 l 885 119 q 725 219 782 188 l 763 283 z "},"冥":{"ha":1164,"x_min":114,"x_max":1050,"o":"m 969 979 l 200 988 l 200 863 l 119 867 l 124 1072 l 1043 1063 l 1050 857 l 971 857 l 969 979 m 926 379 l 613 382 l 611 276 l 1046 271 l 1044 189 l 114 200 l 114 283 l 531 278 l 532 382 l 238 385 l 249 875 l 919 863 l 926 379 m 843 660 l 842 782 l 325 790 l 322 668 l 843 660 m 844 578 l 321 586 l 318 468 l 847 456 l 844 578 m 197 19 q 375 185 306 103 l 431 129 q 344 40 393 86 q 249 -43 296 -7 l 197 19 m 776 181 q 953 6 842 128 l 893 -49 q 724 124 803 57 l 776 181 z "},"冬":{"ha":1115,"x_min":111,"x_max":1004,"o":"m 621 565 q 1004 319 817 415 l 967 242 q 553 507 753 350 q 151 258 394 382 l 111 333 q 483 564 346 461 q 276 757 379 653 q 203 667 242 713 l 139 721 q 397 1088 281 886 l 878 894 q 621 565 779 710 m 328 825 q 551 619 426 724 q 751 849 688 733 l 429 978 q 328 825 393 915 m 456 360 q 714 278 583 326 l 690 201 q 436 282 576 247 l 456 360 m 354 136 q 781 60 585 111 l 763 -25 q 346 51 565 26 l 354 136 z "},"冯":{"ha":1367,"x_min":114,"x_max":1256,"o":"m 1251 556 q 1256 376 1256 458 q 1249 186 1256 276 q 1225 -14 1242 96 l 1146 -1 q 1174 361 1174 181 q 1172 472 1174 433 l 608 476 l 628 833 l 706 829 l 690 560 l 1026 557 l 1040 914 l 561 918 l 563 1003 l 1122 997 l 1107 557 l 1251 556 m 389 726 q 115 831 224 794 l 142 906 q 417 801 264 868 l 389 726 m 114 168 q 265 301 193 225 q 386 456 336 376 l 453 408 q 324 243 401 324 q 163 101 247 163 l 114 168 m 1090 218 l 533 222 l 533 306 l 1090 300 l 1090 218 z "},"冰":{"ha":1504,"x_min":111,"x_max":1393,"o":"m 1103 433 q 1393 208 1233 294 l 1354 135 q 1135 283 1239 196 q 953 478 1032 371 l 956 57 l 875 57 l 868 1006 l 949 1004 l 951 625 q 1046 497 994 560 q 1261 746 1167 606 l 1329 699 q 1103 433 1239 563 m 381 706 q 111 803 249 760 l 138 878 q 408 781 282 836 l 381 706 m 450 633 l 453 714 l 826 706 q 740 401 825 544 q 497 142 656 258 l 450 206 q 642 396 561 282 q 738 625 724 510 l 450 633 m 122 149 q 378 435 292 290 l 444 389 q 324 224 396 303 q 171 82 251 144 l 122 149 z "},"冲":{"ha":1340,"x_min":111,"x_max":1229,"o":"m 1221 842 l 1229 322 l 924 325 l 925 25 l 844 28 l 843 325 l 529 328 l 538 857 l 839 850 l 838 1038 l 918 1036 l 919 849 l 1221 842 m 378 731 q 111 831 253 785 l 138 906 q 269 861 196 889 q 407 807 342 833 l 378 731 m 617 772 l 610 414 l 842 410 l 839 767 l 617 772 m 1146 406 l 1142 758 l 919 764 l 922 410 l 1146 406 m 121 179 q 378 464 286 314 l 444 417 q 319 251 392 331 q 168 111 246 172 l 121 179 z "},"决":{"ha":1381,"x_min":111,"x_max":1269,"o":"m 917 418 q 1026 245 946 329 q 1224 90 1106 161 l 1179 19 q 1052 108 1121 51 q 928 232 983 165 q 851 360 872 299 q 742 178 831 278 q 563 19 653 78 l 515 89 q 786 419 739 240 l 490 424 l 492 510 l 800 504 q 804 646 804 549 l 804 782 l 557 783 l 557 868 l 804 864 q 803 1031 804 974 l 886 1031 q 888 863 888 975 l 1156 858 l 1164 499 l 1267 497 l 1269 414 l 917 418 m 381 740 q 111 838 247 797 l 136 913 q 408 815 279 875 l 381 740 m 888 781 q 900 503 888 604 l 1085 500 l 1081 779 l 888 781 m 121 185 q 378 469 290 324 l 444 424 q 321 258 393 338 q 171 118 249 178 l 121 185 z "},"况":{"ha":1317,"x_min":113,"x_max":1206,"o":"m 1206 40 q 1119 35 1175 35 q 957 119 999 38 q 917 351 915 201 l 917 450 l 765 451 q 629 36 733 226 l 556 74 q 682 451 651 246 l 544 453 l 553 983 l 1142 979 l 1154 449 l 999 450 l 994 346 q 1022 177 996 236 q 1125 117 1049 118 q 1200 119 1171 117 l 1206 40 m 381 738 q 113 842 235 799 l 139 915 q 410 813 260 876 l 381 738 m 1063 894 l 629 899 l 626 536 l 1069 533 l 1063 894 m 117 197 q 379 468 283 315 l 446 421 q 165 131 343 253 l 117 197 z "},"冶":{"ha":1286,"x_min":114,"x_max":1175,"o":"m 1036 847 q 1175 506 1135 649 l 1101 482 l 1065 576 l 519 571 l 732 1036 l 808 1000 l 643 649 l 1035 656 q 964 815 996 754 l 1036 847 m 388 735 q 115 840 279 781 l 142 914 q 415 810 304 858 l 388 735 m 114 176 q 265 310 194 236 q 386 463 336 383 l 453 415 q 324 251 401 331 q 163 111 247 171 l 114 176 m 564 10 l 569 443 l 1081 432 l 1088 7 l 564 10 m 647 358 l 640 94 l 1007 90 l 1001 351 l 647 358 z "},"冷":{"ha":1351,"x_min":113,"x_max":1240,"o":"m 850 1019 q 1050 792 958 889 q 1240 619 1142 696 l 1189 554 q 1008 722 1111 618 q 850 897 904 826 q 703 729 811 839 q 526 565 596 619 l 475 631 q 661 797 568 697 q 850 1019 754 897 m 388 740 q 115 844 208 813 l 142 921 q 417 815 281 875 l 388 740 m 1107 500 q 931 156 1101 324 q 1056 88 1014 111 l 1017 22 q 667 183 849 119 l 693 250 q 854 192 774 226 q 963 315 915 246 q 1017 424 1011 383 l 572 429 l 574 507 l 815 504 l 814 717 l 890 717 l 894 503 l 1107 500 m 113 188 q 386 474 292 321 l 453 425 q 324 262 401 342 q 163 121 247 182 l 113 188 z "},"冻":{"ha":1389,"x_min":114,"x_max":1278,"o":"m 1213 453 l 957 453 l 960 18 l 882 18 l 878 451 l 549 451 q 668 800 624 649 l 497 800 l 497 885 l 692 883 q 731 1043 708 946 l 808 1029 q 774 883 796 969 l 1260 881 l 1261 797 l 750 799 q 663 532 714 671 l 878 533 l 876 708 l 956 707 l 957 533 l 1211 535 l 1213 453 m 388 718 q 115 822 228 783 l 142 897 q 415 793 275 854 l 388 718 m 114 161 q 265 292 194 218 q 386 447 335 367 l 453 399 q 324 233 400 313 q 163 94 249 154 l 114 161 m 1143 363 q 1278 101 1210 260 l 1203 72 q 1141 206 1171 147 q 1072 322 1111 264 l 1143 363 m 558 106 q 681 356 622 210 l 754 324 q 694 183 724 244 q 628 65 665 122 l 558 106 z "},"冼":{"ha":1335,"x_min":111,"x_max":1224,"o":"m 1224 39 q 1160 35 1190 35 q 1018 67 1068 35 q 949 163 968 100 q 931 326 931 226 l 931 432 l 763 433 q 716 221 751 324 q 625 33 681 118 l 553 76 q 679 433 653 242 l 496 435 l 497 518 l 829 514 l 828 757 l 636 758 q 581 601 611 664 l 504 633 q 565 808 540 713 q 599 996 589 904 l 678 986 q 657 840 675 933 l 828 838 l 826 1019 l 904 1018 l 906 838 l 1151 835 l 1151 754 l 906 756 l 907 514 l 1211 510 l 1214 431 l 1011 432 q 1008 333 1008 376 q 1022 204 1011 247 q 1065 140 1032 161 q 1168 118 1099 118 q 1217 119 1200 118 l 1224 39 m 379 739 q 111 836 225 803 l 136 911 q 408 814 261 878 l 379 739 m 122 185 q 378 469 290 322 l 444 422 q 322 258 394 338 q 171 118 249 179 l 122 185 z "},"冽":{"ha":1503,"x_min":114,"x_max":1392,"o":"m 476 890 l 481 971 l 971 961 l 969 881 l 667 886 q 646 724 658 800 l 940 701 q 897 363 935 517 q 776 29 858 208 l 704 61 q 815 378 772 213 l 586 442 q 554 340 561 358 l 479 364 q 548 616 519 479 q 589 888 576 753 l 476 890 m 1300 956 l 1381 956 l 1392 42 l 1311 43 l 1300 956 m 372 738 q 114 832 269 781 l 140 907 q 400 813 286 864 l 372 738 m 1119 293 l 1036 293 l 1043 864 l 1124 863 l 1119 293 m 632 646 l 606 518 l 833 457 q 857 628 853 540 l 632 646 m 118 154 q 259 281 197 214 q 371 432 321 347 l 440 388 q 322 224 388 296 q 168 89 256 151 l 118 154 z "},"净":{"ha":1310,"x_min":115,"x_max":1199,"o":"m 1199 543 l 1199 458 l 1119 460 l 1122 244 l 853 244 l 853 -1 l 774 0 l 774 246 l 525 246 l 525 329 l 774 326 l 774 467 l 474 474 l 475 556 l 774 550 l 774 693 l 532 699 l 533 781 l 796 774 q 864 913 840 844 l 726 964 q 667 842 696 892 l 597 872 q 685 1068 635 947 l 967 958 q 885 771 938 869 l 1114 764 l 1118 544 l 1199 543 m 388 721 q 115 825 250 778 l 140 900 q 415 797 264 861 l 388 721 m 1039 686 l 853 690 l 853 549 l 1042 546 l 1039 686 m 853 325 l 1044 324 l 1042 461 l 853 465 l 853 325 m 115 164 q 388 451 288 292 l 454 404 q 164 97 350 232 l 115 164 z "},"凄":{"ha":1375,"x_min":111,"x_max":1264,"o":"m 1264 669 l 1264 589 l 1178 590 l 1182 414 l 751 422 l 738 329 l 1222 317 l 1222 239 l 1122 242 q 1099 103 1115 176 l 1190 97 l 1186 17 l 1078 25 q 1046 -65 1064 -18 l 971 -35 l 996 31 l 615 57 l 644 253 l 540 257 l 544 335 l 657 332 l 671 424 l 579 425 l 579 503 l 836 499 l 836 596 l 522 601 l 522 679 l 836 675 l 836 774 l 588 776 l 588 858 l 835 854 l 835 943 l 564 946 l 565 1024 l 835 1021 l 835 1106 l 913 1106 l 913 1019 l 1197 1017 l 1197 939 l 913 942 l 914 853 l 1171 847 l 1175 671 l 1264 669 m 389 756 q 115 857 265 808 l 142 932 q 417 832 274 892 l 389 756 m 1097 671 l 1096 769 l 914 774 l 914 675 l 1097 671 m 914 596 l 914 497 l 1101 494 l 1100 592 l 914 596 m 111 196 q 261 326 190 251 q 383 482 332 400 l 451 435 q 322 268 399 349 q 160 129 244 188 l 111 196 m 726 251 l 708 129 l 1018 110 q 1042 243 1035 178 l 726 251 z "},"准":{"ha":1326,"x_min":111,"x_max":1215,"o":"m 1215 72 l 588 72 l 593 710 q 522 597 560 649 l 454 643 q 638 1014 557 792 l 713 985 q 663 851 689 911 l 904 847 q 846 981 876 929 l 915 1014 q 989 846 957 942 l 1211 842 l 1210 763 l 976 767 l 978 610 l 1189 607 l 1192 529 l 978 532 l 978 385 l 1192 382 l 1192 303 l 978 306 l 979 154 l 1214 153 l 1215 72 m 388 729 q 115 832 236 790 l 142 907 q 415 803 263 868 l 388 729 m 896 611 l 894 768 l 669 771 l 669 615 l 896 611 m 668 390 l 896 386 l 896 532 l 669 535 l 668 390 m 111 172 q 262 303 190 229 q 385 457 333 378 l 451 410 q 322 245 399 325 q 160 106 244 165 l 111 172 m 668 157 l 897 156 l 896 306 l 668 308 l 668 157 z "},"凉":{"ha":1275,"x_min":115,"x_max":1157,"o":"m 885 940 l 1154 936 l 1156 856 l 532 864 l 533 944 l 804 940 l 806 1074 l 885 1069 l 885 940 m 390 732 q 115 838 300 771 l 142 914 q 418 807 292 861 l 390 732 m 1108 749 l 1117 357 l 881 357 l 885 8 l 806 8 l 803 358 l 572 358 l 583 760 l 1108 749 m 1033 671 l 657 679 l 650 435 l 1039 433 l 1033 671 m 117 169 q 266 303 196 228 q 386 460 336 378 l 453 413 q 324 243 400 325 q 164 103 247 161 l 117 169 m 540 69 q 639 282 599 175 l 713 253 q 667 141 696 203 q 611 29 639 79 l 540 69 m 1043 282 q 1157 67 1101 193 l 1085 33 q 975 243 1035 153 l 1043 282 z "},"凋":{"ha":1392,"x_min":114,"x_max":1281,"o":"m 1267 983 l 1281 56 l 1201 56 l 1192 903 l 594 914 q 582 440 594 638 q 533 60 569 242 l 453 74 q 508 487 496 279 q 521 996 519 694 l 1267 983 m 389 733 q 151 825 303 771 q 114 839 139 831 l 142 914 q 418 810 254 876 l 389 733 m 1104 683 l 933 688 l 933 572 l 1136 568 l 1136 489 l 651 500 l 651 579 l 854 575 l 856 689 l 693 693 l 693 775 l 856 769 l 857 869 l 935 869 l 935 767 l 1103 761 l 1104 683 m 114 174 q 262 309 192 233 q 382 465 332 385 l 450 417 q 318 246 394 328 q 160 107 242 164 l 114 174 m 686 117 l 694 418 l 1092 407 l 1099 115 l 686 117 m 767 336 l 763 192 l 1022 186 l 1019 331 l 767 336 z "},"凌":{"ha":1228,"x_min":114,"x_max":1117,"o":"m 925 658 l 483 661 l 483 744 l 754 742 l 753 879 l 533 881 l 533 961 l 751 960 l 750 1068 l 832 1068 l 833 958 l 1051 957 l 1053 876 l 835 878 l 838 742 l 1103 739 l 1104 657 l 933 658 q 1117 449 1033 560 l 1056 399 q 876 603 975 508 l 925 658 m 388 736 q 115 842 279 782 l 142 915 q 415 813 265 875 l 388 736 m 643 504 q 553 392 606 446 l 492 443 q 639 656 574 535 l 707 619 q 654 521 683 569 l 643 504 m 1014 442 q 894 200 994 300 q 1082 113 972 149 l 1056 39 q 832 147 924 79 q 585 32 746 86 l 558 107 q 763 203 679 149 q 689 283 718 244 l 744 336 q 826 251 786 286 q 915 383 896 314 l 715 435 q 676 337 700 388 q 631 240 653 286 l 560 275 q 664 531 629 418 l 1014 442 m 114 182 q 386 468 293 317 l 454 421 q 325 258 401 336 q 163 115 249 179 l 114 182 z "},"减":{"ha":1521,"x_min":114,"x_max":1410,"o":"m 1353 36 q 1200 260 1263 135 q 1025 33 1131 136 l 971 89 q 1010 132 972 90 l 658 133 l 660 485 l 1006 481 l 1015 139 q 1160 349 1106 243 q 1054 797 1085 535 l 607 800 q 533 65 607 371 l 456 85 q 513 449 497 258 q 528 885 528 640 l 1044 879 l 1032 1043 l 1113 1047 l 1121 943 l 1126 879 l 1293 878 q 1219 924 1258 896 l 1171 954 l 1211 1017 q 1333 935 1281 978 l 1294 878 l 1375 876 l 1376 794 l 1136 796 q 1207 454 1160 597 q 1268 672 1244 549 l 1347 654 q 1247 350 1311 485 q 1410 96 1306 218 l 1353 36 m 389 713 q 115 817 281 760 l 142 893 q 418 788 269 850 l 389 713 m 665 699 l 1007 693 l 1008 610 l 664 615 l 665 699 m 114 153 q 262 287 192 211 q 382 443 332 363 l 450 396 q 320 226 397 308 q 161 86 243 143 l 114 153 m 738 404 l 739 213 l 935 211 l 929 400 l 738 404 z "}}}
